if (_typeface_js && _typeface_js.loadFace) _typeface_js.loadFace({"glyphs":{"0":{"ha":747,"x_min":0,"x_max":0,"o":"m 373 932 b 110 460 196 932 110 773 b 373 -13 110 147 196 -13 b 637 459 550 -13 637 146 b 373 932 637 773 551 932 z m 373 921 b 625 459 544 921 625 766 b 373 -2 625 153 544 -2 b 121 460 203 -2 121 154 b 373 921 121 766 204 921 z "},"1":{"ha":538,"x_min":0,"x_max":0,"o":"m 347 917 l 337 917 l 80 754 l 86 745 l 335 904 l 335 0 l 347 0 z "},"2":{"ha":643,"x_min":0,"x_max":0,"o":"m 306 932 b 69 809 202 932 134 887 l 78 803 b 306 921 139 877 204 921 b 526 703 443 921 526 826 b 68 11 526 523 430 420 l 68 0 l 549 0 l 551 11 l 83 11 b 538 704 437 413 538 517 b 306 932 538 830 451 932 z "},"3":{"ha":654,"x_min":0,"x_max":0,"o":"m 300 932 b 72 833 214 932 138 901 l 79 825 b 300 921 147 894 220 921 b 514 712 433 921 514 836 b 297 495 514 562 406 495 l 247 495 l 246 485 l 294 485 b 539 248 441 485 539 405 b 293 -2 539 102 443 -2 b 54 106 190 -2 123 28 l 46 100 b 293 -13 115 22 185 -13 b 551 249 448 -13 551 95 b 329 490 551 407 452 485 b 525 712 430 499 525 568 b 300 932 525 841 441 932 z "},"4":{"ha":689,"x_min":0,"x_max":0,"o":"m 633 279 l 502 279 l 502 581 l 492 581 l 491 279 l 87 279 l 374 927 l 364 932 l 75 279 l 75 268 l 491 268 l 491 0 l 502 0 l 502 268 l 633 268 z "},"5":{"ha":654,"x_min":0,"x_max":0,"o":"m 532 917 l 125 917 l 125 497 l 135 497 b 316 560 190 538 239 560 b 550 296 462 560 550 462 b 296 -2 550 122 461 -2 b 75 95 204 -2 128 34 l 66 88 b 296 -13 122 25 200 -13 b 561 296 468 -13 561 117 b 317 570 561 467 471 570 b 136 508 237 570 183 545 l 136 907 l 531 907 z "},"6":{"ha":704,"x_min":0,"x_max":0,"o":"m 384 589 b 121 410 261 589 178 505 b 418 921 123 701 224 921 b 553 873 474 921 516 904 l 560 882 b 418 932 522 912 478 932 b 110 399 217 932 110 710 b 376 -13 110 173 184 -13 b 616 308 528 -13 616 106 b 384 589 616 497 521 589 z m 376 -2 b 121 394 194 -2 122 174 b 384 578 180 495 264 578 b 604 308 516 578 604 490 b 376 -2 604 117 525 -2 z "},"7":{"ha":603,"x_min":0,"x_max":0,"o":"m 536 917 l 60 917 l 60 907 l 524 907 l 135 -3 l 146 -7 l 536 908 z "},"8":{"ha":728,"x_min":0,"x_max":0,"o":"m 417 473 b 594 712 544 540 594 605 b 364 932 594 855 487 932 b 136 713 242 932 136 847 b 311 506 136 618 183 558 b 94 234 170 448 94 365 b 366 -13 94 85 197 -13 b 633 229 529 -13 633 85 b 417 473 633 352 572 411 z m 147 713 b 364 921 147 841 247 921 b 583 712 483 921 583 849 b 407 478 583 605 530 543 l 333 507 b 147 713 201 559 147 613 z m 366 -2 b 106 234 204 -2 106 90 b 323 501 106 361 176 440 l 380 479 b 622 229 546 414 622 362 b 366 -2 622 90 521 -2 z "},"9":{"ha":697,"x_min":0,"x_max":0,"o":"m 341 932 b 89 638 195 932 89 820 b 325 360 89 466 190 360 b 583 528 438 360 522 421 b 170 -7 577 208 429 75 l 174 -17 b 594 548 440 67 594 209 b 341 932 594 787 524 932 z m 326 371 b 100 638 195 371 100 472 b 342 921 100 815 202 921 b 583 544 516 921 583 782 b 326 371 521 433 438 371 z "},"A":{"ha":772,"x_min":0,"x_max":0,"o":"m 715 0 l 727 0 l 392 945 l 379 945 l 46 0 l 57 0 l 159 292 l 612 292 z m 163 302 l 385 935 l 609 302 z "},"Á":{"ha":772,"x_min":0,"x_max":0,"o":"m 503 1166 l 498 1177 l 264 1076 l 267 1068 z m 715 0 l 727 0 l 392 945 l 379 945 l 46 0 l 57 0 l 159 292 l 612 292 z m 163 302 l 385 935 l 609 302 z "},"Ă":{"ha":772,"x_min":0,"x_max":0,"o":"m 386 1074 b 525 1165 464 1074 510 1119 l 516 1166 b 386 1085 498 1119 453 1085 b 257 1166 320 1085 275 1119 l 248 1165 b 386 1074 263 1119 309 1074 z m 715 0 l 727 0 l 392 945 l 379 945 l 46 0 l 57 0 l 159 292 l 612 292 z m 163 302 l 385 935 l 609 302 z "},"Ắ":{"ha":772,"x_min":0,"x_max":0,"o":"m 507 1303 l 497 1312 l 370 1158 l 378 1152 z m 386 1024 b 525 1115 464 1024 510 1069 l 516 1116 b 386 1034 498 1069 453 1034 b 257 1116 320 1034 275 1069 l 248 1115 b 386 1024 263 1069 309 1024 z m 715 0 l 727 0 l 392 945 l 379 945 l 46 0 l 57 0 l 159 292 l 612 292 z m 163 302 l 385 935 l 609 302 z "},"Ặ":{"ha":772,"x_min":0,"x_max":0,"o":"m 386 1074 b 525 1165 464 1074 510 1119 l 516 1166 b 386 1085 498 1119 453 1085 b 257 1166 320 1085 275 1119 l 248 1165 b 386 1074 263 1119 309 1074 z m 727 0 l 392 945 l 379 945 l 46 0 l 57 0 l 159 292 l 612 292 l 715 0 z m 163 302 l 385 935 l 609 302 z m 386 -145 b 372 -159 377 -145 372 -152 b 386 -173 372 -166 377 -173 b 401 -159 396 -173 401 -166 b 386 -145 401 -152 396 -145 z "},"Ằ":{"ha":772,"x_min":0,"x_max":0,"o":"m 410 1158 l 283 1312 l 273 1303 l 402 1152 z m 386 1024 b 525 1115 464 1024 510 1069 l 516 1116 b 386 1034 498 1069 453 1034 b 257 1116 320 1034 275 1069 l 248 1115 b 386 1024 263 1069 309 1024 z m 715 0 l 727 0 l 392 945 l 379 945 l 46 0 l 57 0 l 159 292 l 612 292 z m 163 302 l 385 935 l 609 302 z "},"Ẳ":{"ha":772,"x_min":0,"x_max":0,"o":"m 394 1325 b 473 1254 442 1325 473 1299 b 380 1177 473 1197 431 1180 l 380 1114 l 391 1114 l 391 1169 b 485 1254 444 1174 485 1195 b 394 1335 485 1305 448 1335 b 310 1311 359 1335 332 1323 l 314 1302 b 394 1325 335 1314 361 1325 z m 386 1024 b 525 1115 464 1024 510 1069 l 516 1116 b 386 1034 498 1069 453 1034 b 257 1116 320 1034 275 1069 l 248 1115 b 386 1024 263 1069 309 1024 z m 715 0 l 727 0 l 392 945 l 379 945 l 46 0 l 57 0 l 159 292 l 612 292 z m 163 302 l 385 935 l 609 302 z "},"Ẵ":{"ha":772,"x_min":0,"x_max":0,"o":"m 309 1269 b 467 1208 360 1269 406 1208 b 562 1267 507 1208 533 1225 l 554 1271 b 467 1218 526 1233 504 1218 b 309 1279 408 1218 364 1279 b 216 1224 271 1279 247 1261 l 223 1220 b 309 1269 253 1254 275 1269 z m 389 1034 b 259 1116 322 1034 277 1069 l 250 1115 b 389 1024 265 1069 311 1024 b 527 1115 466 1024 512 1069 l 518 1116 b 389 1034 500 1069 455 1034 z m 715 0 l 727 0 l 392 945 l 379 945 l 46 0 l 57 0 l 159 292 l 612 292 z m 163 302 l 385 935 l 609 302 z "},"Ǎ":{"ha":772,"x_min":0,"x_max":0,"o":"m 389 1060 l 545 1175 l 538 1181 l 385 1072 l 235 1181 l 228 1175 l 382 1060 z m 715 0 l 727 0 l 392 945 l 379 945 l 46 0 l 57 0 l 159 292 l 612 292 z m 163 302 l 385 935 l 609 302 z "},"Â":{"ha":772,"x_min":0,"x_max":0,"o":"m 385 1177 l 538 1068 l 545 1074 l 389 1189 l 382 1189 l 228 1074 l 235 1068 z m 715 0 l 727 0 l 392 945 l 379 945 l 46 0 l 57 0 l 159 292 l 612 292 z m 163 302 l 385 935 l 609 302 z "},"Ấ":{"ha":772,"x_min":0,"x_max":0,"o":"m 631 1286 l 622 1294 l 495 1140 l 502 1135 z m 384 1133 l 537 1025 l 544 1031 l 388 1145 l 381 1145 l 227 1031 l 233 1025 z m 715 0 l 727 0 l 392 945 l 379 945 l 46 0 l 57 0 l 159 292 l 612 292 z m 163 302 l 385 935 l 609 302 z "},"Ậ":{"ha":772,"x_min":0,"x_max":0,"o":"m 385 1177 l 538 1068 l 545 1074 l 389 1189 l 382 1189 l 228 1074 l 235 1068 z m 727 0 l 392 945 l 379 945 l 46 0 l 57 0 l 159 292 l 612 292 l 715 0 z m 163 302 l 385 935 l 609 302 z m 386 -145 b 372 -159 377 -145 372 -152 b 386 -173 372 -166 377 -173 b 401 -159 396 -173 401 -166 b 386 -145 401 -152 396 -145 z "},"Ầ":{"ha":772,"x_min":0,"x_max":0,"o":"m 275 1140 l 148 1294 l 139 1286 l 268 1135 z m 233 1025 l 384 1133 l 537 1025 l 544 1031 l 388 1145 l 381 1145 l 227 1031 z m 715 0 l 727 0 l 392 945 l 379 945 l 46 0 l 57 0 l 159 292 l 612 292 z m 163 302 l 385 935 l 609 302 z "},"Ẩ":{"ha":772,"x_min":0,"x_max":0,"o":"m 524 1314 b 604 1243 572 1314 604 1288 b 510 1166 604 1186 562 1169 l 510 1103 l 522 1103 l 522 1158 b 615 1243 574 1162 615 1184 b 525 1324 615 1294 579 1324 b 441 1300 489 1324 462 1312 l 445 1291 b 525 1314 466 1302 491 1314 z m 384 1133 l 537 1025 l 544 1031 l 388 1145 l 381 1145 l 227 1031 l 233 1025 z m 715 0 l 727 0 l 392 945 l 379 945 l 46 0 l 57 0 l 159 292 l 612 292 z m 163 302 l 385 935 l 609 302 z "},"Ẫ":{"ha":772,"x_min":0,"x_max":0,"o":"m 303 1273 b 462 1212 355 1273 400 1212 b 557 1271 502 1212 527 1229 l 549 1276 b 462 1222 521 1238 499 1222 b 303 1283 403 1222 359 1283 b 210 1229 266 1283 242 1266 l 218 1224 b 303 1273 248 1258 269 1273 z m 381 1145 l 227 1031 l 233 1025 l 384 1133 l 537 1025 l 544 1031 l 388 1145 z m 715 0 l 727 0 l 392 945 l 379 945 l 46 0 l 57 0 l 159 292 l 612 292 z m 163 302 l 385 935 l 609 302 z "},"Ȁ":{"ha":772,"x_min":0,"x_max":0,"o":"m 318 1094 l 224 1268 l 213 1262 l 310 1089 z m 459 1097 l 373 1264 l 362 1259 l 451 1093 z m 715 0 l 727 0 l 392 945 l 379 945 l 46 0 l 57 0 l 159 292 l 612 292 z m 163 302 l 385 935 l 609 302 z "},"Ä":{"ha":772,"x_min":0,"x_max":0,"o":"m 279 1115 b 293 1129 288 1115 293 1122 b 279 1143 293 1137 288 1143 b 265 1129 270 1143 265 1137 b 279 1115 265 1122 270 1115 z m 493 1115 b 507 1129 502 1115 507 1122 b 493 1143 507 1137 502 1143 b 478 1129 484 1143 478 1137 b 493 1115 478 1122 484 1115 z m 715 0 l 727 0 l 392 945 l 379 945 l 46 0 l 57 0 l 159 292 l 612 292 z m 163 302 l 385 935 l 609 302 z "},"Ǟ":{"ha":772,"x_min":0,"x_max":0,"o":"m 525 1174 l 254 1174 l 254 1163 l 525 1163 z m 265 1045 b 279 1031 265 1037 270 1031 b 293 1045 288 1031 293 1037 b 279 1059 293 1052 288 1059 b 265 1045 270 1059 265 1052 z m 478 1045 b 493 1031 478 1037 484 1031 b 507 1045 502 1031 507 1037 b 493 1059 507 1052 502 1059 b 478 1045 484 1059 478 1052 z m 715 0 l 727 0 l 392 945 l 379 945 l 46 0 l 57 0 l 159 292 l 612 292 z m 163 302 l 385 935 l 609 302 z "},"Ȧ":{"ha":772,"x_min":0,"x_max":0,"o":"m 386 1135 b 401 1149 396 1135 401 1142 b 386 1163 401 1156 396 1163 b 372 1149 377 1163 372 1156 b 386 1135 372 1142 377 1135 z m 715 0 l 727 0 l 392 945 l 379 945 l 46 0 l 57 0 l 159 292 l 612 292 z m 163 302 l 385 935 l 609 302 z "},"Ạ":{"ha":772,"x_min":0,"x_max":0,"o":"m 727 0 l 392 945 l 379 945 l 46 0 l 57 0 l 159 292 l 612 292 l 715 0 z m 163 302 l 385 935 l 609 302 z m 386 -145 b 372 -159 377 -145 372 -152 b 386 -173 372 -166 377 -173 b 401 -159 396 -173 401 -166 b 386 -145 401 -152 396 -145 z "},"Ǡ":{"ha":772,"x_min":0,"x_max":0,"o":"m 523 1174 l 252 1174 l 252 1163 l 523 1163 z m 371 1056 b 385 1042 371 1049 376 1042 b 400 1056 395 1042 400 1049 b 385 1070 400 1063 395 1070 b 371 1056 376 1070 371 1063 z m 715 0 l 727 0 l 392 945 l 379 945 l 46 0 l 57 0 l 159 292 l 612 292 z m 163 302 l 385 935 l 609 302 z "},"À":{"ha":772,"x_min":0,"x_max":0,"o":"m 513 1076 l 279 1177 l 274 1166 l 509 1068 z m 715 0 l 727 0 l 392 945 l 379 945 l 46 0 l 57 0 l 159 292 l 612 292 z m 163 302 l 385 935 l 609 302 z "},"Ả":{"ha":772,"x_min":0,"x_max":0,"o":"m 395 1293 b 474 1222 443 1293 474 1267 b 381 1145 474 1165 433 1148 l 381 1082 l 392 1082 l 392 1137 b 486 1222 445 1142 486 1163 b 396 1303 486 1273 449 1303 b 311 1279 360 1303 333 1291 l 315 1270 b 395 1293 336 1281 362 1293 z m 715 0 l 727 0 l 392 945 l 379 945 l 46 0 l 57 0 l 159 292 l 612 292 z m 163 302 l 385 935 l 609 302 z "},"Ȃ":{"ha":772,"x_min":0,"x_max":0,"o":"m 386 1214 b 516 1119 453 1214 498 1180 l 525 1120 b 386 1225 510 1179 464 1225 b 248 1120 309 1225 263 1179 l 257 1119 b 386 1214 274 1180 320 1214 z m 715 0 l 727 0 l 392 945 l 379 945 l 46 0 l 57 0 l 159 292 l 612 292 z m 163 302 l 385 935 l 609 302 z "},"Ɑ":{"ha":911,"x_min":0,"x_max":0,"o":"m 728 136 l 728 945 l 717 945 l 716 840 b 468 959 661 909 581 959 b 115 456 265 959 115 776 b 458 -13 115 154 257 -13 b 716 127 575 -13 656 37 b 798 -6 718 51 736 20 l 802 4 b 728 136 744 28 728 58 z m 458 -2 b 127 456 264 -2 127 161 b 468 948 127 771 271 948 b 716 825 582 948 661 896 l 716 142 b 458 -2 655 50 575 -2 z "},"Ā":{"ha":772,"x_min":0,"x_max":0,"o":"m 522 1141 l 251 1141 l 251 1130 l 522 1130 z m 715 0 l 727 0 l 392 945 l 379 945 l 46 0 l 57 0 l 159 292 l 612 292 z m 163 302 l 385 935 l 609 302 z "},"Ą":{"ha":772,"x_min":0,"x_max":0,"o":"m 544 -171 b 727 0 544 -82 643 -33 l 392 945 l 379 945 l 46 0 l 57 0 l 159 292 l 612 292 l 714 3 b 532 -172 623 -32 532 -83 b 646 -273 532 -235 574 -273 b 720 -262 672 -273 690 -270 l 720 -251 b 646 -262 690 -259 671 -262 b 544 -171 582 -262 544 -229 z m 163 302 l 385 935 l 609 302 z "},"Å":{"ha":772,"x_min":0,"x_max":0,"o":"m 386 1080 b 481 1175 444 1080 481 1118 b 386 1269 481 1231 446 1269 b 292 1174 329 1269 292 1231 b 386 1080 292 1118 326 1080 z m 386 1260 b 470 1175 440 1260 470 1227 b 386 1090 470 1124 439 1090 b 303 1174 333 1090 303 1122 b 386 1260 303 1225 334 1260 z m 715 0 l 727 0 l 392 945 l 379 945 l 46 0 l 57 0 l 159 292 l 612 292 z m 163 302 l 385 935 l 609 302 z "},"Ǻ":{"ha":772,"x_min":0,"x_max":0,"o":"m 505 1350 l 499 1361 l 265 1260 l 269 1252 z m 291 1118 b 385 1025 291 1063 325 1025 b 480 1120 443 1025 480 1063 b 385 1213 480 1175 445 1213 b 291 1118 328 1213 291 1175 z m 469 1120 b 385 1034 469 1069 438 1034 b 302 1118 332 1034 302 1067 b 385 1204 302 1169 333 1204 b 469 1120 439 1204 469 1171 z m 715 0 l 727 0 l 392 945 l 379 945 l 46 0 l 57 0 l 159 292 l 612 292 z m 163 302 l 385 935 l 609 302 z "},"Ⱥ":{"ha":772,"x_min":0,"x_max":0,"o":"m 715 0 l 727 0 l 467 733 l 541 1013 l 532 1015 l 462 748 l 392 945 l 379 945 l 46 0 l 57 0 l 159 292 l 342 292 l 244 -81 l 253 -83 l 352 292 l 612 292 z m 163 302 l 385 935 l 457 731 l 345 302 z m 354 302 l 463 716 l 609 302 z "},"Ã":{"ha":772,"x_min":0,"x_max":0,"o":"m 306 1185 b 464 1124 357 1185 402 1124 b 559 1184 504 1124 529 1141 l 551 1188 b 464 1135 523 1150 501 1135 b 306 1196 405 1135 361 1196 b 213 1141 268 1196 244 1178 l 220 1137 b 306 1185 250 1170 271 1185 z m 715 0 l 727 0 l 392 945 l 379 945 l 46 0 l 57 0 l 159 292 l 612 292 z m 163 302 l 385 935 l 609 302 z "},"Æ":{"ha":1043,"x_min":0,"x_max":0,"o":"m 652 11 l 525 496 l 888 496 l 888 506 l 522 506 l 409 934 l 900 934 l 901 945 l 391 945 l 26 0 l 37 0 l 145 281 l 569 281 l 643 0 l 977 0 l 977 11 z m 150 292 l 398 935 l 567 292 z "},"Ǽ":{"ha":1043,"x_min":0,"x_max":0,"o":"m 747 1166 l 742 1177 l 508 1076 l 511 1068 z m 652 11 l 525 496 l 888 496 l 888 506 l 522 506 l 409 934 l 900 934 l 901 945 l 391 945 l 26 0 l 37 0 l 145 281 l 569 281 l 643 0 l 977 0 l 977 11 z m 150 292 l 398 935 l 567 292 z "},"Ǣ":{"ha":1043,"x_min":0,"x_max":0,"o":"m 766 1141 l 495 1141 l 495 1130 l 766 1130 z m 652 11 l 525 496 l 888 496 l 888 506 l 522 506 l 409 934 l 900 934 l 901 945 l 391 945 l 26 0 l 37 0 l 145 281 l 569 281 l 643 0 l 977 0 l 977 11 z m 150 292 l 398 935 l 567 292 z "},"B":{"ha":810,"x_min":0,"x_max":0,"o":"m 477 501 b 669 712 585 515 669 593 b 367 945 669 862 562 945 l 178 945 l 178 0 l 404 0 b 721 255 588 0 721 70 b 477 501 721 411 607 494 z m 369 934 b 657 712 557 934 657 855 b 435 505 657 595 566 505 l 189 505 l 189 934 z m 405 11 l 189 11 l 189 495 l 442 495 b 709 255 595 495 709 406 b 405 11 709 74 579 11 z "},"Ḃ":{"ha":810,"x_min":0,"x_max":0,"o":"m 393 1135 b 408 1149 403 1135 408 1142 b 393 1163 408 1156 403 1163 b 379 1149 384 1163 379 1156 b 393 1135 379 1142 384 1135 z m 477 501 b 669 713 585 515 669 593 b 367 945 669 862 562 945 l 178 945 l 178 0 l 404 0 b 721 255 588 0 721 70 b 477 501 721 411 607 494 z m 369 934 b 657 712 557 934 657 855 b 435 505 657 595 566 505 l 189 505 l 189 934 z m 405 11 l 189 11 l 189 495 l 442 495 b 709 255 595 495 709 406 b 405 11 709 74 579 11 z "},"Ḅ":{"ha":810,"x_min":0,"x_max":0,"o":"m 477 501 b 669 712 585 515 669 593 b 367 945 669 862 562 945 l 178 945 l 178 0 l 404 0 b 721 255 588 0 721 70 b 477 501 721 411 607 494 z m 369 934 b 657 712 557 934 657 855 b 435 505 657 595 566 505 l 189 505 l 189 934 z m 405 11 l 189 11 l 189 495 l 442 495 b 709 255 595 495 709 406 b 405 11 709 74 579 11 z m 431 -145 b 416 -159 421 -145 416 -152 b 431 -173 416 -166 421 -173 b 445 -159 440 -173 445 -166 b 431 -145 445 -152 440 -145 z "},"Ꞵ":{"ha":810,"x_min":0,"x_max":0,"o":"m 477 501 b 669 712 585 515 669 589 b 367 945 669 862 562 945 l 178 945 l 178 -266 l 189 -266 l 189 42 b 418 0 250 17 327 0 b 721 264 588 0 721 80 b 477 501 721 427 607 494 z m 418 11 b 189 52 328 11 250 28 l 189 934 l 369 934 b 657 712 557 934 657 855 b 435 505 657 592 566 505 l 313 505 l 312 495 l 442 495 b 709 264 595 495 709 422 b 418 11 709 85 580 11 z "},"Ɓ":{"ha":872,"x_min":0,"x_max":0,"o":"m 540 501 b 731 712 647 515 731 593 b 429 945 731 862 624 945 l 181 945 b 39 822 87 945 39 899 b 78 710 39 770 58 740 l 88 715 b 50 822 66 746 50 774 b 180 935 50 892 92 935 l 240 935 l 240 0 l 466 0 b 783 255 650 0 783 70 b 540 501 783 411 670 494 z m 431 934 b 720 712 619 934 720 855 b 497 505 720 595 628 505 l 251 505 l 251 934 z m 467 11 l 251 11 l 251 495 l 504 495 b 771 255 658 495 771 406 b 467 11 771 74 642 11 z "},"Ƀ":{"ha":801,"x_min":0,"x_max":0,"o":"m 470 501 b 661 712 577 515 661 593 b 359 945 661 862 554 945 l 170 945 l 170 274 l 40 274 l 40 263 l 170 263 l 170 0 l 396 0 b 713 255 580 0 713 70 b 470 501 713 411 600 494 z m 361 934 b 650 712 549 934 650 855 b 427 505 650 595 558 505 l 181 505 l 181 934 z m 397 11 l 181 11 l 181 263 l 452 263 l 452 274 l 181 274 l 181 495 l 434 495 b 701 255 588 495 701 406 b 397 11 701 74 572 11 z "},"Ƃ":{"ha":782,"x_min":0,"x_max":0,"o":"m 383 557 l 189 557 l 189 934 l 597 934 l 599 945 l 178 945 l 178 0 l 388 0 b 684 292 570 0 684 97 b 383 557 684 467 575 557 z m 390 11 l 189 11 l 189 546 l 384 546 b 673 292 568 546 673 461 b 390 11 673 103 565 11 z "},"C":{"ha":739,"x_min":0,"x_max":0,"o":"m 476 959 b 115 471 267 959 115 801 b 474 -13 115 158 262 -13 b 703 71 587 -13 655 30 l 696 80 b 474 -2 649 40 585 -2 b 127 471 269 -2 127 163 b 476 948 127 798 274 948 b 684 870 575 948 632 915 l 691 879 b 476 959 639 924 579 959 z "},"Ć":{"ha":739,"x_min":0,"x_max":0,"o":"m 588 1177 l 353 1076 l 357 1068 l 593 1166 z m 476 959 b 115 471 267 959 115 801 b 474 -13 115 158 262 -13 b 703 71 587 -13 655 30 l 696 80 b 474 -2 649 40 585 -2 b 127 471 269 -2 127 163 b 476 948 127 798 274 948 b 684 870 575 948 632 915 l 691 879 b 476 959 639 924 579 959 z "},"Č":{"ha":739,"x_min":0,"x_max":0,"o":"m 628 1181 l 475 1072 l 324 1181 l 318 1175 l 472 1060 l 478 1060 l 634 1175 z m 476 959 b 115 471 267 959 115 801 b 474 -13 115 158 262 -13 b 703 71 587 -13 655 30 l 696 80 b 474 -2 649 40 585 -2 b 127 471 269 -2 127 163 b 476 948 127 798 274 948 b 684 870 575 948 632 915 l 691 879 b 476 959 639 924 579 959 z "},"Ç":{"ha":739,"x_min":0,"x_max":0,"o":"m 468 -111 l 472 -13 l 474 -13 b 703 71 587 -13 655 30 l 696 80 b 474 -2 649 40 585 -2 b 127 471 269 -2 127 163 b 476 948 127 798 274 948 b 684 870 575 948 632 915 l 691 879 b 476 959 639 924 579 959 b 115 471 267 959 115 801 b 463 -13 115 163 257 -7 l 457 -119 b 582 -196 546 -121 582 -146 b 493 -274 582 -253 538 -274 b 410 -253 455 -274 432 -267 l 405 -262 b 493 -285 427 -275 451 -285 b 594 -196 544 -285 594 -259 b 468 -111 594 -136 547 -113 z "},"Ĉ":{"ha":739,"x_min":0,"x_max":0,"o":"m 324 1068 l 475 1177 l 628 1068 l 634 1074 l 478 1189 l 472 1189 l 318 1074 z m 476 959 b 115 471 267 959 115 801 b 474 -13 115 158 262 -13 b 703 71 587 -13 655 30 l 696 80 b 474 -2 649 40 585 -2 b 127 471 269 -2 127 163 b 476 948 127 798 274 948 b 684 870 575 948 632 915 l 691 879 b 476 959 639 924 579 959 z "},"Ċ":{"ha":739,"x_min":0,"x_max":0,"o":"m 476 1163 b 462 1149 467 1163 462 1156 b 476 1135 462 1142 467 1135 b 490 1149 486 1135 490 1142 b 476 1163 490 1156 486 1163 z m 476 959 b 115 471 267 959 115 801 b 474 -13 115 158 262 -13 b 703 71 587 -13 655 30 l 696 80 b 474 -2 649 40 585 -2 b 127 471 269 -2 127 163 b 476 948 127 798 274 948 b 684 870 575 948 632 915 l 691 879 b 476 959 639 924 579 959 z "},"Ꭓ":{"ha":643,"x_min":0,"x_max":0,"o":"m 328 450 l 574 945 l 562 945 l 320 457 l 79 945 l 67 945 l 313 450 l 26 -129 l 39 -129 l 320 443 l 605 -129 l 617 -129 z "},"Ƈ":{"ha":739,"x_min":0,"x_max":0,"o":"m 802 1120 b 679 981 729 1120 679 1072 l 679 886 b 476 959 634 926 572 959 b 115 471 267 959 115 801 b 474 -13 115 158 262 -13 b 703 71 587 -13 655 30 l 696 80 b 474 -2 649 40 585 -2 b 127 471 270 -2 127 163 b 476 948 127 797 275 948 b 685 871 575 948 632 915 l 691 879 l 691 981 b 802 1110 691 1068 736 1110 b 910 1072 853 1110 883 1093 l 915 1080 b 802 1120 890 1101 856 1120 z "},"Ȼ":{"ha":739,"x_min":0,"x_max":0,"o":"m 703 71 l 696 80 b 474 -2 649 40 585 -2 b 325 33 420 -2 370 10 l 563 938 b 684 870 613 925 650 900 l 691 879 b 565 948 656 909 618 935 l 582 1013 l 574 1015 l 557 950 b 476 959 533 956 506 959 b 115 471 267 959 115 801 b 314 26 115 245 192 93 l 286 -81 l 295 -83 l 322 22 b 474 -13 368 -1 418 -13 b 703 71 587 -13 655 30 z m 127 471 b 476 948 127 798 274 948 b 554 940 506 948 531 945 l 317 37 b 127 471 200 103 127 250 z "},"D":{"ha":854,"x_min":0,"x_max":0,"o":"m 329 945 l 178 945 l 178 0 l 338 0 b 739 483 530 0 739 93 b 329 945 739 870 530 945 z m 329 934 b 727 483 523 934 727 864 b 338 11 727 103 528 11 l 189 11 l 189 934 z "},"Ǳ":{"ha":1521,"x_min":0,"x_max":0,"o":"m 329 945 l 178 945 l 178 0 l 338 0 b 739 483 530 0 739 93 b 329 945 739 870 530 945 z m 1452 945 l 932 945 l 932 934 l 1438 934 l 880 11 l 880 0 l 1429 0 l 1430 11 l 895 11 l 1452 935 z m 329 934 b 727 483 523 934 727 864 b 338 11 727 103 528 11 l 189 11 l 189 934 z "},"Ǆ":{"ha":1521,"x_min":0,"x_max":0,"o":"m 1324 1181 l 1172 1072 l 1021 1181 l 1014 1175 l 1168 1060 l 1175 1060 l 1331 1175 z m 329 945 l 178 945 l 178 0 l 338 0 b 739 483 530 0 739 93 b 329 945 739 870 530 945 z m 1452 945 l 932 945 l 932 934 l 1438 934 l 880 11 l 880 0 l 1429 0 l 1430 11 l 895 11 l 1452 935 z m 329 934 b 727 483 523 934 727 864 b 338 11 727 103 528 11 l 189 11 l 189 934 z "},"Ɖ":{"ha":847,"x_min":0,"x_max":0,"o":"m 323 945 l 171 945 l 171 496 l 40 496 l 40 484 l 171 484 l 171 0 l 331 0 b 732 483 523 0 732 93 b 323 945 732 870 523 945 z m 331 11 l 182 11 l 182 484 l 453 484 l 453 496 l 182 496 l 182 934 l 322 934 b 720 483 516 934 720 864 b 331 11 720 103 521 11 z "},"Ð":{"ha":847,"x_min":0,"x_max":0,"o":"m 323 945 l 171 945 l 171 496 l 40 496 l 40 484 l 171 484 l 171 0 l 331 0 b 732 483 523 0 732 93 b 323 945 732 870 523 945 z m 331 11 l 182 11 l 182 484 l 453 484 l 453 496 l 182 496 l 182 934 l 322 934 b 720 483 516 934 720 864 b 331 11 720 103 521 11 z "},"Ď":{"ha":854,"x_min":0,"x_max":0,"o":"m 555 1181 l 403 1072 l 252 1181 l 245 1175 l 399 1060 l 406 1060 l 562 1175 z m 329 945 l 178 945 l 178 0 l 338 0 b 739 483 530 0 739 93 b 329 945 739 870 530 945 z m 329 934 b 727 483 523 934 727 864 b 338 11 727 103 528 11 l 189 11 l 189 934 z "},"Ḓ":{"ha":854,"x_min":0,"x_max":0,"o":"m 329 945 l 178 945 l 178 0 l 338 0 b 739 483 530 0 739 93 b 329 945 739 870 530 945 z m 329 934 b 727 483 523 934 727 864 b 338 11 727 103 528 11 l 189 11 l 189 934 z m 276 -242 l 428 -126 l 579 -242 l 586 -235 l 432 -114 l 425 -114 l 269 -235 z "},"Đ":{"ha":847,"x_min":0,"x_max":0,"o":"m 323 945 l 171 945 l 171 496 l 40 496 l 40 484 l 171 484 l 171 0 l 331 0 b 732 483 523 0 732 93 b 323 945 732 870 523 945 z m 331 11 l 182 11 l 182 484 l 453 484 l 453 496 l 182 496 l 182 934 l 322 934 b 720 483 516 934 720 864 b 331 11 720 103 521 11 z "},"Ḋ":{"ha":854,"x_min":0,"x_max":0,"o":"m 404 1163 b 389 1149 395 1163 389 1156 b 404 1135 389 1142 395 1135 b 418 1149 413 1135 418 1142 b 404 1163 418 1156 413 1163 z m 329 945 l 178 945 l 178 0 l 338 0 b 739 483 530 0 739 93 b 329 945 739 870 530 945 z m 329 934 b 727 483 523 934 727 864 b 338 11 727 103 528 11 l 189 11 l 189 934 z "},"Ḍ":{"ha":854,"x_min":0,"x_max":0,"o":"m 329 945 l 178 945 l 178 0 l 338 0 b 739 483 530 0 739 93 b 329 945 739 870 530 945 z m 329 934 b 727 483 523 934 727 864 b 338 11 727 103 528 11 l 189 11 l 189 934 z m 428 -173 b 442 -159 437 -173 442 -166 b 428 -145 442 -152 437 -145 b 413 -159 418 -145 413 -152 b 428 -173 413 -166 418 -173 z "},"Ɗ":{"ha":917,"x_min":0,"x_max":0,"o":"m 392 945 l 181 945 b 39 822 87 945 39 899 b 78 710 39 770 58 740 l 88 715 b 50 822 66 746 50 774 b 180 935 50 892 92 935 l 240 935 l 240 0 l 400 0 b 801 483 592 0 801 93 b 392 945 801 870 592 945 z m 401 11 l 251 11 l 251 934 l 391 934 b 790 483 585 934 790 864 b 401 11 790 103 590 11 z "},"Ḏ":{"ha":854,"x_min":0,"x_max":0,"o":"m 329 945 l 178 945 l 178 0 l 338 0 b 739 483 530 0 739 93 b 329 945 739 870 530 945 z m 329 934 b 727 483 523 934 727 864 b 338 11 727 103 528 11 l 189 11 l 189 934 z m 563 -174 l 563 -163 l 292 -163 l 292 -174 z "},"Ƌ":{"ha":782,"x_min":0,"x_max":0,"o":"m 605 945 l 184 945 l 184 934 l 593 934 l 593 557 l 408 557 b 98 272 216 557 98 457 b 385 0 98 89 212 0 l 605 0 z m 386 11 b 110 272 217 11 110 96 b 407 546 110 451 222 546 l 593 546 l 593 11 z "},"ǲ":{"ha":1410,"x_min":0,"x_max":0,"o":"m 329 945 l 178 945 l 178 0 l 338 0 b 739 483 530 0 739 93 b 329 945 739 870 530 945 z m 329 934 b 727 483 523 934 727 864 b 338 11 727 103 528 11 l 189 11 l 189 934 z m 1356 719 l 929 719 l 929 708 l 1341 708 l 887 10 l 887 0 l 1341 0 l 1342 11 l 902 11 l 1356 709 z "},"ǅ":{"ha":1410,"x_min":0,"x_max":0,"o":"m 1291 1025 l 1138 909 l 988 1025 l 981 1018 l 1135 897 l 1142 897 l 1298 1018 z m 329 945 l 178 945 l 178 0 l 338 0 b 739 483 530 0 739 93 b 329 945 739 870 530 945 z m 329 934 b 727 483 523 934 727 864 b 338 11 727 103 528 11 l 189 11 l 189 934 z m 1356 719 l 929 719 l 929 708 l 1341 708 l 887 10 l 887 0 l 1341 0 l 1342 11 l 902 11 l 1356 709 z "},"E":{"ha":688,"x_min":0,"x_max":0,"o":"m 608 945 l 178 945 l 178 0 l 620 0 l 620 11 l 189 11 l 189 496 l 548 496 l 548 506 l 189 506 l 189 934 l 607 934 z "},"É":{"ha":688,"x_min":0,"x_max":0,"o":"m 507 1177 l 273 1076 l 277 1068 l 513 1166 z m 608 945 l 178 945 l 178 0 l 620 0 l 620 11 l 189 11 l 189 496 l 548 496 l 548 506 l 189 506 l 189 934 l 607 934 z "},"Ĕ":{"ha":688,"x_min":0,"x_max":0,"o":"m 396 1074 b 534 1165 474 1074 519 1119 l 525 1166 b 396 1085 508 1119 462 1085 b 266 1166 329 1085 284 1119 l 257 1165 b 396 1074 272 1119 318 1074 z m 608 945 l 178 945 l 178 0 l 620 0 l 620 11 l 189 11 l 189 496 l 548 496 l 548 506 l 189 506 l 189 934 l 607 934 z "},"Ě":{"ha":688,"x_min":0,"x_max":0,"o":"m 547 1181 l 395 1072 l 244 1181 l 237 1175 l 391 1060 l 398 1060 l 554 1175 z m 608 945 l 178 945 l 178 0 l 620 0 l 620 11 l 189 11 l 189 496 l 548 496 l 548 506 l 189 506 l 189 934 l 607 934 z "},"Ȩ":{"ha":688,"x_min":0,"x_max":0,"o":"m 620 0 l 620 11 l 189 11 l 189 496 l 548 496 l 548 506 l 189 506 l 189 934 l 607 934 l 608 945 l 178 945 l 178 0 l 384 0 l 378 -119 b 503 -196 466 -121 503 -146 b 413 -275 503 -253 459 -275 b 330 -253 376 -275 353 -267 l 325 -262 b 413 -285 348 -275 372 -285 b 514 -196 464 -285 514 -259 b 389 -111 514 -136 467 -113 l 393 0 z "},"Ê":{"ha":688,"x_min":0,"x_max":0,"o":"m 244 1068 l 395 1177 l 547 1068 l 554 1074 l 398 1189 l 391 1189 l 237 1074 z m 608 945 l 178 945 l 178 0 l 620 0 l 620 11 l 189 11 l 189 496 l 548 496 l 548 506 l 189 506 l 189 934 l 607 934 z "},"Ế":{"ha":688,"x_min":0,"x_max":0,"o":"m 631 1294 l 504 1140 l 511 1135 l 640 1286 z m 243 1025 l 393 1133 l 546 1025 l 553 1031 l 397 1145 l 390 1145 l 236 1031 z m 608 945 l 178 945 l 178 0 l 620 0 l 620 11 l 189 11 l 189 496 l 548 496 l 548 506 l 189 506 l 189 934 l 607 934 z "},"Ệ":{"ha":688,"x_min":0,"x_max":0,"o":"m 244 1068 l 395 1177 l 547 1068 l 554 1074 l 398 1189 l 391 1189 l 237 1074 z m 608 945 l 178 945 l 178 0 l 620 0 l 620 11 l 189 11 l 189 496 l 548 496 l 548 506 l 189 506 l 189 934 l 607 934 z m 394 -173 b 408 -159 403 -173 408 -166 b 394 -145 408 -152 403 -145 b 380 -159 385 -145 380 -152 b 394 -173 380 -166 385 -173 z "},"Ề":{"ha":688,"x_min":0,"x_max":0,"o":"m 157 1294 l 148 1286 l 277 1135 l 284 1140 z m 243 1025 l 393 1133 l 546 1025 l 553 1031 l 397 1145 l 390 1145 l 236 1031 z m 608 945 l 178 945 l 178 0 l 620 0 l 620 11 l 189 11 l 189 496 l 548 496 l 548 506 l 189 506 l 189 934 l 607 934 z "},"Ể":{"ha":688,"x_min":0,"x_max":0,"o":"m 520 1103 l 531 1103 l 531 1158 b 625 1243 583 1163 625 1184 b 534 1324 625 1294 588 1324 b 450 1300 498 1324 471 1312 l 454 1291 b 534 1314 475 1302 500 1314 b 613 1243 581 1314 613 1288 b 520 1166 613 1186 571 1169 z m 243 1025 l 393 1133 l 546 1025 l 553 1031 l 397 1145 l 390 1145 l 236 1031 z m 608 945 l 178 945 l 178 0 l 620 0 l 620 11 l 189 11 l 189 496 l 548 496 l 548 506 l 189 506 l 189 934 l 607 934 z "},"Ễ":{"ha":688,"x_min":0,"x_max":0,"o":"m 471 1212 b 566 1271 511 1212 536 1229 l 558 1276 b 471 1222 530 1238 508 1222 b 313 1283 412 1222 368 1283 b 220 1229 275 1283 251 1266 l 227 1224 b 313 1273 257 1258 278 1273 b 471 1212 364 1273 410 1212 z m 243 1025 l 393 1133 l 546 1025 l 553 1031 l 397 1145 l 390 1145 l 236 1031 z m 608 945 l 178 945 l 178 0 l 620 0 l 620 11 l 189 11 l 189 496 l 548 496 l 548 506 l 189 506 l 189 934 l 607 934 z "},"Ȅ":{"ha":688,"x_min":0,"x_max":0,"o":"m 234 1268 l 222 1262 l 319 1089 l 327 1094 z m 382 1264 l 371 1259 l 460 1093 l 469 1097 z m 608 945 l 178 945 l 178 0 l 620 0 l 620 11 l 189 11 l 189 496 l 548 496 l 548 506 l 189 506 l 189 934 l 607 934 z "},"Ë":{"ha":688,"x_min":0,"x_max":0,"o":"m 288 1143 b 274 1129 279 1143 274 1137 b 288 1115 274 1122 279 1115 b 302 1129 297 1115 302 1122 b 288 1143 302 1137 297 1143 z m 502 1143 b 488 1129 493 1143 488 1137 b 502 1115 488 1122 493 1115 b 516 1129 511 1115 516 1122 b 502 1143 516 1137 511 1143 z m 608 945 l 178 945 l 178 0 l 620 0 l 620 11 l 189 11 l 189 496 l 548 496 l 548 506 l 189 506 l 189 934 l 607 934 z "},"Ė":{"ha":688,"x_min":0,"x_max":0,"o":"m 396 1163 b 381 1149 386 1163 381 1156 b 396 1135 381 1142 386 1135 b 410 1149 405 1135 410 1142 b 396 1163 410 1156 405 1163 z m 608 945 l 178 945 l 178 0 l 620 0 l 620 11 l 189 11 l 189 496 l 548 496 l 548 506 l 189 506 l 189 934 l 607 934 z "},"Ẹ":{"ha":688,"x_min":0,"x_max":0,"o":"m 608 945 l 178 945 l 178 0 l 620 0 l 620 11 l 189 11 l 189 496 l 548 496 l 548 506 l 189 506 l 189 934 l 607 934 z m 394 -173 b 408 -159 403 -173 408 -166 b 394 -145 408 -152 403 -145 b 380 -159 385 -145 380 -152 b 394 -173 380 -166 385 -173 z "},"È":{"ha":688,"x_min":0,"x_max":0,"o":"m 289 1177 l 283 1166 l 519 1068 l 522 1076 z m 608 945 l 178 945 l 178 0 l 620 0 l 620 11 l 189 11 l 189 496 l 548 496 l 548 506 l 189 506 l 189 934 l 607 934 z "},"Ẻ":{"ha":688,"x_min":0,"x_max":0,"o":"m 390 1082 l 401 1082 l 401 1137 b 495 1222 454 1142 495 1163 b 405 1303 495 1273 459 1303 b 320 1279 369 1303 342 1291 l 325 1270 b 404 1293 345 1281 371 1293 b 483 1222 452 1293 483 1267 b 390 1145 483 1165 442 1148 z m 608 945 l 178 945 l 178 0 l 620 0 l 620 11 l 189 11 l 189 496 l 548 496 l 548 506 l 189 506 l 189 934 l 607 934 z "},"Ȇ":{"ha":688,"x_min":0,"x_max":0,"o":"m 396 1225 b 257 1120 318 1225 272 1179 l 266 1119 b 396 1214 284 1180 329 1214 b 525 1119 462 1214 508 1180 l 534 1120 b 396 1225 519 1179 474 1225 z m 608 945 l 178 945 l 178 0 l 620 0 l 620 11 l 189 11 l 189 496 l 548 496 l 548 506 l 189 506 l 189 934 l 607 934 z "},"Ē":{"ha":688,"x_min":0,"x_max":0,"o":"m 531 1130 l 531 1141 l 260 1141 l 260 1130 z m 608 945 l 178 945 l 178 0 l 620 0 l 620 11 l 189 11 l 189 496 l 548 496 l 548 506 l 189 506 l 189 934 l 607 934 z "},"Ę":{"ha":688,"x_min":0,"x_max":0,"o":"m 189 11 l 189 496 l 548 496 l 548 506 l 189 506 l 189 934 l 607 934 l 608 945 l 178 945 l 178 0 l 559 0 b 385 -172 471 -35 385 -86 b 499 -273 385 -235 427 -273 b 573 -262 525 -273 543 -270 l 574 -251 b 499 -262 543 -259 524 -262 b 397 -171 435 -262 397 -229 b 580 0 397 -82 496 -33 l 620 0 l 620 11 z "},"Ɛ":{"ha":708,"x_min":0,"x_max":0,"o":"m 364 959 b 119 736 206 959 119 864 b 329 516 119 594 218 526 b 89 271 194 509 89 424 b 376 -13 89 94 206 -13 b 655 116 494 -13 577 31 l 647 123 b 376 -2 573 42 492 -2 b 100 271 212 -2 100 101 b 365 511 100 419 205 511 l 444 510 l 445 521 l 370 521 b 131 736 234 521 131 596 b 365 948 131 857 214 948 b 614 833 472 948 545 906 l 622 841 b 364 959 550 917 474 959 z "},"Ǝ":{"ha":688,"x_min":0,"x_max":0,"o":"m 76 945 l 76 934 l 498 934 l 498 506 l 139 506 l 139 496 l 498 496 l 498 11 l 66 11 l 66 0 l 509 0 l 509 945 z "},"Ʃ":{"ha":669,"x_min":0,"x_max":0,"o":"m 589 945 l 80 945 l 80 937 l 416 471 l 80 8 l 80 0 l 589 0 l 589 11 l 96 11 l 428 468 l 428 474 l 96 934 l 589 934 z "},"Ɇ":{"ha":688,"x_min":0,"x_max":0,"o":"m 620 11 l 278 11 l 405 496 l 548 496 l 548 506 l 408 506 l 520 934 l 607 934 l 608 945 l 523 945 l 541 1013 l 532 1015 l 514 945 l 178 945 l 178 0 l 266 0 l 244 -81 l 253 -83 l 275 0 l 620 0 z m 189 934 l 511 934 l 398 506 l 189 506 z m 189 11 l 189 496 l 396 496 l 268 11 z "},"Ẽ":{"ha":688,"x_min":0,"x_max":0,"o":"m 473 1124 b 568 1184 513 1124 539 1141 l 560 1188 b 473 1135 532 1150 510 1135 b 315 1196 414 1135 370 1196 b 222 1141 277 1196 253 1178 l 230 1137 b 315 1185 260 1170 281 1185 b 473 1124 366 1185 412 1124 z m 608 945 l 178 945 l 178 0 l 620 0 l 620 11 l 189 11 l 189 496 l 548 496 l 548 506 l 189 506 l 189 934 l 607 934 z "},"Ʒ":{"ha":647,"x_min":0,"x_max":0,"o":"m 283 508 l 195 508 l 540 935 l 540 945 l 51 945 l 51 935 l 525 935 l 181 508 l 181 498 l 283 498 b 567 249 465 498 567 415 b 301 -2 567 103 474 -2 b 47 103 183 -2 111 36 l 39 97 b 301 -13 102 29 178 -13 b 578 250 479 -13 578 96 b 283 508 578 418 477 508 z "},"Ǯ":{"ha":647,"x_min":0,"x_max":0,"o":"m 298 1060 l 454 1175 l 447 1181 l 294 1072 l 144 1181 l 137 1175 l 291 1060 z m 283 508 l 195 508 l 540 935 l 540 945 l 51 945 l 51 935 l 525 935 l 181 508 l 181 498 l 283 498 b 567 249 465 498 567 415 b 301 -2 567 103 474 -2 b 47 103 183 -2 111 36 l 39 97 b 301 -13 102 29 178 -13 b 578 250 479 -13 578 96 b 283 508 578 418 477 508 z "},"Ƹ":{"ha":647,"x_min":0,"x_max":0,"o":"m 601 103 b 336 -2 536 36 465 -2 b 81 243 178 -2 81 94 b 365 498 81 402 182 498 l 467 498 l 467 509 l 123 935 l 596 935 l 596 945 l 107 945 l 107 935 l 453 508 l 366 508 b 69 243 172 508 69 405 b 336 -13 69 88 172 -13 b 609 97 470 -13 544 29 z "},"F":{"ha":653,"x_min":0,"x_max":0,"o":"m 178 0 l 189 0 l 189 475 l 544 475 l 544 486 l 189 486 l 189 934 l 600 934 l 601 945 l 178 945 z "},"Ḟ":{"ha":653,"x_min":0,"x_max":0,"o":"m 403 1163 b 389 1149 394 1163 389 1156 b 403 1135 389 1142 394 1135 b 417 1149 413 1135 417 1142 b 403 1163 417 1156 413 1163 z m 178 0 l 189 0 l 189 475 l 544 475 l 544 486 l 189 486 l 189 934 l 600 934 l 601 945 l 178 945 z "},"Ƒ":{"ha":653,"x_min":0,"x_max":0,"o":"m 600 934 l 601 945 l 178 945 l 178 -130 b 66 -258 178 -217 131 -258 b -41 -221 16 -258 -15 -242 l -47 -229 b 66 -269 -21 -250 13 -269 b 189 -130 139 -269 189 -221 l 189 475 l 544 475 l 544 486 l 189 486 l 189 934 z "},"G":{"ha":835,"x_min":0,"x_max":0,"o":"m 478 959 b 115 479 300 959 115 809 b 490 -13 115 157 264 -13 b 726 55 585 -13 666 19 l 726 480 l 507 480 l 508 469 l 715 469 l 715 61 b 490 -2 660 28 587 -2 b 127 479 269 -2 127 164 b 478 948 127 804 307 948 b 695 872 563 948 629 922 l 701 881 b 478 959 633 932 568 959 z "},"Ǵ":{"ha":835,"x_min":0,"x_max":0,"o":"m 583 1177 l 349 1076 l 353 1068 l 589 1166 z m 478 959 b 115 479 300 959 115 809 b 490 -13 115 157 264 -13 b 726 55 585 -13 666 19 l 726 480 l 507 480 l 508 469 l 715 469 l 715 61 b 490 -2 660 28 587 -2 b 127 479 269 -2 127 164 b 478 948 127 804 307 948 b 695 872 563 948 629 922 l 701 881 b 478 959 633 932 568 959 z "},"Ɣ":{"ha":731,"x_min":0,"x_max":0,"o":"m 685 945 l 673 945 l 368 88 l 58 945 l 46 945 l 361 79 b 281 -175 316 -38 281 -111 b 368 -270 281 -226 310 -270 b 456 -175 429 -270 456 -225 b 375 79 456 -109 424 -39 z m 445 -174 b 368 -259 445 -220 423 -259 b 293 -174 316 -259 293 -221 b 368 70 293 -111 326 -43 b 445 -174 414 -44 445 -111 z "},"Ğ":{"ha":835,"x_min":0,"x_max":0,"o":"m 472 1074 b 610 1165 550 1074 595 1119 l 601 1166 b 472 1085 584 1119 538 1085 b 342 1166 405 1085 360 1119 l 333 1165 b 472 1074 348 1119 394 1074 z m 478 959 b 115 479 300 959 115 809 b 490 -13 115 157 264 -13 b 726 55 585 -13 666 19 l 726 480 l 507 480 l 508 469 l 715 469 l 715 61 b 490 -2 660 28 587 -2 b 127 479 269 -2 127 164 b 478 948 127 804 307 948 b 695 872 563 948 629 922 l 701 881 b 478 959 633 932 568 959 z "},"Ǧ":{"ha":835,"x_min":0,"x_max":0,"o":"m 623 1181 l 471 1072 l 320 1181 l 313 1175 l 467 1060 l 474 1060 l 630 1175 z m 478 959 b 115 479 300 959 115 809 b 490 -13 115 157 264 -13 b 726 55 585 -13 666 19 l 726 480 l 507 480 l 508 469 l 715 469 l 715 61 b 490 -2 660 28 587 -2 b 127 479 269 -2 127 164 b 478 948 127 804 307 948 b 695 872 563 948 629 922 l 701 881 b 478 959 633 932 568 959 z "},"Ĝ":{"ha":835,"x_min":0,"x_max":0,"o":"m 320 1068 l 471 1177 l 623 1068 l 630 1074 l 474 1189 l 467 1189 l 313 1074 z m 478 959 b 115 479 300 959 115 809 b 490 -13 115 157 264 -13 b 726 55 585 -13 666 19 l 726 480 l 507 480 l 508 469 l 715 469 l 715 61 b 490 -2 660 28 587 -2 b 127 479 269 -2 127 164 b 478 948 127 804 307 948 b 695 872 563 948 629 922 l 701 881 b 478 959 633 932 568 959 z "},"Ģ":{"ha":835,"x_min":0,"x_max":0,"o":"m 478 959 b 115 479 300 959 115 809 b 490 -13 115 157 264 -13 b 726 55 585 -13 666 19 l 726 480 l 507 480 l 508 469 l 715 469 l 715 61 b 490 -2 660 28 587 -2 b 127 479 269 -2 127 164 b 478 948 127 804 307 948 b 695 872 563 948 629 922 l 701 881 b 478 959 633 932 568 959 z m 468 -144 b 453 -159 459 -144 453 -150 b 466 -173 453 -167 458 -171 l 431 -340 l 438 -340 l 477 -184 b 484 -159 482 -170 484 -165 b 468 -144 484 -150 478 -144 z "},"Ġ":{"ha":835,"x_min":0,"x_max":0,"o":"m 472 1163 b 457 1149 463 1163 457 1156 b 472 1135 457 1142 463 1135 b 486 1149 481 1135 486 1142 b 472 1163 486 1156 481 1163 z m 478 959 b 115 479 300 959 115 809 b 490 -13 115 157 264 -13 b 726 55 585 -13 666 19 l 726 480 l 507 480 l 508 469 l 715 469 l 715 61 b 490 -2 660 28 587 -2 b 127 479 269 -2 127 164 b 478 948 127 804 307 948 b 695 872 563 948 629 922 l 701 881 b 478 959 633 932 568 959 z "},"Ɠ":{"ha":750,"x_min":0,"x_max":0,"o":"m 813 1120 b 690 981 740 1120 690 1072 l 690 888 b 478 959 629 934 563 959 b 115 479 301 959 115 809 b 490 -13 115 157 264 -13 b 726 55 585 -13 666 19 l 726 480 l 507 480 l 508 469 l 715 469 l 715 61 b 490 -2 660 28 587 -2 b 127 479 269 -2 127 164 b 478 948 127 804 307 948 b 695 873 563 948 629 923 l 701 881 l 701 981 b 812 1110 701 1068 747 1110 b 921 1072 863 1110 894 1093 l 926 1080 b 812 1120 900 1101 867 1120 z "},"Ɂ":{"ha":621,"x_min":0,"x_max":0,"o":"m 237 0 l 249 0 l 249 384 l 328 405 b 565 686 462 439 565 500 b 301 959 565 840 474 959 b 39 841 189 959 109 912 l 47 833 b 300 948 114 901 191 948 b 553 686 467 948 553 833 b 332 418 553 509 456 450 l 237 393 z "},"Ǥ":{"ha":853,"x_min":0,"x_max":0,"o":"m 833 314 l 726 314 l 726 480 l 507 480 l 508 469 l 715 469 l 715 314 l 508 314 l 508 303 l 715 303 l 715 61 b 490 -2 660 28 587 -2 b 127 479 269 -2 127 164 b 478 948 127 804 307 948 b 695 872 563 948 629 923 l 701 881 b 478 959 633 932 568 959 b 115 479 301 959 115 809 b 490 -13 115 157 264 -13 b 726 55 585 -13 666 19 l 726 303 l 833 303 z "},"Ȝ":{"ha":674,"x_min":0,"x_max":0,"o":"m 317 959 b 53 841 206 959 128 917 l 59 833 b 317 948 133 906 208 948 b 543 728 462 948 543 857 b 304 507 543 582 440 507 l 230 507 l 229 496 l 309 497 b 574 284 470 497 574 419 b 92 -99 574 111 460 -7 l 93 -110 b 585 284 468 -16 585 105 b 345 502 585 424 481 495 b 555 728 456 513 555 580 b 317 959 555 863 469 959 z "},"H":{"ha":911,"x_min":0,"x_max":0,"o":"m 722 0 l 733 0 l 733 945 l 722 945 l 722 506 l 189 506 l 189 945 l 178 945 l 178 0 l 189 0 l 189 496 l 722 496 z "},"Ħ":{"ha":926,"x_min":0,"x_max":0,"o":"m 816 738 l 742 738 l 742 945 l 730 945 l 730 738 l 198 738 l 198 945 l 186 945 l 186 738 l 110 738 l 110 728 l 186 728 l 186 0 l 198 0 l 198 496 l 730 496 l 730 0 l 742 0 l 742 728 l 816 728 z m 730 506 l 198 506 l 198 728 l 730 728 z "},"Ȟ":{"ha":911,"x_min":0,"x_max":0,"o":"m 605 1181 l 453 1072 l 302 1181 l 295 1175 l 449 1060 l 456 1060 l 612 1175 z m 722 0 l 733 0 l 733 945 l 722 945 l 722 506 l 189 506 l 189 945 l 178 945 l 178 0 l 189 0 l 189 496 l 722 496 z "},"Ĥ":{"ha":911,"x_min":0,"x_max":0,"o":"m 302 1068 l 453 1177 l 605 1068 l 612 1074 l 456 1189 l 449 1189 l 295 1074 z m 722 0 l 733 0 l 733 945 l 722 945 l 722 506 l 189 506 l 189 945 l 178 945 l 178 0 l 189 0 l 189 496 l 722 496 z "},"Ḥ":{"ha":911,"x_min":0,"x_max":0,"o":"m 722 0 l 733 0 l 733 945 l 722 945 l 722 506 l 189 506 l 189 945 l 178 945 l 178 0 l 189 0 l 189 496 l 722 496 z m 455 -173 b 470 -159 464 -173 470 -166 b 455 -145 470 -152 464 -145 b 441 -159 446 -145 441 -152 b 455 -173 441 -166 446 -173 z "},"Ɦ":{"ha":974,"x_min":0,"x_max":0,"o":"m 784 945 l 784 506 l 252 506 l 252 945 l 181 945 b 39 822 87 945 39 899 b 78 710 39 770 58 740 l 87 715 b 50 822 66 746 50 774 b 180 935 50 892 92 935 l 240 935 l 240 0 l 252 0 l 252 496 l 784 496 l 784 0 l 796 0 l 796 945 z "},"Ɥ":{"ha":790,"x_min":0,"x_max":0,"o":"m 601 945 l 601 475 b 331 339 539 390 448 339 b 92 574 190 339 92 425 l 92 945 l 80 945 l 80 573 b 330 329 80 419 184 329 b 601 460 448 329 538 379 l 601 0 l 612 0 l 612 945 z "},"Ƕ":{"ha":1328,"x_min":0,"x_max":0,"o":"m 1155 719 l 1143 719 b 1181 371 1161 621 1181 501 b 930 -2 1181 101 1069 -2 b 733 214 819 -2 733 69 l 733 945 l 722 945 l 722 506 l 189 506 l 189 945 l 178 945 l 178 0 l 189 0 l 189 496 l 722 496 l 722 213 b 930 -13 722 63 813 -13 b 1192 371 1078 -13 1192 99 b 1155 719 1192 501 1173 621 z "},"I":{"ha":367,"x_min":0,"x_max":0,"o":"m 189 945 l 178 945 l 178 0 l 189 0 z "},"Ĳ":{"ha":749,"x_min":0,"x_max":0,"o":"m 189 945 l 178 945 l 178 0 l 189 0 z m 579 945 l 568 945 l 568 120 b 405 -121 568 -7 540 -64 l 409 -130 b 579 119 551 -71 579 -12 z "},"Í":{"ha":367,"x_min":0,"x_max":0,"o":"m 295 1177 l 60 1076 l 64 1068 l 300 1166 z m 189 945 l 178 945 l 178 0 l 189 0 z "},"Ĭ":{"ha":367,"x_min":0,"x_max":0,"o":"m 183 1074 b 322 1165 261 1074 307 1119 l 313 1166 b 183 1085 295 1119 250 1085 b 53 1166 117 1085 71 1119 l 45 1165 b 183 1074 59 1119 105 1074 z m 189 945 l 178 945 l 178 0 l 189 0 z "},"Ǐ":{"ha":367,"x_min":0,"x_max":0,"o":"m 335 1181 l 182 1072 l 31 1181 l 25 1175 l 179 1060 l 186 1060 l 341 1175 z m 189 945 l 178 945 l 178 0 l 189 0 z "},"Î":{"ha":367,"x_min":0,"x_max":0,"o":"m 31 1068 l 182 1177 l 335 1068 l 341 1074 l 186 1189 l 179 1189 l 25 1074 z m 189 945 l 178 945 l 178 0 l 189 0 z "},"Ȉ":{"ha":367,"x_min":0,"x_max":0,"o":"m 21 1268 l 10 1262 l 106 1089 l 115 1094 z m 170 1264 l 159 1259 l 247 1093 l 256 1097 z m 189 945 l 178 945 l 178 0 l 189 0 z "},"Ï":{"ha":367,"x_min":0,"x_max":0,"o":"m 75 1143 b 61 1129 67 1143 61 1137 b 75 1115 61 1122 67 1115 b 90 1129 85 1115 90 1122 b 75 1143 90 1137 85 1143 z m 289 1143 b 275 1129 280 1143 275 1137 b 289 1115 275 1122 280 1115 b 303 1129 298 1115 303 1122 b 289 1143 303 1137 298 1143 z m 189 945 l 178 945 l 178 0 l 189 0 z "},"Ḯ":{"ha":367,"x_min":0,"x_max":0,"o":"m 281 1244 l 154 1090 l 161 1084 l 290 1235 z m 75 1059 b 61 1045 67 1059 61 1052 b 75 1031 61 1037 67 1031 b 90 1045 85 1031 90 1037 b 75 1059 90 1052 85 1059 z m 289 1059 b 275 1045 280 1059 275 1052 b 289 1031 275 1037 280 1031 b 303 1045 298 1031 303 1037 b 289 1059 303 1052 298 1059 z m 189 945 l 178 945 l 178 0 l 189 0 z "},"İ":{"ha":367,"x_min":0,"x_max":0,"o":"m 183 1163 b 169 1149 174 1163 169 1156 b 183 1135 169 1142 174 1135 b 197 1149 193 1135 197 1142 b 183 1163 197 1156 193 1163 z m 189 945 l 178 945 l 178 0 l 189 0 z "},"Ị":{"ha":367,"x_min":0,"x_max":0,"o":"m 189 945 l 178 945 l 178 0 l 189 0 z m 183 -173 b 198 -159 193 -173 198 -166 b 183 -145 198 -152 193 -145 b 169 -159 174 -145 169 -152 b 183 -173 169 -166 174 -173 z "},"Ì":{"ha":367,"x_min":0,"x_max":0,"o":"m 76 1177 l 70 1166 l 306 1068 l 310 1076 z m 189 945 l 178 945 l 178 0 l 189 0 z "},"Ỉ":{"ha":367,"x_min":0,"x_max":0,"o":"m 178 1082 l 189 1082 l 189 1137 b 283 1222 241 1142 283 1163 b 192 1303 283 1273 246 1303 b 108 1279 156 1303 129 1291 l 112 1270 b 192 1293 133 1281 158 1293 b 271 1222 239 1293 271 1267 b 178 1145 271 1165 229 1148 z m 189 945 l 178 945 l 178 0 l 189 0 z "},"Ȋ":{"ha":367,"x_min":0,"x_max":0,"o":"m 183 1225 b 45 1120 105 1225 59 1179 l 53 1119 b 183 1214 71 1180 117 1214 b 313 1119 249 1214 295 1180 l 322 1120 b 183 1225 307 1179 261 1225 z m 189 945 l 178 945 l 178 0 l 189 0 z "},"Ī":{"ha":367,"x_min":0,"x_max":0,"o":"m 319 1130 l 319 1141 l 48 1141 l 48 1130 z m 189 945 l 178 945 l 178 0 l 189 0 z "},"Į":{"ha":367,"x_min":0,"x_max":0,"o":"m 189 0 l 189 945 l 178 945 l 178 4 b -6 -172 86 -32 -6 -83 b 107 -273 -6 -235 35 -273 b 181 -262 134 -273 151 -270 l 182 -251 b 108 -262 152 -259 133 -262 b 6 -171 44 -262 6 -229 b 189 0 6 -82 105 -33 z "},"Ɩ":{"ha":449,"x_min":0,"x_max":0,"o":"m 394 35 b 286 -2 368 14 337 -2 b 175 126 221 -2 175 39 l 175 945 l 164 945 l 164 126 b 286 -13 164 35 214 -13 b 400 27 340 -13 374 6 z "},"Ɨ":{"ha":422,"x_min":0,"x_max":0,"o":"m 374 506 l 217 506 l 217 945 l 205 945 l 205 506 l 49 506 l 49 496 l 205 496 l 205 0 l 217 0 l 217 496 l 374 496 z "},"Ĩ":{"ha":367,"x_min":0,"x_max":0,"o":"m 261 1124 b 356 1184 301 1124 326 1141 l 348 1188 b 261 1135 319 1150 298 1135 b 102 1196 202 1135 158 1196 b 9 1141 65 1196 41 1178 l 17 1137 b 102 1185 47 1170 68 1185 b 261 1124 154 1185 199 1124 z m 189 945 l 178 945 l 178 0 l 189 0 z "},"J":{"ha":382,"x_min":0,"x_max":0,"o":"m 213 945 l 201 945 l 201 120 b 39 -121 201 -7 174 -64 l 42 -130 b 213 119 185 -71 213 -12 z "},"Ĵ":{"ha":382,"x_min":0,"x_max":0,"o":"m 56 1068 l 206 1177 l 359 1068 l 366 1074 l 210 1189 l 203 1189 l 49 1074 z m 213 945 l 201 945 l 201 120 b 39 -121 201 -7 174 -64 l 42 -130 b 213 119 185 -71 213 -12 z "},"Ʝ":{"ha":400,"x_min":0,"x_max":0,"o":"m 336 -86 b 223 -42 296 -66 263 -54 l 223 945 l 211 945 l 211 -40 b 75 -24 174 -30 135 -24 b -93 -152 -29 -24 -93 -72 b 49 -269 -93 -222 -42 -269 b 223 -53 167 -269 221 -191 b 332 -95 260 -63 295 -76 z m 49 -259 b -82 -152 -36 -259 -82 -217 b 75 -34 -82 -79 -25 -34 b 211 -50 135 -34 171 -40 b 49 -259 211 -187 160 -259 z "},"Ɉ":{"ha":403,"x_min":0,"x_max":0,"o":"m 365 481 l 213 481 l 213 945 l 201 945 l 201 481 l 40 481 l 40 470 l 201 470 l 201 120 b 39 -121 201 -7 174 -64 l 42 -130 b 213 119 185 -71 213 -12 l 213 470 l 365 470 z "},"K":{"ha":703,"x_min":0,"x_max":0,"o":"m 189 945 l 178 945 l 178 1 l 189 1 z m 664 945 l 650 945 l 193 509 l 672 0 l 686 0 l 208 509 z "},"Ǩ":{"ha":703,"x_min":0,"x_max":0,"o":"m 548 1181 l 395 1072 l 244 1181 l 238 1175 l 392 1060 l 399 1060 l 554 1175 z m 189 945 l 178 945 l 178 1 l 189 1 z m 664 945 l 650 945 l 193 509 l 672 0 l 686 0 l 208 509 z "},"Ķ":{"ha":703,"x_min":0,"x_max":0,"o":"m 189 945 l 178 945 l 178 1 l 189 1 z m 664 945 l 650 945 l 193 509 l 672 0 l 686 0 l 208 509 z m 398 -144 b 383 -159 389 -144 383 -150 b 396 -173 383 -167 388 -171 l 361 -340 l 368 -340 l 407 -184 b 414 -159 412 -170 414 -165 b 398 -144 414 -150 408 -144 z "},"Ƙ":{"ha":753,"x_min":0,"x_max":0,"o":"m 672 0 l 686 0 l 208 509 l 506 870 b 637 948 556 932 588 948 b 729 905 678 948 706 929 l 736 912 b 637 959 713 937 681 959 b 497 877 583 959 547 938 l 193 509 z m 189 945 l 178 945 l 178 1 l 189 1 z "},"L":{"ha":622,"x_min":0,"x_max":0,"o":"m 189 945 l 178 945 l 178 0 l 588 0 l 589 11 l 189 11 z "},"Ǉ":{"ha":983,"x_min":0,"x_max":0,"o":"m 189 945 l 178 945 l 178 0 l 588 0 l 589 11 l 189 11 z m 814 945 l 803 945 l 803 120 b 640 -121 803 -7 775 -64 l 644 -130 b 814 119 787 -71 814 -12 z "},"Ĺ":{"ha":622,"x_min":0,"x_max":0,"o":"m 295 1177 l 61 1076 l 64 1068 l 300 1166 z m 189 945 l 178 945 l 178 0 l 587 0 l 589 11 l 189 11 z "},"Ƚ":{"ha":646,"x_min":0,"x_max":0,"o":"m 213 11 l 213 498 l 374 498 l 374 508 l 213 508 l 213 945 l 201 945 l 201 508 l 49 508 l 49 498 l 201 498 l 201 0 l 611 0 l 613 11 z "},"Ɬ":{"ha":649,"x_min":0,"x_max":0,"o":"m 215 11 l 215 396 b 381 409 271 396 331 402 l 380 419 b 215 406 331 412 271 406 l 215 945 l 203 945 l 203 602 b 166 605 193 603 181 605 b 51 503 100 605 51 569 b 203 395 51 431 104 395 l 203 0 l 613 0 l 615 11 z m 62 504 b 166 595 62 564 105 595 b 203 592 180 595 193 593 l 203 406 b 62 504 111 406 62 437 z "},"Ľ":{"ha":622,"x_min":0,"x_max":0,"o":"m 309 755 l 301 756 l 327 949 l 339 948 z m 189 945 l 178 945 l 178 0 l 587 0 l 589 11 l 189 11 z "},"Ḽ":{"ha":622,"x_min":0,"x_max":0,"o":"m 189 945 l 178 945 l 178 0 l 588 0 l 589 11 l 189 11 z m 232 -242 l 385 -126 l 535 -242 l 542 -235 l 388 -114 l 381 -114 l 225 -235 z "},"Ļ":{"ha":622,"x_min":0,"x_max":0,"o":"m 189 945 l 178 945 l 178 0 l 588 0 l 589 11 l 189 11 z m 383 -144 b 368 -159 374 -144 368 -150 b 380 -173 368 -167 372 -171 l 345 -340 l 352 -340 l 391 -184 b 398 -159 397 -170 398 -165 b 383 -144 398 -150 393 -144 z "},"Ŀ":{"ha":622,"x_min":0,"x_max":0,"o":"m 189 945 l 178 945 l 178 0 l 588 0 l 589 11 l 189 11 z m 487 507 b 472 493 478 507 472 500 b 487 479 472 486 478 479 b 501 493 496 479 501 486 b 487 507 501 500 496 507 z "},"Ḷ":{"ha":622,"x_min":0,"x_max":0,"o":"m 189 945 l 178 945 l 178 0 l 588 0 l 589 11 l 189 11 z m 384 -173 b 398 -159 393 -173 398 -166 b 384 -145 398 -152 393 -145 b 369 -159 374 -145 369 -152 b 384 -173 369 -166 374 -173 z "},"ǈ":{"ha":954,"x_min":0,"x_max":0,"o":"m 778 988 b 764 974 769 988 764 981 b 778 960 764 967 769 960 b 792 974 787 960 792 967 b 778 988 792 981 787 988 z m 189 945 l 178 945 l 178 0 l 588 0 l 589 11 l 189 11 z m 784 719 l 773 719 l 773 4 b 638 -258 773 -160 733 -208 l 642 -267 b 784 3 741 -214 784 -166 z "},"Ł":{"ha":626,"x_min":0,"x_max":0,"o":"m 193 11 l 193 451 l 483 630 l 478 639 l 193 462 l 193 945 l 182 945 l 182 455 l 69 386 l 74 378 l 182 444 l 182 0 l 591 0 l 593 11 z "},"M":{"ha":1053,"x_min":0,"x_max":0,"o":"m 829 945 l 812 945 l 526 132 l 239 945 l 222 945 l 115 0 l 126 0 l 182 498 b 232 932 200 654 225 863 l 521 117 l 532 117 l 819 932 b 870 488 830 834 852 646 l 927 0 l 938 0 z "},"Ḿ":{"ha":1053,"x_min":0,"x_max":0,"o":"m 637 1177 l 403 1076 l 407 1068 l 643 1166 z m 829 945 l 812 945 l 526 132 l 239 945 l 222 945 l 115 0 l 126 0 l 182 498 b 232 932 200 654 225 863 l 521 117 l 532 117 l 819 932 b 870 488 830 834 852 646 l 927 0 l 938 0 z "},"Ṁ":{"ha":1053,"x_min":0,"x_max":0,"o":"m 526 1163 b 512 1149 517 1163 512 1156 b 526 1135 512 1142 517 1135 b 540 1149 535 1135 540 1142 b 526 1163 540 1156 535 1163 z m 829 945 l 812 945 l 526 132 l 239 945 l 222 945 l 115 0 l 126 0 l 182 498 b 232 932 200 654 225 863 l 521 117 l 532 117 l 819 932 b 870 488 830 834 852 646 l 927 0 l 938 0 z "},"Ɯ":{"ha":1276,"x_min":0,"x_max":0,"o":"m 1088 945 l 1088 186 b 831 -3 1025 72 949 -3 b 637 236 714 -3 637 77 l 637 945 l 626 945 l 626 238 b 629 188 626 220 627 203 b 369 -3 561 70 485 -3 b 175 236 251 -3 175 77 l 175 945 l 164 945 l 164 238 b 369 -14 164 72 244 -14 b 631 173 486 -14 564 58 b 831 -14 649 49 724 -14 b 1088 169 948 -14 1026 58 l 1089 0 l 1099 0 l 1099 945 z "},"N":{"ha":911,"x_min":0,"x_max":0,"o":"m 734 945 l 723 945 l 723 217 b 724 13 723 145 723 69 l 192 945 l 178 945 l 178 0 l 189 0 l 189 758 b 187 932 189 845 188 896 l 719 0 l 734 0 z "},"Ǌ":{"ha":1293,"x_min":0,"x_max":0,"o":"m 734 945 l 723 945 l 723 217 b 724 13 723 145 723 69 l 192 945 l 178 945 l 178 0 l 189 0 l 189 758 b 187 932 189 845 188 896 l 719 0 l 734 0 z m 1124 945 l 1113 945 l 1113 120 b 950 -121 1113 -7 1085 -64 l 954 -130 b 1124 119 1096 -71 1124 -12 z "},"Ń":{"ha":911,"x_min":0,"x_max":0,"o":"m 574 1177 l 339 1076 l 343 1068 l 579 1166 z m 734 945 l 723 945 l 723 217 b 724 13 723 145 723 69 l 192 945 l 178 945 l 178 0 l 189 0 l 189 758 b 187 932 189 845 188 896 l 719 0 l 734 0 z "},"Ň":{"ha":911,"x_min":0,"x_max":0,"o":"m 614 1181 l 461 1072 l 310 1181 l 304 1175 l 458 1060 l 464 1060 l 620 1175 z m 734 945 l 723 945 l 723 217 b 724 13 723 145 723 69 l 192 945 l 178 945 l 178 0 l 189 0 l 189 758 b 187 932 189 845 188 896 l 719 0 l 734 0 z "},"Ṋ":{"ha":911,"x_min":0,"x_max":0,"o":"m 734 945 l 723 945 l 723 217 b 724 13 723 145 723 69 l 192 945 l 178 945 l 178 0 l 189 0 l 189 758 b 187 932 189 845 188 896 l 719 0 l 734 0 z m 297 -242 l 450 -126 l 601 -242 l 607 -235 l 453 -114 l 446 -114 l 291 -235 z "},"Ņ":{"ha":911,"x_min":0,"x_max":0,"o":"m 734 945 l 723 945 l 723 217 b 724 13 723 145 723 69 l 192 945 l 178 945 l 178 0 l 189 0 l 189 758 b 187 932 189 845 188 896 l 719 0 l 734 0 z m 448 -144 b 433 -159 439 -144 433 -150 b 446 -173 433 -167 437 -171 l 411 -340 l 418 -340 l 457 -184 b 463 -159 462 -170 463 -165 b 448 -144 463 -150 458 -144 z "},"Ṅ":{"ha":911,"x_min":0,"x_max":0,"o":"m 462 1163 b 448 1149 453 1163 448 1156 b 462 1135 448 1142 453 1135 b 476 1149 472 1135 476 1142 b 462 1163 476 1156 472 1163 z m 734 945 l 723 945 l 723 217 b 724 13 723 145 723 69 l 192 945 l 178 945 l 178 0 l 189 0 l 189 758 b 187 932 189 845 188 896 l 719 0 l 734 0 z "},"Ṇ":{"ha":911,"x_min":0,"x_max":0,"o":"m 734 945 l 723 945 l 723 217 b 724 13 723 145 723 69 l 192 945 l 178 945 l 178 0 l 189 0 l 189 758 b 187 932 189 845 188 896 l 719 0 l 734 0 z m 449 -173 b 463 -159 458 -173 463 -166 b 449 -145 463 -152 458 -145 b 435 -159 440 -145 435 -152 b 449 -173 435 -166 440 -173 z "},"Ǹ":{"ha":911,"x_min":0,"x_max":0,"o":"m 355 1177 l 349 1166 l 585 1068 l 589 1076 z m 734 945 l 723 945 l 723 217 b 724 13 723 145 723 69 l 192 945 l 178 945 l 178 0 l 189 0 l 189 758 b 187 932 189 845 188 896 l 719 0 l 734 0 z "},"Ŋ":{"ha":911,"x_min":0,"x_max":0,"o":"m 723 945 l 723 217 b 724 13 723 145 723 69 l 192 945 l 178 945 l 178 0 l 189 0 l 189 758 b 187 932 189 845 188 896 l 719 0 l 722 0 l 722 -130 b 611 -258 722 -217 676 -258 b 503 -221 560 -258 530 -242 l 498 -229 b 611 -269 523 -250 557 -269 b 734 -130 684 -269 734 -221 l 734 945 z "},"Ɲ":{"ha":911,"x_min":0,"x_max":0,"o":"m 723 945 l 723 217 b 724 13 723 145 723 69 l 192 945 l 178 945 l 178 -130 b 66 -259 178 -217 131 -259 b -42 -221 15 -259 -15 -242 l -47 -229 b 66 -269 -22 -250 12 -269 b 189 -130 138 -269 189 -221 l 189 758 b 187 932 189 845 188 896 l 719 0 l 734 0 l 734 945 z "},"ǋ":{"ha":1264,"x_min":0,"x_max":0,"o":"m 1088 988 b 1073 974 1078 988 1073 981 b 1088 960 1073 967 1078 960 b 1102 974 1097 960 1102 967 b 1088 988 1102 981 1097 988 z m 734 945 l 723 945 l 723 217 b 724 13 723 145 723 69 l 192 945 l 178 945 l 178 0 l 189 0 l 189 758 b 187 932 189 845 188 896 l 719 0 l 734 0 z m 1093 719 l 1082 719 l 1082 4 b 948 -258 1082 -160 1042 -208 l 951 -267 b 1093 3 1050 -214 1093 -166 z "},"Ƞ":{"ha":893,"x_min":0,"x_max":0,"o":"m 504 959 b 189 774 368 959 276 886 l 188 945 l 178 945 l 178 0 l 189 0 l 189 759 b 504 948 278 874 368 948 b 712 703 633 948 712 868 l 712 -263 l 724 -263 l 724 704 b 504 959 724 873 640 959 z "},"Ñ":{"ha":911,"x_min":0,"x_max":0,"o":"m 540 1124 b 635 1184 580 1124 605 1141 l 627 1188 b 540 1135 598 1150 576 1135 b 381 1196 481 1135 437 1196 b 288 1141 344 1196 320 1178 l 296 1137 b 381 1185 326 1170 347 1185 b 540 1124 433 1185 478 1124 z m 734 945 l 723 945 l 723 217 b 724 13 723 145 723 69 l 192 945 l 178 945 l 178 0 l 189 0 l 189 758 b 188 932 189 845 188 896 l 719 0 l 734 0 z "},"O":{"ha":956,"x_min":0,"x_max":0,"o":"m 477 959 b 115 470 261 959 115 776 b 477 -13 115 164 256 -13 b 840 472 709 -13 840 166 b 477 959 840 784 701 959 z m 477 948 b 828 472 694 948 828 778 b 477 -2 828 172 702 -2 b 127 470 263 -2 127 170 b 477 948 127 771 267 948 z "},"Ȣ":{"ha":872,"x_min":0,"x_max":0,"o":"m 504 534 b 688 762 645 558 688 658 l 688 945 l 676 945 l 676 762 b 436 539 676 649 625 539 b 198 762 247 539 198 648 l 198 945 l 186 945 l 186 762 b 369 534 186 659 226 558 b 115 259 209 511 115 403 b 435 -13 115 103 231 -13 b 757 263 645 -13 757 105 b 504 534 757 410 667 513 z m 435 -2 b 127 259 237 -2 127 109 b 435 528 127 416 242 528 b 745 263 637 528 745 423 b 435 -2 745 111 639 -2 z "},"Ó":{"ha":956,"x_min":0,"x_max":0,"o":"m 589 1177 l 355 1076 l 359 1068 l 595 1166 z m 477 959 b 115 470 261 959 115 776 b 477 -13 115 164 256 -13 b 840 472 709 -13 840 166 b 477 959 840 784 701 959 z m 477 948 b 828 472 694 948 828 778 b 477 -2 828 172 702 -2 b 127 470 263 -2 127 170 b 477 948 127 771 267 948 z "},"Ŏ":{"ha":956,"x_min":0,"x_max":0,"o":"m 478 1074 b 616 1165 556 1074 602 1119 l 608 1166 b 478 1085 590 1119 544 1085 b 348 1166 412 1085 366 1119 l 340 1165 b 478 1074 354 1119 400 1074 z m 477 959 b 115 470 261 959 115 776 b 477 -13 115 164 256 -13 b 840 472 709 -13 840 166 b 477 959 840 784 701 959 z m 477 948 b 828 472 694 948 828 778 b 477 -2 828 172 702 -2 b 127 470 263 -2 127 170 b 477 948 127 771 267 948 z "},"Ǒ":{"ha":956,"x_min":0,"x_max":0,"o":"m 630 1181 l 477 1072 l 326 1181 l 320 1175 l 474 1060 l 480 1060 l 636 1175 z m 477 959 b 115 470 261 959 115 776 b 477 -13 115 164 256 -13 b 840 472 709 -13 840 166 b 477 959 840 784 701 959 z m 477 948 b 828 472 694 948 828 778 b 477 -2 828 172 702 -2 b 127 470 263 -2 127 170 b 477 948 127 771 267 948 z "},"Ɵ":{"ha":956,"x_min":0,"x_max":0,"o":"m 477 959 b 115 474 261 959 115 776 b 477 -13 115 163 256 -13 b 840 474 709 -13 840 165 b 477 959 840 784 701 959 z m 477 948 b 828 482 692 948 826 781 l 127 482 b 477 948 130 774 269 948 z m 477 -2 b 127 472 263 -2 127 169 l 828 472 b 477 -2 828 170 702 -2 z "},"Ô":{"ha":956,"x_min":0,"x_max":0,"o":"m 326 1068 l 477 1177 l 630 1068 l 636 1074 l 480 1189 l 474 1189 l 320 1074 z m 477 959 b 115 470 261 959 115 776 b 477 -13 115 164 256 -13 b 840 472 709 -13 840 166 b 477 959 840 784 701 959 z m 477 948 b 828 472 694 948 828 778 b 477 -2 828 172 702 -2 b 127 470 263 -2 127 170 b 477 948 127 771 267 948 z "},"Ố":{"ha":956,"x_min":0,"x_max":0,"o":"m 713 1294 l 586 1140 l 594 1135 l 723 1286 z m 325 1025 l 476 1133 l 629 1025 l 635 1031 l 479 1145 l 472 1145 l 318 1031 z m 477 959 b 115 470 261 959 115 776 b 477 -13 115 164 256 -13 b 840 472 709 -13 840 166 b 477 959 840 784 701 959 z m 477 948 b 828 472 694 948 828 778 b 477 -2 828 172 702 -2 b 127 470 263 -2 127 170 b 477 948 127 771 267 948 z "},"Ộ":{"ha":956,"x_min":0,"x_max":0,"o":"m 326 1068 l 477 1177 l 630 1068 l 636 1074 l 480 1189 l 474 1189 l 320 1074 z m 477 959 b 115 470 261 959 115 776 b 477 -13 115 164 256 -13 b 840 472 709 -13 840 166 b 477 959 840 784 701 959 z m 477 948 b 828 472 694 948 828 778 b 477 -2 828 172 702 -2 b 127 470 263 -2 127 170 b 477 948 127 771 267 948 z m 478 -173 b 492 -159 487 -173 492 -166 b 478 -145 492 -152 487 -145 b 464 -159 469 -145 464 -152 b 478 -173 464 -166 469 -173 z "},"Ồ":{"ha":956,"x_min":0,"x_max":0,"o":"m 240 1294 l 230 1286 l 359 1135 l 366 1140 z m 325 1025 l 476 1133 l 629 1025 l 635 1031 l 479 1145 l 472 1145 l 318 1031 z m 477 959 b 115 470 261 959 115 776 b 477 -13 115 164 256 -13 b 840 472 709 -13 840 166 b 477 959 840 784 701 959 z m 477 948 b 828 472 694 948 828 778 b 477 -2 828 172 702 -2 b 127 470 263 -2 127 170 b 477 948 127 771 267 948 z "},"Ổ":{"ha":956,"x_min":0,"x_max":0,"o":"m 602 1103 l 613 1103 l 613 1158 b 707 1243 666 1163 707 1184 b 617 1324 707 1294 671 1324 b 532 1300 581 1324 554 1312 l 537 1291 b 616 1314 557 1302 583 1314 b 695 1243 664 1314 695 1288 b 602 1166 695 1186 654 1169 z m 325 1025 l 476 1133 l 629 1025 l 635 1031 l 479 1145 l 472 1145 l 318 1031 z m 477 959 b 115 470 261 959 115 776 b 477 -13 115 164 256 -13 b 840 472 709 -13 840 166 b 477 959 840 784 701 959 z m 477 948 b 828 472 694 948 828 778 b 477 -2 828 172 702 -2 b 127 470 263 -2 127 170 b 477 948 127 771 267 948 z "},"Ỗ":{"ha":956,"x_min":0,"x_max":0,"o":"m 553 1212 b 648 1271 594 1212 619 1229 l 641 1276 b 553 1222 612 1238 590 1222 b 395 1283 495 1222 450 1283 b 302 1229 357 1283 333 1266 l 310 1224 b 395 1273 340 1258 361 1273 b 553 1212 446 1273 492 1212 z m 325 1025 l 476 1133 l 629 1025 l 635 1031 l 479 1145 l 472 1145 l 318 1031 z m 477 959 b 115 470 261 959 115 776 b 477 -13 115 164 256 -13 b 840 472 709 -13 840 166 b 477 959 840 784 701 959 z m 477 948 b 828 472 694 948 828 778 b 477 -2 828 172 702 -2 b 127 470 263 -2 127 170 b 477 948 127 771 267 948 z "},"Ȍ":{"ha":956,"x_min":0,"x_max":0,"o":"m 316 1268 l 305 1262 l 401 1089 l 410 1094 z m 465 1264 l 453 1259 l 542 1093 l 551 1097 z m 477 959 b 115 470 261 959 115 776 b 477 -13 115 164 256 -13 b 840 472 709 -13 840 166 b 477 959 840 784 701 959 z m 477 948 b 828 472 694 948 828 778 b 477 -2 828 172 702 -2 b 127 470 263 -2 127 170 b 477 948 127 771 267 948 z "},"Ö":{"ha":956,"x_min":0,"x_max":0,"o":"m 370 1143 b 356 1129 361 1143 356 1137 b 370 1115 356 1122 361 1115 b 385 1129 379 1115 385 1122 b 370 1143 385 1137 379 1143 z m 584 1143 b 570 1129 575 1143 570 1137 b 584 1115 570 1122 575 1115 b 598 1129 593 1115 598 1122 b 584 1143 598 1137 593 1143 z m 477 959 b 115 470 261 959 115 776 b 477 -13 115 164 256 -13 b 840 472 709 -13 840 166 b 477 959 840 784 701 959 z m 477 948 b 828 472 694 948 828 778 b 477 -2 828 172 702 -2 b 127 470 263 -2 127 170 b 477 948 127 771 267 948 z "},"Ȫ":{"ha":956,"x_min":0,"x_max":0,"o":"m 616 1163 l 616 1174 l 345 1174 l 345 1163 z m 370 1059 b 356 1045 361 1059 356 1052 b 370 1031 356 1037 361 1031 b 385 1045 379 1031 385 1037 b 370 1059 385 1052 379 1059 z m 584 1059 b 570 1045 575 1059 570 1052 b 584 1031 570 1037 575 1031 b 598 1045 593 1031 598 1037 b 584 1059 598 1052 593 1059 z m 477 959 b 115 470 261 959 115 776 b 477 -13 115 164 256 -13 b 840 472 709 -13 840 166 b 477 959 840 784 701 959 z m 477 948 b 828 472 694 948 828 778 b 477 -2 828 172 702 -2 b 127 470 263 -2 127 170 b 477 948 127 771 267 948 z "},"Ȯ":{"ha":956,"x_min":0,"x_max":0,"o":"m 478 1163 b 464 1149 469 1163 464 1156 b 478 1135 464 1142 469 1135 b 492 1149 488 1135 492 1142 b 478 1163 492 1156 488 1163 z m 477 959 b 115 470 261 959 115 776 b 477 -13 115 164 256 -13 b 840 472 709 -13 840 166 b 477 959 840 784 701 959 z m 477 948 b 828 472 694 948 828 778 b 477 -2 828 172 702 -2 b 127 470 263 -2 127 170 b 477 948 127 771 267 948 z "},"Ȱ":{"ha":956,"x_min":0,"x_max":0,"o":"m 615 1163 l 615 1174 l 344 1174 l 344 1163 z m 477 1070 b 463 1056 468 1070 463 1063 b 477 1042 463 1049 468 1042 b 491 1056 486 1042 491 1049 b 477 1070 491 1063 486 1070 z m 477 959 b 115 470 261 959 115 776 b 477 -13 115 164 256 -13 b 840 472 709 -13 840 166 b 477 959 840 784 701 959 z m 477 948 b 828 472 694 948 828 778 b 477 -2 828 172 702 -2 b 127 470 263 -2 127 170 b 477 948 127 771 267 948 z "},"Ọ":{"ha":956,"x_min":0,"x_max":0,"o":"m 477 959 b 115 470 261 959 115 776 b 477 -13 115 164 256 -13 b 840 472 709 -13 840 166 b 477 959 840 784 701 959 z m 477 948 b 828 472 694 948 828 778 b 477 -2 828 172 702 -2 b 127 470 263 -2 127 170 b 477 948 127 771 267 948 z m 478 -173 b 492 -159 487 -173 492 -166 b 478 -145 492 -152 487 -145 b 464 -159 469 -145 464 -152 b 478 -173 464 -166 469 -173 z "},"Ò":{"ha":956,"x_min":0,"x_max":0,"o":"m 371 1177 l 365 1166 l 601 1068 l 605 1076 z m 477 959 b 115 470 261 959 115 776 b 477 -13 115 164 256 -13 b 840 472 709 -13 840 166 b 477 959 840 784 701 959 z m 477 948 b 828 472 694 948 828 778 b 477 -2 828 172 702 -2 b 127 470 263 -2 127 170 b 477 948 127 771 267 948 z "},"Ỏ":{"ha":956,"x_min":0,"x_max":0,"o":"m 473 1082 l 484 1082 l 484 1137 b 578 1222 536 1142 578 1163 b 487 1303 578 1273 541 1303 b 403 1279 451 1303 424 1291 l 407 1270 b 487 1293 428 1281 453 1293 b 566 1222 534 1293 566 1267 b 473 1145 566 1165 524 1148 z m 477 959 b 115 470 261 959 115 776 b 477 -13 115 164 256 -13 b 840 472 709 -13 840 166 b 477 959 840 784 701 959 z m 477 948 b 828 472 694 948 828 778 b 477 -2 828 172 702 -2 b 127 470 263 -2 127 170 b 477 948 127 771 267 948 z "},"Ơ":{"ha":956,"x_min":0,"x_max":0,"o":"m 717 862 b 804 954 772 868 804 897 b 783 1057 804 996 794 1029 l 774 1054 b 793 954 785 1026 793 994 b 709 870 793 901 765 875 b 477 959 649 928 571 959 b 115 470 261 959 115 776 b 477 -13 115 164 256 -13 b 840 472 709 -13 840 166 b 717 862 840 648 796 780 z m 477 -2 b 127 470 263 -2 127 170 b 477 948 127 771 267 948 b 828 472 694 948 828 778 b 477 -2 828 172 702 -2 z "},"Ớ":{"ha":956,"x_min":0,"x_max":0,"o":"m 595 1166 l 589 1177 l 355 1076 l 359 1068 z m 717 862 b 804 954 772 868 804 897 b 783 1057 804 996 794 1029 l 774 1054 b 793 954 785 1026 793 994 b 709 870 793 901 765 875 b 477 959 649 928 571 959 b 115 470 261 959 115 776 b 477 -13 115 164 256 -13 b 840 472 709 -13 840 166 b 717 862 840 648 796 780 z m 477 -2 b 127 470 263 -2 127 170 b 477 948 127 771 267 948 b 828 472 694 948 828 778 b 477 -2 828 172 702 -2 z "},"Ợ":{"ha":956,"x_min":0,"x_max":0,"o":"m 717 862 b 804 954 772 868 804 897 b 783 1057 804 996 794 1029 l 774 1054 b 793 954 785 1026 793 994 b 709 870 793 901 765 875 b 477 959 649 928 571 959 b 115 470 261 959 115 776 b 477 -13 115 164 256 -13 b 840 472 709 -13 840 166 b 717 862 840 648 796 780 z m 477 -2 b 127 470 263 -2 127 170 b 477 948 127 771 267 948 b 828 472 694 948 828 778 b 477 -2 828 172 702 -2 z m 478 -145 b 464 -159 469 -145 464 -152 b 478 -173 464 -166 469 -173 b 492 -159 487 -173 492 -166 b 478 -145 492 -152 487 -145 z "},"Ờ":{"ha":956,"x_min":0,"x_max":0,"o":"m 605 1076 l 371 1177 l 365 1166 l 601 1068 z m 717 862 b 804 954 772 868 804 897 b 783 1057 804 996 794 1029 l 774 1054 b 793 954 785 1026 793 994 b 709 870 793 901 765 875 b 477 959 649 928 571 959 b 115 470 261 959 115 776 b 477 -13 115 164 256 -13 b 840 472 709 -13 840 166 b 717 862 840 648 796 780 z m 477 -2 b 127 470 263 -2 127 170 b 477 948 127 771 267 948 b 828 472 694 948 828 778 b 477 -2 828 172 702 -2 z "},"Ở":{"ha":956,"x_min":0,"x_max":0,"o":"m 487 1293 b 566 1222 534 1293 566 1267 b 473 1145 566 1165 524 1148 l 473 1082 l 484 1082 l 484 1137 b 578 1222 536 1142 578 1163 b 487 1303 578 1273 541 1303 b 403 1279 451 1303 424 1291 l 407 1270 b 487 1293 428 1281 453 1293 z m 717 862 b 804 954 772 868 804 897 b 783 1057 804 996 794 1029 l 774 1054 b 793 954 785 1026 793 994 b 709 870 793 901 765 875 b 477 959 649 928 571 959 b 115 470 261 959 115 776 b 477 -13 115 164 256 -13 b 840 472 709 -13 840 166 b 717 862 840 648 796 780 z m 477 -2 b 127 470 263 -2 127 170 b 477 948 127 771 267 948 b 828 472 694 948 828 778 b 477 -2 828 172 702 -2 z "},"Ỡ":{"ha":956,"x_min":0,"x_max":0,"o":"m 397 1185 b 556 1124 449 1185 494 1124 b 651 1184 596 1124 621 1141 l 643 1188 b 556 1135 614 1150 592 1135 b 397 1196 497 1135 452 1196 b 304 1141 360 1196 336 1178 l 312 1137 b 397 1185 342 1170 363 1185 z m 717 862 b 804 954 772 868 804 897 b 783 1057 804 996 794 1029 l 774 1054 b 793 954 785 1026 793 994 b 709 870 793 901 765 875 b 477 959 649 928 571 959 b 115 470 261 959 115 776 b 477 -13 115 164 256 -13 b 840 472 709 -13 840 166 b 717 862 840 648 796 780 z m 477 -2 b 127 470 263 -2 127 170 b 477 948 127 771 267 948 b 828 472 694 948 828 778 b 477 -2 828 172 702 -2 z "},"Ő":{"ha":956,"x_min":0,"x_max":0,"o":"m 631 1268 l 537 1094 l 546 1089 l 642 1262 z m 482 1264 l 396 1097 l 405 1093 l 494 1259 z m 477 959 b 115 470 261 959 115 776 b 477 -13 115 164 256 -13 b 840 472 709 -13 840 166 b 477 959 840 784 701 959 z m 477 948 b 828 472 694 948 828 778 b 477 -2 828 172 702 -2 b 127 470 263 -2 127 170 b 477 948 127 771 267 948 z "},"Ƣ":{"ha":1215,"x_min":0,"x_max":0,"o":"m 888 959 b 680 895 807 959 747 933 b 477 959 624 937 556 959 b 115 470 261 959 115 776 b 477 -13 115 164 256 -13 b 840 472 709 -13 840 166 b 688 889 840 669 785 811 b 888 949 753 925 811 949 b 1027 794 980 949 1027 896 l 1027 -263 l 1038 -263 l 1038 794 b 888 959 1038 901 987 959 z m 828 472 b 477 -2 828 172 702 -2 b 127 470 263 -2 127 170 b 477 948 127 771 267 948 b 828 472 694 948 828 778 z "},"Ȏ":{"ha":956,"x_min":0,"x_max":0,"o":"m 478 1225 b 340 1120 400 1225 354 1179 l 348 1119 b 478 1214 366 1180 412 1214 b 608 1119 544 1214 590 1180 l 616 1120 b 478 1225 602 1179 556 1225 z m 477 959 b 115 470 261 959 115 776 b 477 -13 115 164 256 -13 b 840 472 709 -13 840 166 b 477 959 840 784 701 959 z m 477 948 b 828 472 694 948 828 778 b 477 -2 828 172 702 -2 b 127 470 263 -2 127 170 b 477 948 127 771 267 948 z "},"Ō":{"ha":956,"x_min":0,"x_max":0,"o":"m 614 1130 l 614 1141 l 343 1141 l 343 1130 z m 477 959 b 115 470 261 959 115 776 b 477 -13 115 164 256 -13 b 840 472 709 -13 840 166 b 477 959 840 784 701 959 z m 477 948 b 828 472 694 948 828 778 b 477 -2 828 172 702 -2 b 127 470 263 -2 127 170 b 477 948 127 771 267 948 z "},"Ṓ":{"ha":956,"x_min":0,"x_max":0,"o":"m 590 1283 l 356 1181 l 360 1173 l 596 1271 z m 614 1070 l 614 1081 l 343 1081 l 343 1070 z m 477 959 b 115 470 261 959 115 776 b 477 -13 115 164 256 -13 b 840 472 709 -13 840 166 b 477 959 840 784 701 959 z m 477 948 b 828 472 694 948 828 778 b 477 -2 828 172 702 -2 b 127 470 263 -2 127 170 b 477 948 127 771 267 948 z "},"Ṑ":{"ha":956,"x_min":0,"x_max":0,"o":"m 368 1283 l 362 1271 l 598 1173 l 601 1181 z m 614 1070 l 614 1081 l 343 1081 l 343 1070 z m 477 959 b 115 470 261 959 115 776 b 477 -13 115 164 256 -13 b 840 472 709 -13 840 166 b 477 959 840 784 701 959 z m 477 948 b 828 472 694 948 828 778 b 477 -2 828 172 702 -2 b 127 470 263 -2 127 170 b 477 948 127 771 267 948 z "},"Ꞷ":{"ha":1164,"x_min":0,"x_max":0,"o":"m 936 945 l 924 945 b 1025 395 983 788 1025 603 b 782 -2 1025 101 930 -2 b 588 261 663 -2 588 62 l 588 549 l 576 549 l 576 263 b 377 -2 576 63 493 -2 b 139 395 227 -2 139 97 b 243 945 139 603 184 788 l 231 945 b 127 395 174 790 127 606 b 377 -13 127 95 218 -13 b 582 212 497 -13 570 53 b 783 -13 591 53 661 -13 b 1037 395 937 -13 1037 94 b 936 945 1037 606 994 790 z "},"Ǫ":{"ha":956,"x_min":0,"x_max":0,"o":"m 569 -2 b 840 472 743 40 840 209 b 477 959 840 784 701 959 b 115 470 261 959 115 776 b 477 -13 115 164 256 -13 b 531 -9 496 -13 514 -12 b 379 -172 451 -44 379 -93 b 493 -273 379 -235 421 -273 b 567 -262 519 -273 537 -270 l 568 -251 b 493 -262 538 -259 518 -262 b 391 -171 429 -262 391 -229 b 569 -2 391 -84 486 -35 z m 127 470 b 477 948 127 771 267 948 b 828 472 694 948 828 778 b 477 -2 828 172 702 -2 b 127 470 263 -2 127 170 z "},"Ǭ":{"ha":956,"x_min":0,"x_max":0,"o":"m 614 1141 l 343 1141 l 343 1130 l 614 1130 z m 569 -2 b 840 472 743 40 840 209 b 477 959 840 784 701 959 b 115 470 261 959 115 776 b 477 -13 115 164 256 -13 b 531 -9 496 -13 514 -12 b 379 -172 451 -44 379 -93 b 493 -273 379 -235 421 -273 b 567 -262 519 -273 537 -270 l 568 -251 b 493 -262 538 -259 518 -262 b 391 -171 429 -262 391 -229 b 569 -2 391 -84 486 -35 z m 127 470 b 477 948 127 771 267 948 b 828 472 694 948 828 778 b 477 -2 828 172 702 -2 b 127 470 263 -2 127 170 z "},"Ɔ":{"ha":739,"x_min":0,"x_max":0,"o":"m 283 959 b 48 879 175 959 107 923 l 54 870 b 283 948 114 915 180 948 b 612 471 479 948 612 797 b 271 -2 612 163 468 -2 b 43 80 161 -2 96 36 l 36 71 b 271 -13 89 26 157 -13 b 624 471 477 -13 624 158 b 283 959 624 801 487 959 z "},"Ø":{"ha":956,"x_min":0,"x_max":0,"o":"m 617 932 l 665 1094 l 654 1098 l 607 936 b 477 959 568 951 524 959 b 115 470 261 959 115 776 b 339 14 115 234 199 75 l 291 -143 l 302 -146 l 348 10 b 477 -13 387 -5 430 -13 b 840 472 709 -13 840 166 b 617 932 840 713 757 872 z m 127 470 b 477 948 127 771 267 948 b 605 925 524 948 566 940 l 342 25 b 127 470 207 84 127 239 z m 477 -2 b 351 21 431 -2 389 6 l 613 921 b 828 472 749 863 828 707 b 477 -2 828 172 702 -2 z "},"Ǿ":{"ha":956,"x_min":0,"x_max":0,"o":"m 583 1176 l 577 1188 l 343 1087 l 347 1078 z m 617 932 l 665 1094 l 654 1098 l 607 936 b 477 959 568 951 524 959 b 115 470 261 959 115 776 b 339 14 115 234 199 75 l 291 -143 l 302 -146 l 348 10 b 477 -13 387 -5 430 -13 b 840 472 709 -13 840 166 b 617 932 840 713 757 872 z m 127 470 b 477 948 127 771 267 948 b 605 925 524 948 566 940 l 342 25 b 127 470 207 84 127 239 z m 477 -2 b 351 21 431 -2 389 6 l 613 921 b 828 472 749 863 828 707 b 477 -2 828 172 702 -2 z "},"Õ":{"ha":956,"x_min":0,"x_max":0,"o":"m 556 1124 b 651 1184 596 1124 621 1141 l 643 1188 b 556 1135 614 1150 592 1135 b 397 1196 497 1135 452 1196 b 304 1141 360 1196 336 1178 l 312 1137 b 397 1185 342 1170 363 1185 b 556 1124 449 1185 494 1124 z m 477 959 b 115 470 261 959 115 776 b 477 -13 115 164 256 -13 b 840 472 709 -13 840 166 b 477 959 840 784 701 959 z m 477 948 b 828 472 694 948 828 778 b 477 -2 828 172 702 -2 b 127 470 263 -2 127 170 b 477 948 127 771 267 948 z "},"Ṍ":{"ha":956,"x_min":0,"x_max":0,"o":"m 587 1301 l 353 1199 l 357 1191 l 593 1289 z m 557 1054 b 652 1113 597 1054 622 1070 l 644 1117 b 557 1064 615 1079 594 1064 b 398 1125 498 1064 454 1125 b 305 1070 361 1125 337 1107 l 313 1066 b 398 1114 343 1099 364 1114 b 557 1054 450 1114 495 1054 z m 477 959 b 115 470 261 959 115 776 b 477 -13 115 164 256 -13 b 840 472 709 -13 840 166 b 477 959 840 784 701 959 z m 477 948 b 828 472 694 948 828 778 b 477 -2 828 172 702 -2 b 127 470 263 -2 127 170 b 477 948 127 771 267 948 z "},"Ȭ":{"ha":956,"x_min":0,"x_max":0,"o":"m 610 1215 l 610 1226 l 339 1226 l 339 1215 z m 557 1054 b 652 1113 597 1054 622 1070 l 644 1117 b 557 1064 615 1079 594 1064 b 398 1125 498 1064 454 1125 b 305 1070 361 1125 337 1107 l 313 1066 b 398 1114 343 1099 364 1114 b 557 1054 450 1114 495 1054 z m 477 959 b 115 470 261 959 115 776 b 477 -13 115 164 256 -13 b 840 472 709 -13 840 166 b 477 959 840 784 701 959 z m 477 948 b 828 472 694 948 828 778 b 477 -2 828 172 702 -2 b 127 470 263 -2 127 170 b 477 948 127 771 267 948 z "},"Œ":{"ha":1167,"x_min":0,"x_max":0,"o":"m 575 11 b 801 496 720 65 801 228 l 1028 496 l 1028 506 l 801 506 b 579 934 799 723 720 878 l 1086 934 l 1088 945 l 549 945 b 453 959 523 953 489 959 b 115 470 254 959 115 776 b 453 -13 115 164 249 -13 b 547 1 489 -13 520 -8 l 546 0 l 1100 0 l 1100 11 z m 127 470 b 453 948 127 771 260 948 b 790 498 661 948 790 778 b 453 -2 790 172 669 -2 b 127 470 256 -2 127 170 z "},"P":{"ha":769,"x_min":0,"x_max":0,"o":"m 354 945 l 178 945 l 178 0 l 189 0 l 189 400 l 349 400 b 682 673 551 400 682 477 b 354 945 682 864 573 945 z m 350 411 l 189 411 l 189 934 l 354 934 b 670 673 566 934 670 859 b 350 411 670 482 545 411 z "},"Ṕ":{"ha":769,"x_min":0,"x_max":0,"o":"m 502 1166 l 496 1177 l 262 1076 l 266 1068 z m 354 945 l 178 945 l 178 0 l 189 0 l 189 400 l 349 400 b 682 673 551 400 682 477 b 354 945 682 864 573 945 z m 350 411 l 189 411 l 189 934 l 354 934 b 670 673 566 934 670 859 b 350 411 670 482 545 411 z "},"Ṗ":{"ha":769,"x_min":0,"x_max":0,"o":"m 385 1135 b 399 1149 394 1135 399 1142 b 385 1163 399 1156 394 1163 b 371 1149 376 1163 371 1156 b 385 1135 371 1142 376 1135 z m 354 945 l 178 945 l 178 0 l 189 0 l 189 400 l 349 400 b 682 673 551 400 682 477 b 354 945 682 864 573 945 z m 350 411 l 189 411 l 189 934 l 354 934 b 670 673 566 934 670 859 b 350 411 670 482 545 411 z "},"Ƥ":{"ha":832,"x_min":0,"x_max":0,"o":"m 416 945 l 181 945 b 39 822 87 945 39 899 b 78 710 39 770 58 740 l 88 715 b 50 822 66 746 50 774 b 180 935 50 892 92 935 l 240 935 l 240 0 l 251 0 l 251 400 l 411 400 b 744 673 614 400 744 477 b 416 945 744 864 635 945 z m 412 411 l 251 411 l 251 934 l 416 934 b 733 673 629 934 733 859 b 412 411 733 482 607 411 z "},"Þ":{"ha":769,"x_min":0,"x_max":0,"o":"m 354 766 l 189 766 l 189 945 l 178 945 l 178 0 l 189 0 l 189 211 l 349 211 b 682 489 552 211 682 287 b 354 766 682 685 573 766 z m 350 222 l 189 222 l 189 755 l 354 755 b 670 489 566 755 670 680 b 350 222 670 293 545 222 z "},"Q":{"ha":956,"x_min":0,"x_max":0,"o":"m 535 -4 b 840 472 726 18 840 185 b 477 959 840 784 701 959 b 115 470 261 959 115 776 b 477 -12 115 164 256 -12 b 484 -12 479 -12 482 -12 b 853 -105 670 -11 766 -34 l 861 -96 b 535 -4 776 -25 673 -6 z m 127 470 b 477 948 127 771 267 948 b 828 472 694 948 828 778 b 477 -2 828 172 702 -2 b 127 470 263 -2 127 170 z "},"Ɋ":{"ha":892,"x_min":0,"x_max":0,"o":"m 933 -221 b 825 -258 906 -242 876 -258 b 714 -130 760 -258 714 -217 l 714 945 l 704 945 l 702 840 b 458 959 650 909 568 959 b 115 456 261 959 115 776 b 449 -13 115 154 256 -13 b 702 122 561 -13 643 33 l 702 -130 b 825 -269 702 -221 753 -269 b 938 -229 879 -269 913 -250 z m 449 -2 b 127 456 263 -2 127 161 b 458 948 127 771 267 948 b 702 825 569 948 650 896 l 702 138 b 449 -2 644 46 563 -2 z "},"R":{"ha":783,"x_min":0,"x_max":0,"o":"m 698 0 l 712 0 l 446 461 b 675 702 563 471 675 537 b 373 945 675 852 595 945 l 178 945 l 178 0 l 189 0 l 189 460 l 433 460 z m 189 471 l 189 934 l 372 934 b 664 702 589 934 664 845 b 417 471 664 536 547 471 z "},"Ŕ":{"ha":783,"x_min":0,"x_max":0,"o":"m 508 1166 l 503 1177 l 269 1076 l 273 1068 z m 698 0 l 712 0 l 446 461 b 675 702 563 471 675 537 b 373 945 675 852 595 945 l 178 945 l 178 0 l 189 0 l 189 460 l 433 460 z m 189 471 l 189 934 l 372 934 b 664 702 589 934 664 845 b 417 471 664 536 547 471 z "},"Ř":{"ha":783,"x_min":0,"x_max":0,"o":"m 394 1060 l 550 1175 l 543 1181 l 390 1072 l 240 1181 l 233 1175 l 387 1060 z m 698 0 l 712 0 l 446 461 b 675 702 563 471 675 537 b 373 945 675 852 595 945 l 178 945 l 178 0 l 189 0 l 189 460 l 433 460 z m 189 471 l 189 934 l 372 934 b 664 702 589 934 664 845 b 417 471 664 536 547 471 z "},"Ŗ":{"ha":783,"x_min":0,"x_max":0,"o":"m 446 461 b 675 702 563 471 675 537 b 373 945 675 852 595 945 l 178 945 l 178 0 l 189 0 l 189 460 l 433 460 l 698 0 l 712 0 z m 189 471 l 189 934 l 372 934 b 664 702 589 934 664 845 b 417 471 664 536 547 471 z m 418 -144 b 403 -159 409 -144 403 -150 b 416 -173 403 -167 408 -171 l 381 -340 l 388 -340 l 427 -184 b 434 -159 432 -170 434 -165 b 418 -144 434 -150 428 -144 z "},"Ȑ":{"ha":783,"x_min":0,"x_max":0,"o":"m 323 1094 l 230 1268 l 218 1262 l 315 1089 z m 464 1097 l 378 1264 l 367 1259 l 456 1093 z m 698 0 l 712 0 l 446 461 b 675 702 563 471 675 537 b 373 945 675 852 595 945 l 178 945 l 178 0 l 189 0 l 189 460 l 433 460 z m 189 471 l 189 934 l 372 934 b 664 702 589 934 664 845 b 417 471 664 536 547 471 z "},"Ṛ":{"ha":783,"x_min":0,"x_max":0,"o":"m 446 461 b 675 702 563 471 675 537 b 373 945 675 852 595 945 l 178 945 l 178 0 l 189 0 l 189 460 l 433 460 l 698 0 l 712 0 z m 189 471 l 189 934 l 372 934 b 664 702 589 934 664 845 b 417 471 664 536 547 471 z m 419 -145 b 405 -159 410 -145 405 -152 b 419 -173 405 -166 410 -173 b 434 -159 428 -173 434 -166 b 419 -145 434 -152 428 -145 z "},"Ȓ":{"ha":783,"x_min":0,"x_max":0,"o":"m 391 1214 b 521 1119 458 1214 503 1180 l 530 1120 b 391 1225 515 1179 469 1225 b 253 1120 314 1225 268 1179 l 262 1119 b 391 1214 280 1180 325 1214 z m 698 0 l 712 0 l 446 461 b 675 702 563 471 675 537 b 373 945 675 852 595 945 l 178 945 l 178 0 l 189 0 l 189 460 l 433 460 z m 189 471 l 189 934 l 372 934 b 664 702 589 934 664 845 b 417 471 664 536 547 471 z "},"Ɍ":{"ha":776,"x_min":0,"x_max":0,"o":"m 704 0 l 438 461 b 668 702 555 471 668 537 b 365 945 668 852 587 945 l 170 945 l 170 471 l 40 471 l 40 460 l 170 460 l 170 0 l 181 0 l 181 460 l 425 460 l 690 0 z m 410 471 l 181 471 l 181 934 l 364 934 b 656 702 581 934 656 845 b 410 471 656 536 539 471 z "},"Ɽ":{"ha":783,"x_min":0,"x_max":0,"o":"m 189 -130 l 189 460 l 433 460 l 698 0 l 712 0 l 446 461 b 675 702 563 471 675 537 b 373 945 675 852 595 945 l 178 945 l 178 -130 b 300 -269 178 -221 228 -269 b 413 -229 354 -269 388 -250 l 408 -221 b 300 -258 382 -242 351 -258 b 189 -130 235 -258 189 -217 z m 372 934 b 664 702 589 934 664 845 b 417 471 664 536 547 471 l 189 471 l 189 934 z "},"S":{"ha":749,"x_min":0,"x_max":0,"o":"m 367 959 b 119 746 217 959 119 866 b 372 507 119 619 182 568 b 630 248 550 451 630 396 b 360 -2 630 100 521 -2 b 93 105 235 -2 161 41 l 86 97 b 360 -13 156 31 233 -13 b 642 249 528 -13 642 94 b 376 517 642 402 557 460 b 130 746 190 576 130 624 b 367 948 130 860 224 948 b 603 859 476 948 542 914 l 610 868 b 367 959 549 921 483 959 z "},"Ś":{"ha":749,"x_min":0,"x_max":0,"o":"m 489 1177 l 255 1076 l 259 1068 l 495 1166 z m 367 959 b 119 746 217 959 119 866 b 372 507 119 619 182 568 b 630 248 550 451 630 396 b 360 -2 630 100 521 -2 b 93 105 235 -2 161 41 l 86 97 b 360 -13 156 31 233 -13 b 642 249 528 -13 642 94 b 376 517 642 402 557 460 b 130 746 190 576 130 624 b 367 948 130 860 224 948 b 603 859 476 948 542 914 l 610 868 b 367 959 549 921 483 959 z "},"Ꞌ":{"ha":256,"x_min":0,"x_max":0,"o":"m 123 506 l 133 506 l 134 945 l 122 945 z "},"Š":{"ha":749,"x_min":0,"x_max":0,"o":"m 529 1181 l 377 1072 l 226 1181 l 219 1175 l 373 1060 l 380 1060 l 536 1175 z m 367 959 b 119 746 217 959 119 866 b 372 507 119 619 182 568 b 630 248 550 451 630 396 b 360 -2 630 100 521 -2 b 93 105 235 -2 161 41 l 86 97 b 360 -13 156 31 233 -13 b 642 249 528 -13 642 94 b 376 517 642 402 557 460 b 130 746 190 576 130 624 b 367 948 130 860 224 948 b 603 859 476 948 542 914 l 610 868 b 367 959 550 921 483 959 z "},"Ş":{"ha":749,"x_min":0,"x_max":0,"o":"m 642 249 b 376 517 642 402 557 460 b 130 746 190 576 130 624 b 367 948 130 860 224 948 b 603 859 476 948 542 914 l 610 868 b 367 959 549 921 483 959 b 119 746 217 959 119 866 b 372 507 119 619 182 568 b 630 248 550 451 630 396 b 360 -2 630 100 521 -2 b 93 105 235 -2 161 41 l 86 97 b 353 -13 154 32 230 -11 l 347 -119 b 471 -196 435 -121 471 -146 b 382 -275 471 -253 427 -275 b 299 -253 345 -275 321 -267 l 294 -262 b 382 -285 317 -276 341 -285 b 483 -196 433 -285 483 -259 b 357 -111 483 -136 436 -113 l 361 -13 b 642 249 529 -12 642 95 z "},"Ŝ":{"ha":749,"x_min":0,"x_max":0,"o":"m 226 1068 l 377 1177 l 529 1068 l 536 1074 l 380 1189 l 373 1189 l 219 1074 z m 367 959 b 119 746 217 959 119 866 b 372 507 119 619 182 568 b 630 248 550 451 630 396 b 360 -2 630 100 521 -2 b 93 105 235 -2 161 41 l 86 97 b 360 -13 156 31 233 -13 b 642 249 528 -13 642 94 b 376 517 642 402 557 460 b 130 746 190 576 130 624 b 367 948 130 860 224 948 b 603 859 476 948 542 914 l 610 868 b 367 959 549 921 483 959 z "},"Ș":{"ha":749,"x_min":0,"x_max":0,"o":"m 367 959 b 119 746 217 959 119 866 b 372 507 119 619 182 568 b 630 248 550 451 630 396 b 360 -2 630 100 521 -2 b 93 105 235 -2 161 41 l 86 97 b 360 -13 156 31 233 -13 b 642 249 528 -13 642 94 b 376 517 642 402 557 460 b 130 746 190 576 130 624 b 367 948 130 860 224 948 b 603 859 476 948 542 914 l 610 868 b 367 959 549 921 483 959 z m 362 -144 b 347 -159 353 -144 347 -150 b 359 -173 347 -167 351 -171 l 324 -340 l 332 -340 l 370 -184 b 377 -159 376 -170 377 -165 b 362 -144 377 -150 372 -144 z "},"Ṡ":{"ha":749,"x_min":0,"x_max":0,"o":"m 378 1163 b 363 1149 369 1163 363 1156 b 378 1135 363 1142 369 1135 b 392 1149 387 1135 392 1142 b 378 1163 392 1156 387 1163 z m 367 959 b 119 746 217 959 119 866 b 372 507 119 619 182 568 b 630 248 550 451 630 396 b 360 -2 630 100 521 -2 b 93 105 235 -2 161 41 l 86 97 b 360 -13 156 31 233 -13 b 642 249 528 -13 642 94 b 376 517 642 402 557 460 b 130 746 190 576 130 624 b 367 948 130 860 224 948 b 603 859 476 948 542 914 l 610 868 b 367 959 549 921 483 959 z "},"Ṣ":{"ha":749,"x_min":0,"x_max":0,"o":"m 367 959 b 119 746 217 959 119 866 b 372 507 119 619 182 568 b 630 248 550 451 630 396 b 360 -2 630 100 521 -2 b 93 105 235 -2 161 41 l 86 97 b 360 -13 156 31 233 -13 b 642 249 528 -13 642 94 b 376 517 642 402 557 460 b 130 746 190 576 130 624 b 367 948 130 860 224 948 b 603 859 476 948 542 914 l 610 868 b 367 959 549 921 483 959 z m 363 -173 b 377 -159 372 -173 377 -166 b 363 -145 377 -152 372 -145 b 349 -159 353 -145 349 -152 b 363 -173 349 -166 353 -173 z "},"ẞ":{"ha":874,"x_min":0,"x_max":0,"o":"m 442 959 b 178 689 275 959 178 862 l 178 0 l 189 0 l 189 687 b 442 948 189 858 282 948 b 720 861 550 948 635 916 l 421 531 l 421 521 b 773 246 666 494 773 411 b 535 -3 773 94 688 -3 b 386 27 466 -3 426 9 l 381 18 b 535 -14 420 0 463 -14 b 784 246 695 -14 784 89 b 433 529 784 415 677 503 l 732 857 l 732 866 b 442 959 641 926 552 959 z "},"Ə":{"ha":896,"x_min":0,"x_max":0,"o":"m 442 959 b 166 849 331 959 250 921 l 173 840 b 442 948 256 911 335 948 b 769 490 640 948 762 814 l 103 490 b 101 443 101 472 101 459 b 442 -13 102 155 234 -13 b 781 466 643 -13 781 141 b 442 959 781 816 651 959 z m 443 -2 b 114 479 238 -2 104 167 l 769 479 b 443 -2 771 149 638 -2 z "},"T":{"ha":657,"x_min":0,"x_max":0,"o":"m 632 945 l 26 945 l 26 934 l 323 934 l 323 0 l 334 0 l 334 934 l 631 934 z "},"Ŧ":{"ha":657,"x_min":0,"x_max":0,"o":"m 631 934 l 632 945 l 26 945 l 26 934 l 323 934 l 323 524 l 151 524 l 151 513 l 323 513 l 323 0 l 334 0 l 334 513 l 504 513 l 504 524 l 334 524 l 334 934 z "},"Ť":{"ha":657,"x_min":0,"x_max":0,"o":"m 480 1181 l 328 1072 l 177 1181 l 170 1175 l 324 1060 l 331 1060 l 487 1175 z m 632 945 l 26 945 l 26 934 l 323 934 l 323 0 l 334 0 l 334 934 l 631 934 z "},"Ţ":{"ha":657,"x_min":0,"x_max":0,"o":"m 334 0 l 334 934 l 631 934 l 632 945 l 26 945 l 26 934 l 323 934 l 323 0 l 325 0 l 318 -119 b 443 -196 406 -120 443 -146 b 353 -275 443 -253 399 -275 b 270 -253 316 -275 293 -267 l 265 -262 b 353 -285 288 -276 312 -285 b 454 -196 404 -285 454 -259 b 329 -111 454 -136 407 -113 l 334 0 z "},"Ṱ":{"ha":657,"x_min":0,"x_max":0,"o":"m 632 945 l 26 945 l 26 934 l 323 934 l 323 0 l 334 0 l 334 934 l 631 934 z m 177 -242 l 329 -126 l 480 -242 l 487 -235 l 333 -114 l 326 -114 l 170 -235 z "},"Ț":{"ha":657,"x_min":0,"x_max":0,"o":"m 632 945 l 26 945 l 26 934 l 323 934 l 323 0 l 334 0 l 334 934 l 631 934 z m 328 -144 b 313 -159 319 -144 313 -150 b 325 -173 313 -167 317 -171 l 290 -340 l 297 -340 l 336 -184 b 343 -159 342 -170 343 -165 b 328 -144 343 -150 338 -144 z "},"Ⱦ":{"ha":657,"x_min":0,"x_max":0,"o":"m 631 934 l 632 945 l 466 945 l 485 1013 l 476 1015 l 456 945 l 26 945 l 26 934 l 323 934 l 323 481 l 161 -81 l 170 -83 l 323 448 l 323 0 l 334 0 l 334 488 l 462 934 z m 334 521 l 334 934 l 453 934 z "},"Ṫ":{"ha":657,"x_min":0,"x_max":0,"o":"m 329 1163 b 314 1149 320 1163 314 1156 b 329 1135 314 1142 320 1135 b 343 1149 338 1135 343 1142 b 329 1163 343 1156 338 1163 z m 632 945 l 26 945 l 26 934 l 323 934 l 323 0 l 334 0 l 334 934 l 631 934 z "},"Ṭ":{"ha":657,"x_min":0,"x_max":0,"o":"m 632 945 l 26 945 l 26 934 l 323 934 l 323 0 l 334 0 l 334 934 l 631 934 z m 329 -173 b 343 -159 338 -173 343 -166 b 329 -145 343 -152 338 -145 b 314 -159 319 -145 314 -152 b 329 -173 314 -166 319 -173 z "},"Ƭ":{"ha":685,"x_min":0,"x_max":0,"o":"m 660 945 l 182 945 b 39 822 87 945 39 899 b 78 710 39 770 58 740 l 88 715 b 50 822 66 746 50 774 b 180 934 50 892 92 934 l 351 934 l 351 0 l 362 0 l 362 934 l 659 934 z "},"Ṯ":{"ha":657,"x_min":0,"x_max":0,"o":"m 632 945 l 26 945 l 26 934 l 323 934 l 323 0 l 334 0 l 334 934 l 631 934 z m 464 -174 l 464 -163 l 193 -163 l 193 -174 z "},"Ƽ":{"ha":667,"x_min":0,"x_max":0,"o":"m 543 945 l 124 945 l 124 511 l 134 511 b 323 574 190 551 241 574 b 562 303 475 574 562 477 b 306 -2 562 122 473 -2 b 75 97 208 -2 128 35 l 66 90 b 305 -13 122 26 204 -13 b 574 303 480 -13 574 117 b 323 584 574 481 483 584 b 135 522 239 584 184 559 l 135 935 l 542 935 z "},"Ƅ":{"ha":763,"x_min":0,"x_max":0,"o":"m 383 558 l 189 558 l 189 945 l 179 945 b 150 869 173 911 164 890 l 178 855 l 178 0 l 388 0 b 684 293 569 0 684 95 b 383 558 684 469 575 558 z m 390 11 l 189 11 l 189 547 l 384 547 b 673 293 568 547 673 462 b 390 11 673 103 565 11 z "},"Ƨ":{"ha":746,"x_min":0,"x_max":0,"o":"m 392 959 b 138 868 277 959 207 921 l 145 859 b 392 948 214 914 284 948 b 618 755 533 948 618 867 b 372 517 618 631 558 577 b 107 239 191 459 107 395 b 380 -13 107 89 220 -13 b 660 97 512 -13 590 31 l 653 105 b 381 -2 585 41 511 -2 b 118 239 227 -2 118 94 b 376 507 118 390 198 450 b 629 755 567 569 629 627 b 392 959 629 874 539 959 z "},"Ʈ":{"ha":657,"x_min":0,"x_max":0,"o":"m 334 -130 l 334 934 l 631 934 l 632 945 l 26 945 l 26 934 l 323 934 l 323 -130 b 445 -269 323 -221 373 -269 b 559 -229 499 -269 533 -250 l 553 -221 b 445 -258 527 -242 496 -258 b 334 -130 380 -258 334 -217 z "},"U":{"ha":883,"x_min":0,"x_max":0,"o":"m 720 945 l 708 945 l 708 288 b 442 -2 708 121 636 -2 b 175 288 247 -2 175 121 l 175 945 l 164 945 l 164 287 b 442 -13 164 115 238 -13 b 720 287 643 -13 720 115 z "},"Ú":{"ha":883,"x_min":0,"x_max":0,"o":"m 553 1177 l 319 1076 l 323 1068 l 559 1166 z m 720 945 l 708 945 l 708 288 b 442 -2 708 121 636 -2 b 175 288 247 -2 175 121 l 175 945 l 164 945 l 164 287 b 442 -13 164 115 238 -13 b 720 287 643 -13 720 115 z "},"Ʉ":{"ha":928,"x_min":0,"x_max":0,"o":"m 818 738 l 742 738 l 742 945 l 731 945 l 731 738 l 198 738 l 198 945 l 186 945 l 186 738 l 110 738 l 110 728 l 186 728 l 186 287 b 464 -13 186 115 261 -13 b 742 287 665 -13 742 115 l 742 728 l 818 728 z m 731 288 b 464 -2 731 121 659 -2 b 198 288 269 -2 198 121 l 198 728 l 731 728 z "},"Ŭ":{"ha":883,"x_min":0,"x_max":0,"o":"m 442 1074 b 580 1165 520 1074 565 1119 l 571 1166 b 442 1085 554 1119 508 1085 b 312 1166 375 1085 330 1119 l 303 1165 b 442 1074 318 1119 364 1074 z m 720 945 l 708 945 l 708 288 b 442 -2 708 121 636 -2 b 175 288 247 -2 175 121 l 175 945 l 164 945 l 164 287 b 442 -13 164 115 238 -13 b 720 287 643 -13 720 115 z "},"Ǔ":{"ha":883,"x_min":0,"x_max":0,"o":"m 593 1181 l 441 1072 l 290 1181 l 283 1175 l 437 1060 l 444 1060 l 600 1175 z m 720 945 l 708 945 l 708 288 b 442 -2 708 121 636 -2 b 175 288 247 -2 175 121 l 175 945 l 164 945 l 164 287 b 442 -13 164 115 238 -13 b 720 287 643 -13 720 115 z "},"Û":{"ha":883,"x_min":0,"x_max":0,"o":"m 290 1068 l 441 1177 l 593 1068 l 600 1074 l 444 1189 l 437 1189 l 283 1074 z m 720 945 l 708 945 l 708 288 b 442 -2 708 121 636 -2 b 175 288 247 -2 175 121 l 175 945 l 164 945 l 164 287 b 442 -13 164 115 238 -13 b 720 287 643 -13 720 115 z "},"Ȕ":{"ha":883,"x_min":0,"x_max":0,"o":"m 280 1268 l 268 1262 l 365 1089 l 374 1094 z m 429 1264 l 417 1259 l 506 1093 l 515 1097 z m 720 945 l 708 945 l 708 288 b 442 -2 708 121 636 -2 b 175 288 247 -2 175 121 l 175 945 l 164 945 l 164 287 b 442 -13 164 115 238 -13 b 720 287 643 -13 720 115 z "},"Ü":{"ha":883,"x_min":0,"x_max":0,"o":"m 334 1143 b 320 1129 325 1143 320 1137 b 334 1115 320 1122 325 1115 b 348 1129 343 1115 348 1122 b 334 1143 348 1137 343 1143 z m 548 1143 b 534 1129 539 1143 534 1137 b 548 1115 534 1122 539 1115 b 562 1129 557 1115 562 1122 b 548 1143 562 1137 557 1143 z m 720 945 l 708 945 l 708 288 b 442 -2 708 121 636 -2 b 175 288 247 -2 175 121 l 175 945 l 164 945 l 164 287 b 442 -13 164 115 238 -13 b 720 287 643 -13 720 115 z "},"Ǘ":{"ha":883,"x_min":0,"x_max":0,"o":"m 539 1244 l 413 1090 l 420 1084 l 549 1235 z m 334 1059 b 320 1045 325 1059 320 1052 b 334 1031 320 1037 325 1031 b 348 1045 343 1031 348 1037 b 334 1059 348 1052 343 1059 z m 548 1059 b 534 1045 539 1059 534 1052 b 548 1031 534 1037 539 1031 b 562 1045 557 1031 562 1037 b 548 1059 562 1052 557 1059 z m 720 945 l 708 945 l 708 288 b 442 -2 708 121 636 -2 b 175 288 247 -2 175 121 l 175 945 l 164 945 l 164 287 b 442 -13 164 115 238 -13 b 720 287 643 -13 720 115 z "},"Ǚ":{"ha":883,"x_min":0,"x_max":0,"o":"m 593 1197 l 440 1088 l 289 1197 l 283 1190 l 437 1076 l 444 1076 l 599 1190 z m 334 1059 b 320 1045 325 1059 320 1052 b 334 1031 320 1037 325 1031 b 348 1045 343 1031 348 1037 b 334 1059 348 1052 343 1059 z m 548 1059 b 534 1045 539 1059 534 1052 b 548 1031 534 1037 539 1031 b 562 1045 557 1031 562 1037 b 548 1059 562 1052 557 1059 z m 720 945 l 708 945 l 708 288 b 442 -2 708 121 636 -2 b 175 288 247 -2 175 121 l 175 945 l 164 945 l 164 287 b 442 -13 164 115 238 -13 b 720 287 643 -13 720 115 z "},"Ǜ":{"ha":883,"x_min":0,"x_max":0,"o":"m 345 1244 l 336 1235 l 464 1084 l 472 1090 z m 334 1059 b 320 1045 325 1059 320 1052 b 334 1031 320 1037 325 1031 b 348 1045 343 1031 348 1037 b 334 1059 348 1052 343 1059 z m 548 1059 b 534 1045 539 1059 534 1052 b 548 1031 534 1037 539 1031 b 562 1045 557 1031 562 1037 b 548 1059 562 1052 557 1059 z m 720 945 l 708 945 l 708 288 b 442 -2 708 121 636 -2 b 175 288 247 -2 175 121 l 175 945 l 164 945 l 164 287 b 442 -13 164 115 238 -13 b 720 287 643 -13 720 115 z "},"Ǖ":{"ha":883,"x_min":0,"x_max":0,"o":"m 580 1163 l 580 1174 l 309 1174 l 309 1163 z m 334 1059 b 320 1045 325 1059 320 1052 b 334 1031 320 1037 325 1031 b 348 1045 343 1031 348 1037 b 334 1059 348 1052 343 1059 z m 548 1059 b 534 1045 539 1059 534 1052 b 548 1031 534 1037 539 1031 b 562 1045 557 1031 562 1037 b 548 1059 562 1052 557 1059 z m 720 945 l 708 945 l 708 288 b 442 -2 708 121 636 -2 b 175 288 247 -2 175 121 l 175 945 l 164 945 l 164 287 b 442 -13 164 115 238 -13 b 720 287 643 -13 720 115 z "},"Ụ":{"ha":883,"x_min":0,"x_max":0,"o":"m 720 945 l 708 945 l 708 288 b 442 -2 708 121 636 -2 b 175 288 247 -2 175 121 l 175 945 l 164 945 l 164 287 b 442 -13 164 115 238 -13 b 720 287 643 -13 720 115 z m 442 -173 b 456 -159 451 -173 456 -166 b 442 -145 456 -152 451 -145 b 427 -159 432 -145 427 -152 b 442 -173 427 -166 432 -173 z "},"Ù":{"ha":883,"x_min":0,"x_max":0,"o":"m 335 1177 l 329 1166 l 565 1068 l 569 1076 z m 720 945 l 708 945 l 708 288 b 442 -2 708 121 636 -2 b 175 288 247 -2 175 121 l 175 945 l 164 945 l 164 287 b 442 -13 164 115 238 -13 b 720 287 643 -13 720 115 z "},"Ủ":{"ha":883,"x_min":0,"x_max":0,"o":"m 436 1082 l 447 1082 l 447 1137 b 541 1222 500 1142 541 1163 b 451 1303 541 1273 505 1303 b 366 1279 415 1303 388 1291 l 371 1270 b 450 1293 391 1281 417 1293 b 530 1222 498 1293 530 1267 b 436 1145 530 1165 488 1148 z m 720 945 l 708 945 l 708 288 b 442 -2 708 121 636 -2 b 175 288 247 -2 175 121 l 175 945 l 164 945 l 164 287 b 442 -13 164 115 238 -13 b 720 287 643 -13 720 115 z "},"Ư":{"ha":883,"x_min":0,"x_max":0,"o":"m 813 954 b 793 1057 813 996 804 1029 l 784 1054 b 803 954 795 1026 803 994 b 720 870 803 901 775 876 l 720 945 l 708 945 l 708 288 b 442 -2 708 121 636 -2 b 175 288 247 -2 175 121 l 175 945 l 164 945 l 164 287 b 442 -13 164 115 238 -13 b 720 287 643 -13 720 115 l 720 861 b 813 954 779 866 813 895 z "},"Ứ":{"ha":883,"x_min":0,"x_max":0,"o":"m 559 1166 l 553 1177 l 319 1076 l 323 1068 z m 813 954 b 793 1057 813 996 804 1029 l 784 1054 b 803 954 795 1026 803 994 b 720 870 803 901 775 876 l 720 945 l 708 945 l 708 288 b 442 -2 708 121 636 -2 b 175 288 247 -2 175 121 l 175 945 l 164 945 l 164 287 b 442 -13 164 115 238 -13 b 720 287 643 -13 720 115 l 720 861 b 813 954 779 866 813 895 z "},"Ự":{"ha":883,"x_min":0,"x_max":0,"o":"m 813 954 b 793 1057 813 996 804 1029 l 784 1054 b 803 954 795 1026 803 994 b 720 870 803 901 775 876 l 720 945 l 708 945 l 708 288 b 442 -2 708 121 636 -2 b 175 288 247 -2 175 121 l 175 945 l 164 945 l 164 287 b 442 -13 164 115 238 -13 b 720 287 643 -13 720 115 l 720 861 b 813 954 779 866 813 895 z m 442 -145 b 427 -159 432 -145 427 -152 b 442 -173 427 -166 432 -173 b 456 -159 451 -173 456 -166 b 442 -145 456 -152 451 -145 z "},"Ừ":{"ha":883,"x_min":0,"x_max":0,"o":"m 569 1076 l 335 1177 l 329 1166 l 565 1068 z m 813 954 b 793 1057 813 996 804 1029 l 784 1054 b 803 954 795 1026 803 994 b 720 870 803 901 775 876 l 720 945 l 708 945 l 708 288 b 442 -2 708 121 636 -2 b 175 288 247 -2 175 121 l 175 945 l 164 945 l 164 287 b 442 -13 164 115 238 -13 b 720 287 643 -13 720 115 l 720 861 b 813 954 779 866 813 895 z "},"Ử":{"ha":883,"x_min":0,"x_max":0,"o":"m 450 1293 b 530 1222 498 1293 530 1267 b 436 1145 530 1165 488 1148 l 436 1082 l 447 1082 l 447 1137 b 541 1222 500 1142 541 1163 b 451 1303 541 1273 505 1303 b 366 1279 415 1303 388 1291 l 371 1270 b 450 1293 391 1281 417 1293 z m 813 954 b 793 1057 813 996 804 1029 l 784 1054 b 803 954 795 1026 803 994 b 720 870 803 901 775 876 l 720 945 l 708 945 l 708 288 b 442 -2 708 121 636 -2 b 175 288 247 -2 175 121 l 175 945 l 164 945 l 164 287 b 442 -13 164 115 238 -13 b 720 287 643 -13 720 115 l 720 861 b 813 954 779 866 813 895 z "},"Ữ":{"ha":883,"x_min":0,"x_max":0,"o":"m 361 1185 b 519 1124 412 1185 458 1124 b 614 1184 560 1124 585 1141 l 606 1188 b 519 1135 578 1150 556 1135 b 361 1196 461 1135 416 1196 b 268 1141 323 1196 299 1178 l 276 1137 b 361 1185 306 1170 327 1185 z m 813 954 b 793 1057 813 996 804 1029 l 784 1054 b 803 954 795 1026 803 994 b 720 870 803 901 775 876 l 720 945 l 708 945 l 708 288 b 442 -2 708 121 636 -2 b 175 288 247 -2 175 121 l 175 945 l 164 945 l 164 287 b 442 -13 164 115 238 -13 b 720 287 643 -13 720 115 l 720 861 b 813 954 779 866 813 895 z "},"Ű":{"ha":883,"x_min":0,"x_max":0,"o":"m 595 1268 l 501 1094 l 510 1089 l 606 1262 z m 446 1264 l 360 1097 l 368 1093 l 457 1259 z m 720 945 l 708 945 l 708 288 b 442 -2 708 121 636 -2 b 175 288 247 -2 175 121 l 175 945 l 164 945 l 164 287 b 442 -13 164 115 238 -13 b 720 287 643 -13 720 115 z "},"Ȗ":{"ha":883,"x_min":0,"x_max":0,"o":"m 442 1225 b 303 1120 364 1225 318 1179 l 312 1119 b 442 1214 330 1180 375 1214 b 571 1119 508 1214 554 1180 l 580 1120 b 442 1225 565 1179 520 1225 z m 720 945 l 708 945 l 708 288 b 442 -2 708 121 636 -2 b 175 288 247 -2 175 121 l 175 945 l 164 945 l 164 287 b 442 -13 164 115 238 -13 b 720 287 643 -13 720 115 z "},"Ū":{"ha":883,"x_min":0,"x_max":0,"o":"m 577 1130 l 577 1141 l 306 1141 l 306 1130 z m 720 945 l 708 945 l 708 288 b 442 -2 708 121 636 -2 b 175 288 247 -2 175 121 l 175 945 l 164 945 l 164 287 b 442 -13 164 115 238 -13 b 720 287 643 -13 720 115 z "},"Ų":{"ha":883,"x_min":0,"x_max":0,"o":"m 708 945 l 708 288 b 442 -2 708 121 636 -2 b 175 288 247 -2 175 121 l 175 945 l 164 945 l 164 287 b 442 -13 164 115 238 -13 b 501 -9 463 -13 483 -11 b 345 -167 419 -43 345 -91 b 459 -273 345 -235 389 -273 b 533 -262 485 -273 503 -270 l 534 -251 b 460 -262 503 -259 485 -262 b 357 -167 398 -262 357 -229 b 538 -1 357 -83 454 -34 b 720 287 668 34 720 145 l 720 945 z "},"Ʊ":{"ha":956,"x_min":0,"x_max":0,"o":"m 478 -14 b 840 442 701 -14 840 168 b 618 934 840 723 728 865 l 803 934 l 803 945 l 602 945 l 602 933 b 828 442 713 866 828 720 b 478 -3 828 174 694 -3 b 127 440 263 -3 127 174 b 354 933 127 715 239 864 l 354 945 l 153 945 l 153 934 l 338 934 b 115 440 225 864 115 717 b 478 -14 115 168 256 -14 z "},"Ů":{"ha":883,"x_min":0,"x_max":0,"o":"m 442 1269 b 347 1174 384 1269 347 1231 b 442 1080 347 1118 382 1080 b 536 1175 499 1080 536 1118 b 442 1269 536 1231 502 1269 z m 442 1260 b 525 1175 495 1260 525 1227 b 442 1090 525 1124 494 1090 b 358 1174 388 1090 358 1122 b 442 1260 358 1225 389 1260 z m 720 945 l 708 945 l 708 288 b 442 -2 708 121 636 -2 b 175 288 247 -2 175 121 l 175 945 l 164 945 l 164 287 b 442 -13 164 115 238 -13 b 720 287 643 -13 720 115 z "},"Ũ":{"ha":883,"x_min":0,"x_max":0,"o":"m 519 1124 b 614 1184 560 1124 585 1141 l 606 1188 b 519 1135 578 1150 556 1135 b 361 1196 461 1135 416 1196 b 268 1141 323 1196 299 1178 l 276 1137 b 361 1185 306 1170 327 1185 b 519 1124 412 1185 458 1124 z m 720 945 l 708 945 l 708 288 b 442 -2 708 121 636 -2 b 175 288 247 -2 175 121 l 175 945 l 164 945 l 164 287 b 442 -13 164 115 238 -13 b 720 287 643 -13 720 115 z "},"Ṹ":{"ha":883,"x_min":0,"x_max":0,"o":"m 551 1301 l 317 1199 l 321 1191 l 557 1289 z m 520 1054 b 615 1113 561 1054 586 1070 l 608 1117 b 520 1064 579 1079 557 1064 b 362 1125 462 1064 417 1125 b 269 1070 324 1125 300 1107 l 277 1066 b 362 1114 307 1099 328 1114 b 520 1054 413 1114 459 1054 z m 720 945 l 708 945 l 708 288 b 442 -2 708 121 636 -2 b 175 288 247 -2 175 121 l 175 945 l 164 945 l 164 287 b 442 -13 164 115 238 -13 b 720 287 643 -13 720 115 z "},"V":{"ha":731,"x_min":0,"x_max":0,"o":"m 685 945 l 673 945 l 367 11 l 58 945 l 46 945 l 360 0 l 374 0 z "},"Ʋ":{"ha":883,"x_min":0,"x_max":0,"o":"m 626 959 b 555 942 597 959 575 952 l 560 933 b 625 949 577 942 598 949 b 708 841 684 949 708 911 l 708 399 b 411 -2 708 119 589 -2 b 175 252 260 -2 175 93 l 175 945 l 164 945 l 164 252 b 411 -13 164 87 252 -13 b 720 398 595 -13 720 112 l 720 841 b 626 959 720 920 689 959 z "},"Ʌ":{"ha":772,"x_min":0,"x_max":0,"o":"m 392 945 l 379 945 l 46 0 l 57 0 l 385 935 l 715 0 l 727 0 z "},"W":{"ha":1083,"x_min":0,"x_max":0,"o":"m 1024 945 l 1013 945 l 796 13 l 549 945 l 535 945 l 288 12 l 72 945 l 60 945 l 281 0 l 294 0 l 542 934 l 789 0 l 802 0 z "},"Ẃ":{"ha":1083,"x_min":0,"x_max":0,"o":"m 653 1177 l 419 1076 l 423 1068 l 659 1166 z m 1024 945 l 1013 945 l 796 13 l 549 945 l 535 945 l 288 12 l 72 945 l 60 945 l 281 0 l 294 0 l 542 934 l 789 0 l 802 0 z "},"Ŵ":{"ha":1083,"x_min":0,"x_max":0,"o":"m 390 1068 l 541 1177 l 693 1068 l 700 1074 l 544 1189 l 537 1189 l 383 1074 z m 1024 945 l 1012 945 l 796 13 l 549 945 l 535 945 l 288 12 l 72 945 l 60 945 l 281 0 l 294 0 l 542 934 l 789 0 l 802 0 z "},"Ẅ":{"ha":1083,"x_min":0,"x_max":0,"o":"m 434 1143 b 420 1129 425 1143 420 1137 b 434 1115 420 1122 425 1115 b 448 1129 443 1115 448 1122 b 434 1143 448 1137 443 1143 z m 648 1143 b 634 1129 639 1143 634 1137 b 648 1115 634 1122 639 1115 b 662 1129 657 1115 662 1122 b 648 1143 662 1137 657 1143 z m 1024 945 l 1013 945 l 796 13 l 549 945 l 535 945 l 288 12 l 72 945 l 60 945 l 281 0 l 294 0 l 542 934 l 789 0 l 802 0 z "},"Ẁ":{"ha":1083,"x_min":0,"x_max":0,"o":"m 435 1177 l 429 1166 l 665 1068 l 669 1076 z m 1024 945 l 1013 945 l 796 13 l 549 945 l 535 945 l 288 12 l 72 945 l 60 945 l 281 0 l 294 0 l 542 934 l 789 0 l 802 0 z "},"Ⱳ":{"ha":1115,"x_min":0,"x_max":0,"o":"m 60 945 l 72 945 l 288 12 l 535 945 l 549 945 l 796 13 l 985 850 b 1102 959 1002 927 1042 959 b 1210 906 1151 959 1183 938 l 1204 899 b 1102 949 1176 930 1148 949 b 995 846 1046 949 1012 920 l 802 0 l 789 0 l 542 934 l 294 0 l 281 0 z "},"Ƿ":{"ha":769,"x_min":0,"x_max":0,"o":"m 444 959 b 189 842 323 959 246 902 l 189 945 l 178 945 l 178 0 l 189 0 l 189 318 l 349 373 b 682 716 541 438 682 520 b 444 959 682 865 586 959 z m 350 384 l 189 329 l 189 830 b 444 948 248 892 324 948 b 670 716 579 948 670 860 b 350 384 670 526 534 446 z "},"X":{"ha":657,"x_min":0,"x_max":0,"o":"m 334 514 l 587 945 l 574 945 l 327 521 l 327 521 l 79 945 l 67 945 l 319 514 l 26 0 l 39 0 l 326 507 l 327 507 l 617 0 l 630 0 z "},"Y":{"ha":672,"x_min":0,"x_max":0,"o":"m 638 945 l 626 945 l 337 387 l 46 945 l 33 945 l 331 376 l 331 0 l 342 0 l 342 376 z "},"Ý":{"ha":672,"x_min":0,"x_max":0,"o":"m 448 1177 l 214 1076 l 217 1068 l 453 1166 z m 638 945 l 626 945 l 337 387 l 46 945 l 33 945 l 331 376 l 331 0 l 342 0 l 342 376 z "},"Ŷ":{"ha":672,"x_min":0,"x_max":0,"o":"m 184 1068 l 335 1177 l 488 1068 l 495 1074 l 339 1189 l 332 1189 l 178 1074 z m 638 945 l 626 945 l 337 387 l 46 945 l 33 945 l 331 376 l 331 0 l 342 0 l 342 376 z "},"Ÿ":{"ha":672,"x_min":0,"x_max":0,"o":"m 229 1143 b 215 1129 220 1143 215 1137 b 229 1115 215 1122 220 1115 b 243 1129 238 1115 243 1122 b 229 1143 243 1137 238 1143 z m 443 1143 b 428 1129 434 1143 428 1137 b 443 1115 428 1122 434 1115 b 457 1129 451 1115 457 1122 b 443 1143 457 1137 451 1143 z m 638 945 l 626 945 l 337 387 l 46 945 l 33 945 l 331 376 l 331 0 l 342 0 l 342 376 z "},"Ỵ":{"ha":672,"x_min":0,"x_max":0,"o":"m 638 945 l 626 945 l 337 387 l 46 945 l 33 945 l 331 376 l 331 0 l 342 0 l 342 376 z m 337 -173 b 351 -159 346 -173 351 -166 b 337 -145 351 -152 346 -145 b 323 -159 327 -145 323 -152 b 337 -173 323 -166 327 -173 z "},"Ỳ":{"ha":672,"x_min":0,"x_max":0,"o":"m 229 1177 l 223 1166 l 459 1068 l 463 1076 z m 638 945 l 626 945 l 337 387 l 46 945 l 33 945 l 331 376 l 331 0 l 342 0 l 342 376 z "},"Ƴ":{"ha":706,"x_min":0,"x_max":0,"o":"m 331 0 l 342 0 l 342 376 l 568 847 b 689 949 603 922 633 949 b 793 899 737 949 763 930 l 799 906 b 688 959 770 937 740 959 b 558 852 628 959 594 927 l 337 386 l 46 945 l 33 945 l 331 376 z "},"Ỷ":{"ha":672,"x_min":0,"x_max":0,"o":"m 331 1082 l 342 1082 l 342 1137 b 436 1222 395 1142 436 1163 b 345 1303 436 1273 399 1303 b 261 1279 310 1303 283 1291 l 265 1270 b 345 1293 286 1281 312 1293 b 424 1222 393 1293 424 1267 b 331 1145 424 1165 382 1148 z m 638 945 l 626 945 l 337 387 l 46 945 l 33 945 l 331 376 l 331 0 l 342 0 l 342 376 z "},"Ȳ":{"ha":672,"x_min":0,"x_max":0,"o":"m 472 1130 l 472 1141 l 201 1141 l 201 1130 z m 638 945 l 626 945 l 337 387 l 46 945 l 33 945 l 331 376 l 331 0 l 342 0 l 342 376 z "},"Ʀ":{"ha":783,"x_min":0,"x_max":0,"o":"m 698 -191 l 712 -191 l 446 269 b 675 510 563 279 675 345 b 373 754 675 660 595 754 l 189 754 l 189 945 l 178 945 l 178 0 l 189 0 l 189 268 l 433 268 z m 189 279 l 189 743 l 372 743 b 664 510 589 743 664 654 b 417 279 664 345 547 279 z "},"Ɏ":{"ha":672,"x_min":0,"x_max":0,"o":"m 638 945 l 626 945 l 554 805 l 119 805 l 46 945 l 33 945 l 106 805 l 33 805 l 33 796 l 111 796 l 331 376 l 331 0 l 342 0 l 342 376 l 561 796 l 638 796 l 638 805 l 566 805 z m 337 386 l 123 796 l 549 796 z "},"Ỹ":{"ha":672,"x_min":0,"x_max":0,"o":"m 414 1124 b 509 1184 454 1124 479 1141 l 501 1188 b 414 1135 473 1150 451 1135 b 255 1196 355 1135 311 1196 b 162 1141 218 1196 194 1178 l 170 1137 b 255 1185 200 1170 221 1185 b 414 1124 307 1185 352 1124 z m 638 945 l 626 945 l 337 387 l 46 945 l 33 945 l 331 376 l 331 0 l 342 0 l 342 376 z "},"Z":{"ha":703,"x_min":0,"x_max":0,"o":"m 633 945 l 113 945 l 113 934 l 619 934 l 61 11 l 61 0 l 609 0 l 611 11 l 75 11 l 633 935 z "},"Ź":{"ha":703,"x_min":0,"x_max":0,"o":"m 465 1177 l 231 1076 l 234 1068 l 470 1166 z m 633 945 l 113 945 l 113 934 l 619 934 l 61 11 l 61 0 l 609 0 l 611 11 l 75 11 l 633 935 z "},"Ž":{"ha":703,"x_min":0,"x_max":0,"o":"m 505 1181 l 352 1072 l 201 1181 l 195 1175 l 349 1060 l 356 1060 l 512 1175 z m 633 945 l 113 945 l 113 934 l 619 934 l 61 11 l 61 0 l 609 0 l 611 11 l 75 11 l 633 935 z "},"Ż":{"ha":703,"x_min":0,"x_max":0,"o":"m 353 1163 b 339 1149 344 1163 339 1156 b 353 1135 339 1142 344 1135 b 368 1149 363 1135 368 1142 b 353 1163 368 1156 363 1163 z m 633 945 l 113 945 l 113 934 l 619 934 l 61 11 l 61 0 l 609 0 l 611 11 l 75 11 l 633 935 z "},"Ẓ":{"ha":703,"x_min":0,"x_max":0,"o":"m 633 945 l 113 945 l 113 934 l 619 934 l 61 11 l 61 0 l 609 0 l 611 11 l 75 11 l 633 935 z m 358 -173 b 373 -159 367 -173 373 -166 b 358 -145 373 -152 367 -145 b 344 -159 349 -145 344 -152 b 358 -173 344 -166 349 -173 z "},"Ȥ":{"ha":703,"x_min":0,"x_max":0,"o":"m 633 945 l 113 945 l 113 934 l 619 934 l 61 11 l 61 0 l 599 0 l 599 -130 b 487 -258 599 -217 552 -258 b 380 -221 436 -258 406 -242 l 374 -229 b 487 -269 400 -250 434 -269 b 610 -130 560 -269 610 -221 l 610 11 l 75 11 l 633 935 z "},"Ƶ":{"ha":703,"x_min":0,"x_max":0,"o":"m 633 945 l 113 945 l 113 934 l 619 934 l 345 481 l 172 481 l 172 470 l 338 470 l 61 11 l 61 0 l 609 0 l 611 11 l 75 11 l 352 470 l 530 470 l 530 481 l 359 481 l 633 935 z "},"ʙ":{"ha":738,"x_min":0,"x_max":0,"o":"m 440 389 b 588 550 528 396 588 453 b 366 734 588 648 526 734 b 171 712 283 734 218 722 l 171 0 l 363 0 b 629 209 526 0 629 69 b 440 389 629 323 564 387 z m 366 724 b 576 550 522 724 576 641 b 411 394 576 453 516 394 l 182 394 l 182 703 b 366 724 225 713 285 724 z m 363 10 l 182 10 l 182 384 l 416 384 b 618 209 555 384 618 321 b 363 10 618 74 518 10 z "},"ɢ":{"ha":758,"x_min":0,"x_max":0,"o":"m 402 736 b 108 366 254 736 108 613 b 409 -10 108 108 235 -10 b 618 45 498 -10 566 15 l 618 367 l 426 367 l 427 357 l 607 357 l 607 51 b 409 0 559 23 497 0 b 120 366 242 0 120 114 b 402 725 120 609 260 725 b 589 663 478 725 535 703 l 595 671 b 402 736 541 713 482 736 z "},"ʛ":{"ha":758,"x_min":0,"x_max":0,"o":"m 707 1020 b 584 881 634 1020 584 972 l 584 678 b 402 736 532 715 478 736 b 108 366 254 736 108 613 b 408 -10 108 108 235 -10 b 618 45 495 -10 566 15 l 618 367 l 426 367 l 427 357 l 607 357 l 607 51 b 408 0 561 24 497 0 b 120 366 242 0 120 114 b 402 725 120 609 260 725 b 590 664 479 725 534 704 l 595 671 l 595 881 b 707 1009 595 968 641 1009 b 815 972 757 1009 788 993 l 820 980 b 707 1020 795 1001 761 1020 z "},"ʜ":{"ha":804,"x_min":0,"x_max":0,"o":"m 623 0 l 634 0 l 634 719 l 623 719 l 623 383 l 182 383 l 182 719 l 171 719 l 171 0 l 182 0 l 182 373 l 623 373 z "},"ɪ":{"ha":431,"x_min":0,"x_max":0,"o":"m 378 709 l 378 719 l 53 719 l 53 709 l 209 709 l 209 11 l 53 11 l 53 0 l 378 0 l 378 11 l 221 11 l 221 709 z "},"ʟ":{"ha":551,"x_min":0,"x_max":0,"o":"m 182 719 l 171 719 l 171 0 l 525 0 l 526 11 l 182 11 z "},"ɴ":{"ha":806,"x_min":0,"x_max":0,"o":"m 634 719 l 623 719 l 623 184 b 624 12 623 123 624 59 l 186 719 l 171 719 l 171 0 l 181 0 l 181 558 b 181 708 181 633 181 675 l 619 0 l 634 0 z "},"ɶ":{"ha":1006,"x_min":0,"x_max":0,"o":"m 927 11 l 493 11 b 672 378 599 54 672 179 l 864 378 l 864 388 l 672 388 b 499 708 670 544 603 664 l 915 708 l 916 719 l 476 719 b 390 733 452 727 425 733 b 108 359 220 733 108 599 b 388 -13 108 126 214 -13 b 472 0 422 -13 449 -8 l 927 0 z m 120 359 b 390 722 120 593 227 722 b 661 380 552 722 661 581 b 388 -2 661 140 555 -2 b 120 359 221 -2 120 133 z "},"ʀ":{"ha":722,"x_min":0,"x_max":0,"o":"m 616 0 l 401 342 b 588 528 499 350 588 404 b 325 719 588 646 517 719 l 171 719 l 171 0 l 182 0 l 182 341 l 381 341 b 388 341 383 341 386 341 l 602 0 z m 374 351 l 182 351 l 182 708 l 324 708 b 577 528 512 708 577 640 b 374 351 577 401 478 351 z "},"ʁ":{"ha":722,"x_min":0,"x_max":0,"o":"m 401 377 l 616 719 l 602 719 l 388 378 b 381 378 386 378 383 378 l 182 378 l 182 719 l 171 719 l 171 0 l 325 0 b 588 195 517 0 588 73 b 401 377 588 314 508 369 z m 324 11 l 182 11 l 182 368 l 374 368 b 577 195 488 368 577 315 b 324 11 577 79 512 11 z "},"ʏ":{"ha":547,"x_min":0,"x_max":0,"o":"m 522 719 l 510 719 l 275 304 l 37 719 l 25 719 l 270 294 l 270 0 l 281 0 l 281 294 z "},"a":{"ha":729,"x_min":0,"x_max":0,"o":"m 555 153 l 555 517 b 353 733 555 652 500 733 b 147 686 288 733 222 717 l 151 676 b 353 722 226 707 289 722 b 544 516 495 722 544 645 l 544 424 l 374 424 b 96 201 203 424 96 343 b 306 -13 96 76 171 -13 b 545 140 421 -13 495 41 b 623 -13 545 45 564 6 l 626 -4 b 555 153 570 13 555 53 z m 306 -2 b 107 201 179 -2 107 81 b 376 413 107 337 210 413 l 544 413 l 544 155 b 306 -2 494 55 425 -2 z "},"á":{"ha":729,"x_min":0,"x_max":0,"o":"m 461 1031 l 456 1042 l 220 925 l 224 916 z m 555 153 l 555 517 b 353 733 555 652 500 733 b 147 686 288 733 222 717 l 151 676 b 353 722 226 707 289 722 b 544 516 495 722 544 645 l 544 424 l 374 424 b 96 201 203 424 96 343 b 306 -13 96 76 171 -13 b 545 140 421 -13 495 41 b 623 -13 545 45 564 6 l 626 -4 b 555 153 570 13 555 53 z m 306 -2 b 107 201 179 -2 107 81 b 376 413 107 337 210 413 l 544 413 l 544 155 b 306 -2 494 55 425 -2 z "},"ă":{"ha":729,"x_min":0,"x_max":0,"o":"m 349 924 b 487 1028 427 924 473 970 l 479 1030 b 349 934 461 969 415 934 b 219 1030 283 934 237 969 l 211 1028 b 349 924 225 970 271 924 z m 555 153 l 555 517 b 353 733 555 652 500 733 b 147 686 288 733 222 717 l 151 676 b 353 722 226 707 289 722 b 544 516 495 722 544 645 l 544 424 l 374 424 b 96 201 203 424 96 343 b 306 -13 96 76 171 -13 b 545 140 422 -13 495 41 b 623 -13 545 45 564 6 l 626 -4 b 555 153 570 13 555 53 z m 306 -2 b 107 201 179 -2 107 81 b 376 413 107 337 210 413 l 544 413 l 544 155 b 306 -2 494 55 425 -2 z "},"ắ":{"ha":729,"x_min":0,"x_max":0,"o":"m 469 1105 l 460 1114 l 333 959 l 340 954 z m 349 825 b 487 916 427 825 473 870 l 479 918 b 349 836 461 871 415 836 b 219 918 283 836 237 871 l 211 916 b 349 825 225 870 271 825 z m 555 153 l 555 517 b 353 733 555 652 500 733 b 147 686 288 733 222 717 l 151 676 b 353 722 226 707 289 722 b 544 516 495 722 544 645 l 544 424 l 374 424 b 96 201 203 424 96 343 b 306 -13 96 76 171 -13 b 545 140 422 -13 495 41 b 623 -13 545 45 564 6 l 626 -4 b 555 153 570 13 555 53 z m 306 -2 b 107 201 179 -2 107 81 b 376 413 107 337 210 413 l 544 413 l 544 155 b 306 -2 494 55 425 -2 z "},"ặ":{"ha":729,"x_min":0,"x_max":0,"o":"m 349 924 b 487 1028 427 924 473 970 l 479 1030 b 349 934 461 969 415 934 b 219 1030 283 934 237 969 l 211 1028 b 349 924 225 970 271 924 z m 555 153 l 555 517 b 353 733 555 652 500 733 b 147 686 288 733 222 717 l 151 676 b 353 722 226 707 289 722 b 544 516 495 722 544 645 l 544 424 l 374 424 b 96 201 203 424 96 343 b 306 -13 96 76 171 -13 b 545 140 422 -13 495 41 b 623 -13 545 45 564 6 l 626 -4 b 555 153 570 13 555 53 z m 306 -2 b 107 201 179 -2 107 81 b 376 413 107 337 210 413 l 544 413 l 544 155 b 306 -2 494 55 425 -2 z m 349 -145 b 335 -159 340 -145 335 -152 b 349 -173 335 -166 340 -173 b 363 -159 358 -173 363 -166 b 349 -145 363 -152 358 -145 z "},"ằ":{"ha":729,"x_min":0,"x_max":0,"o":"m 372 959 l 245 1114 l 236 1105 l 365 954 z m 349 825 b 487 916 427 825 473 870 l 479 918 b 349 836 461 871 415 836 b 219 918 283 836 237 871 l 211 916 b 349 825 225 870 271 825 z m 555 153 l 555 517 b 353 733 555 652 500 733 b 147 686 288 733 222 717 l 151 676 b 353 722 226 707 289 722 b 544 516 495 722 544 645 l 544 424 l 374 424 b 96 201 203 424 96 343 b 306 -13 96 76 171 -13 b 545 140 422 -13 495 41 b 623 -13 545 45 564 6 l 626 -4 b 555 153 570 13 555 53 z m 306 -2 b 107 201 179 -2 107 81 b 376 413 107 337 210 413 l 544 413 l 544 155 b 306 -2 494 55 425 -2 z "},"ẳ":{"ha":729,"x_min":0,"x_max":0,"o":"m 356 1162 b 436 1091 404 1162 436 1137 b 342 1014 436 1033 394 1018 l 342 927 l 353 927 l 353 1006 b 447 1092 406 1011 447 1031 b 357 1173 447 1142 411 1173 b 273 1148 321 1173 294 1161 l 277 1140 b 356 1162 298 1151 323 1162 z m 349 825 b 487 916 427 825 473 870 l 479 918 b 349 836 461 871 415 836 b 219 918 283 836 237 871 l 211 916 b 349 825 225 870 271 825 z m 555 153 l 555 517 b 353 733 555 652 500 733 b 147 686 288 733 222 717 l 151 676 b 353 722 226 707 289 722 b 544 516 495 722 544 645 l 544 424 l 374 424 b 96 201 203 424 96 343 b 306 -13 96 76 171 -13 b 545 140 422 -13 495 41 b 623 -13 545 45 564 6 l 626 -4 b 555 153 570 13 555 53 z m 306 -2 b 107 201 179 -2 107 81 b 376 413 107 337 210 413 l 544 413 l 544 155 b 306 -2 494 55 425 -2 z "},"ẵ":{"ha":729,"x_min":0,"x_max":0,"o":"m 270 1070 b 429 1009 321 1070 367 1009 b 524 1068 469 1009 494 1026 l 516 1073 b 429 1020 487 1035 465 1020 b 270 1080 370 1020 325 1080 b 177 1026 233 1080 208 1063 l 185 1022 b 270 1070 215 1055 236 1070 z m 351 836 b 221 918 285 836 239 871 l 213 916 b 351 825 227 870 273 825 b 489 916 429 825 475 870 l 481 918 b 351 836 463 871 417 836 z m 555 153 l 555 517 b 353 733 555 652 500 733 b 147 686 288 733 222 717 l 151 676 b 353 722 226 707 289 722 b 544 516 495 722 544 645 l 544 424 l 374 424 b 96 201 203 424 96 343 b 306 -13 96 76 171 -13 b 545 140 422 -13 495 41 b 623 -13 545 45 564 6 l 626 -4 b 555 153 570 13 555 53 z m 306 -2 b 107 201 179 -2 107 81 b 376 413 107 337 210 413 l 544 413 l 544 155 b 306 -2 494 55 425 -2 z "},"ǎ":{"ha":729,"x_min":0,"x_max":0,"o":"m 352 897 l 508 1018 l 502 1025 l 349 909 l 198 1025 l 192 1018 l 346 897 z m 555 153 l 555 517 b 353 733 555 652 500 733 b 147 686 288 733 222 717 l 151 676 b 353 722 226 707 289 722 b 544 516 495 722 544 645 l 544 424 l 374 424 b 96 201 203 424 96 343 b 306 -13 96 76 171 -13 b 545 140 421 -13 495 41 b 623 -13 545 45 564 6 l 626 -4 b 555 153 570 13 555 53 z m 306 -2 b 107 201 179 -2 107 81 b 376 413 107 337 210 413 l 544 413 l 544 155 b 306 -2 494 55 425 -2 z "},"â":{"ha":729,"x_min":0,"x_max":0,"o":"m 350 1030 l 501 914 l 507 920 l 353 1042 l 346 1042 l 190 920 l 197 914 z m 555 153 l 555 517 b 353 733 555 652 500 733 b 147 686 288 733 222 717 l 151 676 b 353 722 226 707 289 722 b 544 516 495 722 544 645 l 544 424 l 374 424 b 96 201 203 424 96 343 b 306 -13 96 76 171 -13 b 545 140 421 -13 495 41 b 623 -13 545 45 564 6 l 626 -4 b 555 153 570 13 555 53 z m 306 -2 b 107 201 179 -2 107 81 b 376 413 107 337 210 413 l 544 413 l 544 155 b 306 -2 494 55 425 -2 z "},"ấ":{"ha":729,"x_min":0,"x_max":0,"o":"m 593 1079 l 584 1088 l 457 934 l 464 928 z m 347 927 l 499 818 l 506 824 l 350 939 l 343 939 l 189 824 l 196 818 z m 555 153 l 555 517 b 353 733 555 652 500 733 b 147 686 288 733 222 717 l 151 676 b 353 722 226 707 289 722 b 544 516 495 722 544 645 l 544 424 l 374 424 b 96 201 203 424 96 343 b 306 -13 96 76 171 -13 b 545 140 421 -13 495 41 b 623 -13 545 45 564 6 l 626 -4 b 555 153 570 13 555 53 z m 306 -2 b 107 201 179 -2 107 81 b 376 413 107 337 210 413 l 544 413 l 544 155 b 306 -2 494 55 425 -2 z "},"ậ":{"ha":729,"x_min":0,"x_max":0,"o":"m 350 1030 l 501 914 l 507 920 l 353 1042 l 346 1042 l 190 920 l 197 914 z m 555 153 l 555 517 b 353 733 555 652 500 733 b 147 686 288 733 222 717 l 151 676 b 353 722 226 707 289 722 b 544 516 495 722 544 645 l 544 424 l 374 424 b 96 201 203 424 96 343 b 306 -13 96 76 171 -13 b 545 140 421 -13 495 41 b 623 -13 545 45 564 6 l 626 -4 b 555 153 570 13 555 53 z m 306 -2 b 107 201 179 -2 107 81 b 376 413 107 337 210 413 l 544 413 l 544 155 b 306 -2 494 55 425 -2 z m 349 -145 b 335 -159 340 -145 335 -152 b 349 -173 335 -166 340 -173 b 363 -159 358 -173 363 -166 b 349 -145 363 -152 358 -145 z "},"ầ":{"ha":729,"x_min":0,"x_max":0,"o":"m 237 934 l 111 1088 l 101 1079 l 230 928 z m 196 818 l 347 927 l 499 818 l 506 824 l 350 939 l 343 939 l 189 824 z m 555 153 l 555 517 b 353 733 555 652 500 733 b 147 686 288 733 222 717 l 151 676 b 353 722 226 707 289 722 b 544 516 495 722 544 645 l 544 424 l 374 424 b 96 201 203 424 96 343 b 306 -13 96 76 171 -13 b 545 140 421 -13 495 41 b 623 -13 545 45 564 6 l 626 -4 b 555 153 570 13 555 53 z m 306 -2 b 107 201 179 -2 107 81 b 376 413 107 337 210 413 l 544 413 l 544 155 b 306 -2 494 55 425 -2 z "},"ẩ":{"ha":729,"x_min":0,"x_max":0,"o":"m 476 1151 b 555 1080 524 1151 555 1125 b 462 1003 555 1022 514 1007 l 462 915 l 473 915 l 473 995 b 567 1080 526 1000 567 1020 b 477 1161 567 1131 531 1161 b 392 1137 441 1161 414 1149 l 397 1128 b 476 1151 417 1140 443 1151 z m 347 927 l 500 818 l 506 824 l 350 939 l 343 939 l 189 824 l 196 818 z m 555 153 l 555 517 b 353 733 555 652 500 733 b 147 686 288 733 222 717 l 151 676 b 353 722 226 707 289 722 b 544 516 495 722 544 645 l 544 424 l 374 424 b 96 201 203 424 96 343 b 306 -13 96 76 171 -13 b 545 140 421 -13 495 41 b 623 -13 545 45 564 6 l 626 -4 b 555 153 570 13 555 53 z m 306 -2 b 107 201 179 -2 107 81 b 376 413 107 337 210 413 l 544 413 l 544 155 b 306 -2 494 55 425 -2 z "},"ẫ":{"ha":729,"x_min":0,"x_max":0,"o":"m 266 1058 b 424 997 317 1058 363 997 b 519 1056 465 997 490 1014 l 511 1060 b 424 1007 483 1023 461 1007 b 266 1068 366 1007 321 1068 b 173 1014 228 1068 204 1050 l 181 1009 b 266 1058 211 1043 232 1058 z m 343 930 l 189 816 l 196 810 l 347 918 l 500 810 l 506 816 l 350 930 z m 555 153 l 555 517 b 353 733 555 652 500 733 b 147 686 288 733 222 717 l 151 676 b 353 722 226 707 289 722 b 544 516 495 722 544 645 l 544 424 l 374 424 b 96 201 203 424 96 343 b 306 -13 96 76 171 -13 b 545 140 421 -13 495 41 b 623 -13 545 45 564 6 l 626 -4 b 555 153 570 13 555 53 z m 306 -2 b 107 201 179 -2 107 81 b 376 413 107 337 210 413 l 544 413 l 544 155 b 306 -2 494 55 425 -2 z "},"ȁ":{"ha":729,"x_min":0,"x_max":0,"o":"m 289 919 l 195 1093 l 184 1087 l 280 914 z m 430 922 l 344 1089 l 332 1084 l 421 918 z m 555 153 l 555 517 b 353 733 555 652 500 733 b 147 686 288 733 222 717 l 151 676 b 353 722 226 707 289 722 b 544 516 495 722 544 645 l 544 424 l 374 424 b 96 201 203 424 96 343 b 306 -13 96 76 171 -13 b 545 140 421 -13 495 41 b 623 -13 545 45 564 6 l 626 -4 b 555 153 570 13 555 53 z m 306 -2 b 107 201 179 -2 107 81 b 376 413 107 337 210 413 l 544 413 l 544 155 b 306 -2 494 55 425 -2 z "},"ä":{"ha":729,"x_min":0,"x_max":0,"o":"m 241 940 b 256 954 250 940 256 947 b 241 968 256 962 250 968 b 227 954 232 968 227 962 b 241 940 227 947 232 940 z m 455 940 b 469 954 464 940 469 947 b 455 968 469 962 464 968 b 441 954 446 968 441 962 b 455 940 441 947 446 940 z m 555 153 l 555 517 b 353 733 555 652 500 733 b 147 686 288 733 222 717 l 151 676 b 353 722 226 707 289 722 b 544 516 495 722 544 645 l 544 424 l 374 424 b 96 201 203 424 96 343 b 306 -13 96 76 171 -13 b 545 140 421 -13 495 41 b 623 -13 545 45 564 6 l 626 -4 b 555 153 570 13 555 53 z m 306 -2 b 107 201 179 -2 107 81 b 376 413 107 337 210 413 l 544 413 l 544 155 b 306 -2 494 55 425 -2 z "},"ǟ":{"ha":729,"x_min":0,"x_max":0,"o":"m 485 1046 l 214 1046 l 214 1035 l 485 1035 z m 229 913 b 243 899 229 905 234 899 b 257 913 252 899 257 905 b 243 927 257 920 252 927 b 229 913 234 927 229 920 z m 442 913 b 457 899 442 905 448 899 b 471 913 466 899 471 905 b 457 927 471 920 466 927 b 442 913 448 927 442 920 z m 555 153 l 555 517 b 353 733 555 652 500 733 b 147 686 288 733 222 717 l 151 676 b 353 722 226 707 289 722 b 544 516 495 722 544 645 l 544 424 l 374 424 b 96 201 203 424 96 343 b 306 -13 96 76 171 -13 b 545 140 421 -13 495 41 b 623 -13 545 45 564 6 l 626 -4 b 555 153 570 13 555 53 z m 306 -2 b 107 201 179 -2 107 81 b 376 413 107 337 210 413 l 544 413 l 544 155 b 306 -2 494 55 425 -2 z "},"ȧ":{"ha":729,"x_min":0,"x_max":0,"o":"m 349 960 b 363 974 358 960 363 967 b 349 988 363 981 358 988 b 335 974 340 988 335 981 b 349 960 335 967 340 960 z m 555 153 l 555 517 b 353 733 555 652 500 733 b 147 686 288 733 222 717 l 151 676 b 353 722 226 707 289 722 b 544 516 495 722 544 645 l 544 424 l 374 424 b 96 201 203 424 96 343 b 306 -13 96 76 171 -13 b 545 140 421 -13 495 41 b 623 -13 545 45 564 6 l 626 -4 b 555 153 570 13 555 53 z m 306 -2 b 107 201 179 -2 107 81 b 376 413 107 337 210 413 l 544 413 l 544 155 b 306 -2 494 55 425 -2 z "},"ạ":{"ha":729,"x_min":0,"x_max":0,"o":"m 555 153 l 555 517 b 353 733 555 652 500 733 b 147 686 288 733 222 717 l 151 676 b 353 722 226 707 289 722 b 544 516 495 722 544 645 l 544 424 l 374 424 b 96 201 203 424 96 343 b 306 -13 96 76 171 -13 b 545 140 421 -13 495 41 b 623 -13 545 45 564 6 l 626 -4 b 555 153 570 13 555 53 z m 306 -2 b 107 201 179 -2 107 81 b 376 413 107 337 210 413 l 544 413 l 544 155 b 306 -2 494 55 425 -2 z m 349 -145 b 335 -159 340 -145 335 -152 b 349 -173 335 -166 340 -173 b 363 -159 358 -173 363 -166 b 349 -145 363 -152 358 -145 z "},"ǡ":{"ha":729,"x_min":0,"x_max":0,"o":"m 485 1036 l 213 1036 l 213 1025 l 485 1025 z m 335 894 b 349 880 335 887 340 880 b 363 894 358 880 363 887 b 349 908 363 901 358 908 b 335 894 340 908 335 901 z m 555 153 l 555 517 b 353 733 555 652 500 733 b 147 686 288 733 222 717 l 151 676 b 353 722 226 707 289 722 b 544 516 495 722 544 645 l 544 424 l 374 424 b 96 201 203 424 96 343 b 306 -13 96 76 171 -13 b 545 140 421 -13 495 41 b 623 -13 545 45 564 6 l 626 -4 b 555 153 570 13 555 53 z m 306 -2 b 107 201 179 -2 107 81 b 376 413 107 337 210 413 l 544 413 l 544 155 b 306 -2 494 55 425 -2 z "},"à":{"ha":729,"x_min":0,"x_max":0,"o":"m 475 925 l 239 1042 l 234 1031 l 470 916 z m 555 153 l 555 517 b 353 733 555 652 500 733 b 147 686 288 733 222 717 l 151 676 b 353 722 226 707 289 722 b 544 516 495 722 544 645 l 544 424 l 374 424 b 96 201 203 424 96 343 b 306 -13 96 76 171 -13 b 545 140 421 -13 495 41 b 623 -13 545 45 564 6 l 626 -4 b 555 153 570 13 555 53 z m 306 -2 b 107 201 179 -2 107 81 b 376 413 107 337 210 413 l 544 413 l 544 155 b 306 -2 494 55 425 -2 z "},"ả":{"ha":729,"x_min":0,"x_max":0,"o":"m 354 1102 b 434 1031 402 1102 434 1077 b 340 954 434 974 392 958 l 340 867 l 351 867 l 351 947 b 445 1032 404 951 445 971 b 355 1113 445 1082 409 1113 b 270 1088 319 1113 292 1101 l 275 1080 b 354 1102 295 1091 321 1102 z m 555 153 l 555 517 b 353 733 555 652 500 733 b 147 686 288 733 222 717 l 151 676 b 353 722 226 707 289 722 b 544 516 495 722 544 645 l 544 424 l 374 424 b 96 201 203 424 96 343 b 306 -13 96 76 171 -13 b 545 140 421 -13 495 41 b 623 -13 545 45 564 6 l 626 -4 b 555 153 570 13 555 53 z m 306 -2 b 107 201 179 -2 107 81 b 376 413 107 337 210 413 l 544 413 l 544 155 b 306 -2 494 55 425 -2 z "},"ȃ":{"ha":729,"x_min":0,"x_max":0,"o":"m 349 988 b 479 893 415 988 461 954 l 487 894 b 349 999 473 953 427 999 b 211 894 271 999 225 953 l 219 893 b 349 988 237 954 283 988 z m 555 153 l 555 517 b 353 733 555 652 500 733 b 147 686 288 733 222 717 l 151 676 b 353 722 226 707 289 722 b 544 516 495 722 544 645 l 544 424 l 374 424 b 96 201 203 424 96 343 b 306 -13 96 76 171 -13 b 545 140 421 -13 495 41 b 623 -13 545 45 564 6 l 626 -4 b 555 153 570 13 555 53 z m 306 -2 b 107 201 179 -2 107 81 b 376 413 107 337 210 413 l 544 413 l 544 155 b 306 -2 494 55 425 -2 z "},"ɑ":{"ha":794,"x_min":0,"x_max":0,"o":"m 618 137 l 618 719 l 608 719 l 607 598 b 386 733 572 663 500 733 b 108 357 215 733 108 580 b 374 -13 108 122 210 -13 b 607 135 493 -13 560 53 b 688 -6 607 54 625 21 l 692 4 b 618 137 634 28 618 59 z m 374 -2 b 120 357 216 -2 120 129 b 386 722 119 575 225 722 b 607 583 498 722 569 653 l 607 153 b 374 -2 558 62 491 -2 z "},"ɒ":{"ha":794,"x_min":0,"x_max":0,"o":"m 421 732 b 188 585 302 732 234 666 b 106 725 188 666 170 698 l 103 715 b 177 583 161 692 177 660 l 177 0 l 187 0 l 188 121 b 409 -13 223 56 295 -13 b 687 362 580 -13 687 140 b 421 732 687 598 585 732 z m 409 -3 b 188 136 297 -3 226 66 l 188 567 b 421 722 237 657 304 722 b 675 362 579 722 675 591 b 409 -3 675 144 570 -3 z "},"ā":{"ha":729,"x_min":0,"x_max":0,"o":"m 485 966 l 213 966 l 213 955 l 485 955 z m 555 153 l 555 517 b 353 733 555 652 500 733 b 147 686 288 733 222 717 l 151 676 b 353 722 226 707 289 722 b 544 516 495 722 544 645 l 544 424 l 374 424 b 96 201 203 424 96 343 b 306 -13 96 76 171 -13 b 545 140 421 -13 495 41 b 623 -13 545 45 564 6 l 626 -4 b 555 153 570 13 555 53 z m 306 -2 b 107 201 179 -2 107 81 b 376 413 107 337 210 413 l 544 413 l 544 155 b 306 -2 494 55 425 -2 z "},"ą":{"ha":729,"x_min":0,"x_max":0,"o":"m 623 -13 l 626 -4 b 555 153 570 13 555 53 l 555 517 b 353 733 555 652 500 733 b 147 686 288 733 222 717 l 151 676 b 353 722 226 707 289 722 b 544 516 495 722 544 645 l 544 424 l 374 424 b 96 201 203 424 96 343 b 306 -13 96 76 171 -13 b 545 140 421 -13 495 41 b 612 -9 545 51 562 11 b 427 -184 520 -44 427 -95 b 541 -286 427 -248 469 -286 b 615 -275 567 -286 585 -283 l 616 -264 b 541 -275 586 -272 566 -275 b 439 -184 477 -275 439 -242 b 623 -13 439 -94 539 -45 z m 306 -2 b 107 201 179 -2 107 81 b 376 413 107 337 210 413 l 544 413 l 544 155 b 306 -2 494 55 425 -2 z "},"å":{"ha":729,"x_min":0,"x_max":0,"o":"m 349 905 b 443 1000 407 905 443 943 b 349 1094 443 1056 409 1094 b 255 999 291 1094 255 1056 b 349 905 255 943 289 905 z m 349 1085 b 433 1000 403 1085 433 1052 b 349 915 433 949 401 915 b 265 999 295 915 265 947 b 349 1085 265 1050 297 1085 z m 555 153 l 555 517 b 353 733 555 652 500 733 b 147 686 288 733 222 717 l 151 676 b 353 722 226 707 289 722 b 544 516 495 722 544 645 l 544 424 l 374 424 b 96 201 203 424 96 343 b 306 -13 96 76 171 -13 b 545 140 421 -13 495 41 b 623 -13 545 45 564 6 l 626 -4 b 555 153 570 13 555 53 z m 306 -2 b 107 201 179 -2 107 81 b 376 413 107 337 210 413 l 544 413 l 544 155 b 306 -2 494 55 425 -2 z "},"ǻ":{"ha":729,"x_min":0,"x_max":0,"o":"m 468 1137 l 463 1149 l 229 1048 l 233 1039 z m 255 908 b 349 814 255 852 289 814 b 444 909 407 814 444 852 b 349 1003 444 964 409 1003 b 255 908 292 1003 255 964 z m 433 909 b 349 823 433 858 402 823 b 266 908 296 823 266 856 b 349 993 266 958 297 993 b 433 909 403 993 433 961 z m 555 153 l 555 517 b 353 733 555 652 500 733 b 147 686 288 733 222 717 l 151 676 b 353 722 226 707 289 722 b 544 516 495 722 544 645 l 544 424 l 374 424 b 96 201 203 424 96 343 b 306 -13 96 76 171 -13 b 545 140 421 -13 495 41 b 623 -13 545 45 564 6 l 626 -4 b 555 153 570 13 555 53 z m 306 -2 b 107 201 179 -2 107 81 b 376 413 107 337 210 413 l 544 413 l 544 155 b 306 -2 494 55 425 -2 z "},"ⱥ":{"ha":729,"x_min":0,"x_max":0,"o":"m 555 153 l 555 517 b 467 709 555 609 529 676 l 493 806 l 485 808 l 459 713 b 353 733 431 726 396 733 b 147 686 288 733 222 717 l 151 676 b 353 722 226 707 289 722 b 456 703 395 722 429 715 l 379 424 l 374 424 b 96 201 203 424 96 343 b 260 -9 96 91 154 9 l 240 -81 l 249 -83 l 269 -10 b 306 -13 281 -12 293 -13 b 545 140 421 -13 495 41 b 623 -13 545 45 564 6 l 626 -4 b 555 153 570 13 555 53 z m 464 698 b 544 516 522 666 544 603 l 544 424 l 388 424 z m 107 201 b 376 413 107 337 210 413 l 376 413 l 263 1 b 107 201 163 18 107 96 z m 306 -2 b 272 0 294 -2 283 -2 l 385 413 l 544 413 l 544 155 b 306 -2 494 55 425 -2 z "},"ã":{"ha":729,"x_min":0,"x_max":0,"o":"m 271 1010 b 430 949 323 1010 368 949 b 525 1009 470 949 495 966 l 517 1013 b 430 960 489 975 467 960 b 271 1021 371 960 327 1021 b 178 966 234 1021 210 1003 l 186 962 b 271 1010 216 995 237 1010 z m 555 153 l 555 517 b 353 733 555 652 500 733 b 147 686 288 733 222 717 l 151 676 b 353 722 226 707 289 722 b 544 516 495 722 544 645 l 544 424 l 374 424 b 96 201 203 424 96 343 b 306 -13 96 76 171 -13 b 545 140 421 -13 495 41 b 623 -13 545 45 564 6 l 626 -4 b 555 153 570 13 555 53 z m 306 -2 b 107 201 179 -2 107 81 b 376 413 107 337 210 413 l 544 413 l 544 155 b 306 -2 494 55 425 -2 z "},"ɐ":{"ha":729,"x_min":0,"x_max":0,"o":"m 375 -3 b 185 204 234 -3 185 75 l 185 296 l 355 296 b 633 518 525 296 633 376 b 422 732 633 643 557 732 b 184 580 307 732 233 679 b 106 732 183 675 164 713 l 103 724 b 174 567 159 706 174 667 l 174 203 b 375 -13 174 67 228 -13 b 582 34 441 -13 506 2 l 578 44 b 375 -3 503 13 439 -3 z m 422 722 b 621 518 550 722 621 638 b 353 306 621 383 519 306 l 185 306 l 185 564 b 422 722 234 665 304 722 z "},"æ":{"ha":1169,"x_min":0,"x_max":0,"o":"m 1068 399 b 819 733 1068 591 990 733 b 555 473 681 733 586 640 l 555 517 b 353 733 555 652 500 733 b 147 686 288 733 222 717 l 151 676 b 353 722 226 707 289 722 b 544 516 495 722 544 645 l 544 424 l 374 424 b 96 201 203 424 96 343 b 306 -13 96 76 171 -13 b 573 166 423 -13 498 40 b 821 -13 616 50 704 -13 b 1037 70 914 -13 974 18 l 1031 79 b 821 -2 968 27 910 -2 b 555 348 663 -2 557 119 l 1066 348 b 1068 399 1068 366 1068 379 z m 1056 358 l 555 358 b 819 722 557 592 661 722 b 1057 402 984 722 1057 584 b 1056 358 1057 383 1057 374 z m 306 -2 b 107 201 179 -2 107 81 b 376 413 107 337 210 413 l 544 413 l 544 352 b 569 178 544 286 553 227 b 306 -2 495 55 425 -2 z "},"ǽ":{"ha":1169,"x_min":0,"x_max":0,"o":"m 697 1031 l 692 1042 l 456 925 l 461 916 z m 1068 399 b 819 733 1068 591 990 733 b 555 473 681 733 586 640 l 555 517 b 353 733 555 652 500 733 b 147 686 288 733 222 717 l 151 676 b 353 722 226 707 289 722 b 544 516 495 722 544 645 l 544 424 l 374 424 b 96 201 203 424 96 343 b 306 -13 96 76 171 -13 b 573 166 423 -13 498 40 b 821 -13 616 50 704 -13 b 1037 70 914 -13 974 18 l 1031 79 b 821 -2 968 27 910 -2 b 555 348 663 -2 557 119 l 1066 348 b 1068 399 1068 366 1068 379 z m 1056 358 l 555 358 b 819 722 557 592 661 722 b 1057 402 984 722 1057 584 b 1056 358 1057 383 1057 374 z m 306 -2 b 107 201 179 -2 107 81 b 376 413 107 337 210 413 l 544 413 l 544 352 b 569 178 544 286 553 227 b 306 -2 495 55 425 -2 z "},"ǣ":{"ha":1169,"x_min":0,"x_max":0,"o":"m 721 966 l 450 966 l 450 955 l 721 955 z m 1068 399 b 819 733 1068 591 990 733 b 555 473 681 733 586 640 l 555 517 b 353 733 555 652 500 733 b 147 686 288 733 222 717 l 151 676 b 353 722 226 707 289 722 b 544 516 495 722 544 645 l 544 424 l 374 424 b 96 201 203 424 96 343 b 306 -13 96 76 171 -13 b 573 166 423 -13 498 40 b 821 -13 616 50 704 -13 b 1037 70 914 -13 974 18 l 1031 79 b 821 -2 968 27 910 -2 b 555 348 663 -2 557 119 l 1066 348 b 1068 399 1068 366 1068 379 z m 1056 358 l 555 358 b 819 722 557 592 661 722 b 1057 402 984 722 1057 584 b 1056 358 1057 383 1057 374 z m 306 -2 b 107 201 179 -2 107 81 b 376 413 107 337 210 413 l 544 413 l 544 352 b 569 178 544 286 553 227 b 306 -2 495 55 425 -2 z "},"b":{"ha":789,"x_min":0,"x_max":0,"o":"m 424 733 b 182 591 312 733 239 672 l 182 1016 l 171 1015 l 171 0 l 181 0 l 182 129 b 418 -13 235 47 309 -13 b 673 367 586 -13 673 133 b 424 733 673 599 587 733 z m 417 -2 b 182 143 311 -2 238 56 l 182 578 b 424 722 245 665 313 722 b 662 367 580 722 662 594 b 417 -2 662 137 578 -2 z "},"ḃ":{"ha":789,"x_min":0,"x_max":0,"o":"m 403 1202 b 417 1216 412 1202 417 1209 b 403 1230 417 1223 412 1230 b 389 1216 394 1230 389 1223 b 403 1202 389 1209 394 1202 z m 424 733 b 182 591 312 733 239 672 l 182 1016 l 171 1015 l 171 0 l 181 0 l 182 129 b 418 -13 235 47 309 -13 b 673 367 586 -13 673 133 b 424 733 673 599 587 733 z m 417 -2 b 182 143 311 -2 238 56 l 182 578 b 424 722 245 665 313 722 b 662 367 580 722 662 594 b 417 -2 662 137 578 -2 z "},"ḅ":{"ha":789,"x_min":0,"x_max":0,"o":"m 424 733 b 182 591 312 733 239 672 l 182 1016 l 171 1015 l 171 0 l 181 0 l 182 129 b 418 -13 235 47 309 -13 b 673 367 586 -13 673 133 b 424 733 673 599 587 733 z m 417 -2 b 182 143 311 -2 238 56 l 182 578 b 424 722 245 665 313 722 b 662 367 580 722 662 594 b 417 -2 662 137 578 -2 z m 399 -145 b 384 -159 389 -145 384 -152 b 399 -173 384 -166 389 -173 b 413 -159 408 -173 413 -166 b 399 -145 413 -152 408 -145 z "},"ꞵ":{"ha":790,"x_min":0,"x_max":0,"o":"m 422 554 b 643 791 553 564 643 645 b 416 1020 642 942 542 1020 b 171 751 270 1020 171 929 l 171 -268 l 182 -266 l 182 117 b 438 -13 249 26 333 -13 b 704 276 586 -13 704 87 b 422 554 704 457 585 548 z m 438 -2 b 182 132 331 -2 251 37 l 182 751 b 416 1009 182 925 277 1009 b 632 791 536 1009 630 938 b 390 559 633 638 524 559 l 303 559 l 302 549 l 388 549 b 693 276 573 549 692 453 b 438 -2 693 95 581 -2 z "},"ɓ":{"ha":789,"x_min":0,"x_max":0,"o":"m 426 733 b 182 591 313 733 240 672 l 182 857 b 331 1009 182 960 244 1009 b 482 966 390 1009 439 991 l 486 975 b 330 1020 443 1001 390 1020 b 171 858 237 1020 171 964 l 171 0 l 181 0 l 182 129 b 420 -13 234 47 311 -13 b 673 367 586 -13 673 132 b 426 733 673 600 586 733 z m 419 -2 b 182 143 313 -2 238 56 l 182 578 b 426 722 245 665 315 722 b 662 367 580 722 662 594 b 419 -2 662 137 578 -2 z "},"ʭ":{"ha":408,"x_min":0,"x_max":0,"o":"m 42 558 l 53 558 l 53 683 l 355 683 l 355 556 l 367 556 l 367 693 l 42 693 z m 42 2 l 53 2 l 53 127 l 355 127 l 355 0 l 367 0 l 367 138 l 42 138 z "},"ʘ":{"ha":1094,"x_min":0,"x_max":0,"o":"m 546 958 b 115 469 288 958 115 772 b 546 -13 115 167 284 -13 b 979 471 820 -13 979 169 b 546 958 979 780 812 958 z m 546 947 b 967 471 806 947 967 774 b 546 -2 967 175 814 -2 b 126 469 290 -2 126 174 b 546 947 126 766 294 947 z m 548 482 b 533 468 538 482 533 475 b 548 454 533 461 538 454 b 562 468 557 454 562 461 b 548 482 562 475 557 482 z "},"ʬ":{"ha":629,"x_min":0,"x_max":0,"o":"m 549 916 l 539 916 l 435 564 l 321 916 l 309 916 l 196 564 l 91 916 l 80 916 l 189 556 l 202 556 l 315 906 l 428 556 l 442 556 z m 549 360 l 539 360 l 435 9 l 321 360 l 309 360 l 196 9 l 91 360 l 80 360 l 189 0 l 202 0 l 315 350 l 428 0 l 442 0 z "},"ƀ":{"ha":796,"x_min":0,"x_max":0,"o":"m 431 733 b 189 591 319 733 246 672 l 189 882 l 450 882 l 450 892 l 189 892 l 189 1016 l 178 1015 l 178 892 l 73 892 l 73 882 l 178 882 l 178 0 l 187 0 l 189 129 b 424 -13 242 47 316 -13 b 680 367 593 -13 680 133 b 431 733 680 599 594 733 z m 424 -2 b 189 143 318 -2 245 56 l 189 578 b 431 722 252 665 320 722 b 669 367 587 722 669 594 b 424 -2 669 137 585 -2 z "},"ƃ":{"ha":789,"x_min":0,"x_max":0,"o":"m 424 733 b 182 591 312 733 239 672 l 182 1001 l 515 1001 l 517 1012 l 171 1012 l 171 0 l 181 0 l 182 129 b 418 -13 234 47 309 -13 b 673 367 586 -13 673 132 b 424 733 673 600 586 733 z m 417 -2 b 182 143 311 -2 238 56 l 182 578 b 424 722 245 665 313 722 b 662 367 580 722 662 594 b 417 -2 662 137 578 -2 z "},"c":{"ha":650,"x_min":0,"x_max":0,"o":"m 392 733 b 108 356 217 733 108 592 b 391 -13 108 120 227 -13 b 579 61 474 -13 532 17 l 571 68 b 390 -2 525 26 470 -2 b 120 356 234 -2 120 125 b 393 722 120 588 226 722 b 565 656 463 722 518 700 l 573 663 b 392 733 522 710 467 733 z "},"ć":{"ha":650,"x_min":0,"x_max":0,"o":"m 491 1042 l 255 925 l 260 916 l 496 1031 z m 392 733 b 108 356 217 733 108 592 b 391 -13 108 120 227 -13 b 579 61 474 -13 532 17 l 571 68 b 390 -2 525 26 470 -2 b 120 356 234 -2 120 125 b 393 722 120 588 226 722 b 565 656 463 722 518 700 l 573 663 b 392 733 522 710 467 733 z "},"č":{"ha":650,"x_min":0,"x_max":0,"o":"m 537 1025 l 384 909 l 234 1025 l 227 1018 l 381 897 l 388 897 l 544 1018 z m 392 733 b 108 356 217 733 108 592 b 391 -13 108 120 227 -13 b 579 61 474 -13 532 17 l 571 68 b 390 -2 525 26 470 -2 b 120 356 234 -2 120 125 b 393 722 120 588 226 722 b 565 656 463 722 518 700 l 573 663 b 392 733 522 710 467 733 z "},"ç":{"ha":650,"x_min":0,"x_max":0,"o":"m 386 -112 l 390 -13 l 391 -13 b 579 61 474 -13 532 17 l 571 68 b 390 -2 525 26 470 -2 b 120 356 234 -2 120 125 b 393 722 120 588 226 722 b 565 656 463 722 518 700 l 573 663 b 392 733 522 710 467 733 b 108 356 217 733 108 592 b 381 -13 108 124 222 -7 l 375 -120 b 500 -197 463 -122 500 -147 b 410 -276 500 -254 455 -276 b 327 -254 373 -276 350 -268 l 322 -263 b 410 -286 345 -277 369 -286 b 511 -197 461 -286 511 -260 b 386 -112 511 -137 464 -114 z "},"ĉ":{"ha":650,"x_min":0,"x_max":0,"o":"m 232 914 l 385 1030 l 536 914 l 543 920 l 389 1042 l 382 1042 l 226 920 z m 392 733 b 108 356 217 733 108 592 b 391 -13 108 120 227 -13 b 579 61 474 -13 532 17 l 571 68 b 390 -2 525 26 470 -2 b 120 356 234 -2 120 125 b 393 722 120 588 226 722 b 565 656 463 722 518 700 l 573 663 b 392 733 522 710 467 733 z "},"ɕ":{"ha":661,"x_min":0,"x_max":0,"o":"m 474 275 b 236 50 371 275 308 206 b 120 356 165 107 120 212 b 393 722 120 588 226 722 b 565 656 463 722 518 700 l 573 663 b 392 733 522 710 467 733 b 108 356 217 733 108 592 b 232 40 108 207 156 99 l 180 -67 l 190 -70 l 240 34 b 401 -13 286 3 329 -13 b 603 148 527 -13 603 54 b 474 275 603 220 558 275 z m 401 -2 b 245 44 332 -2 288 14 b 474 264 316 198 375 264 b 592 148 551 264 592 215 b 401 -2 592 56 514 -2 z "},"ċ":{"ha":650,"x_min":0,"x_max":0,"o":"m 384 988 b 370 974 375 988 370 981 b 384 960 370 967 375 960 b 399 974 394 960 399 967 b 384 988 399 981 394 988 z m 392 733 b 108 356 217 733 108 592 b 391 -13 108 120 227 -13 b 579 61 474 -13 532 17 l 571 68 b 390 -2 525 26 470 -2 b 120 356 234 -2 120 125 b 393 722 120 588 226 722 b 565 656 463 722 518 700 l 573 663 b 392 733 522 710 467 733 z "},"ƈ":{"ha":650,"x_min":0,"x_max":0,"o":"m 684 1020 b 562 881 611 1020 562 972 l 562 672 b 392 733 514 712 461 733 b 108 356 217 733 108 592 b 391 -13 108 120 227 -13 b 579 61 474 -13 532 17 l 572 69 b 390 -2 525 26 470 -2 b 120 356 234 -2 120 125 b 393 722 120 587 226 722 b 566 657 463 722 518 700 l 573 663 l 573 881 b 684 1009 573 968 619 1009 b 792 972 735 1009 765 993 l 798 980 b 684 1020 772 1001 738 1020 z "},"ʗ":{"ha":682,"x_min":0,"x_max":0,"o":"m 431 733 b 141 228 249 733 141 558 b 429 -271 141 -105 250 -271 b 611 -197 507 -271 564 -240 l 604 -189 b 428 -260 558 -232 502 -260 b 152 228 258 -260 152 -99 b 432 722 152 554 258 722 b 598 656 496 722 550 700 l 605 663 b 431 733 555 710 499 733 z "},"ȼ":{"ha":650,"x_min":0,"x_max":0,"o":"m 579 61 l 571 68 b 390 -2 525 26 470 -2 b 276 24 349 -2 310 7 l 465 713 b 565 656 503 703 535 684 l 573 663 b 468 723 541 693 507 713 l 490 806 l 482 808 l 459 726 b 392 733 438 730 416 733 b 108 356 217 733 108 592 b 264 18 108 186 169 70 l 237 -81 l 246 -83 l 273 14 b 391 -13 308 -4 348 -13 b 579 61 474 -13 532 17 z m 120 356 b 393 722 120 588 226 722 b 456 715 415 722 436 720 l 267 29 b 120 356 178 80 120 192 z "},"d":{"ha":796,"x_min":0,"x_max":0,"o":"m 614 1016 l 614 598 b 391 733 579 663 508 733 b 115 357 217 733 115 579 b 381 -13 115 123 219 -13 b 614 135 502 -13 569 53 l 615 0 l 625 0 l 625 1015 z m 381 -2 b 126 357 225 -2 127 129 b 391 722 126 575 226 722 b 614 583 505 722 576 653 l 614 153 b 381 -2 565 62 500 -2 z "},"ð":{"ha":751,"x_min":0,"x_max":0,"o":"m 418 929 l 506 1021 l 498 1027 l 410 934 b 210 1021 350 976 278 1005 l 208 1011 b 403 927 275 995 347 965 l 281 800 l 291 796 l 411 921 b 624 478 544 823 617 680 b 361 636 559 572 474 636 b 108 318 199 636 108 488 b 368 -13 108 121 204 -13 b 636 438 539 -13 636 126 b 418 929 636 673 558 827 z m 368 -2 b 120 317 213 -2 120 125 b 362 626 120 486 208 626 b 624 464 472 626 557 561 b 625 439 625 457 625 449 b 368 -2 625 135 533 -2 z "},"ȸ":{"ha":1176,"x_min":0,"x_max":0,"o":"m 823 733 b 597 592 725 733 641 663 l 597 1016 l 586 1015 l 586 593 b 376 733 546 664 475 733 b 115 357 215 733 115 580 b 364 -13 115 122 219 -13 b 586 135 474 -13 540 52 l 587 0 l 596 0 l 597 135 b 819 -13 648 49 723 -13 b 1061 367 973 -13 1061 132 b 823 733 1061 600 973 733 z m 364 -2 b 126 357 225 -2 127 129 b 376 722 126 575 225 722 b 586 579 473 722 541 654 l 586 153 b 364 -2 537 62 472 -2 z m 819 -2 b 597 153 726 -2 651 58 l 597 578 b 823 722 646 655 726 722 b 1049 367 968 722 1049 594 b 819 -2 1049 137 966 -2 z "},"ď":{"ha":796,"x_min":0,"x_max":0,"o":"m 614 598 b 391 733 579 663 508 733 b 115 357 217 733 115 579 b 381 -13 115 123 219 -13 b 614 135 502 -13 569 53 l 615 0 l 625 0 l 625 1015 l 614 1016 z m 762 1016 l 736 822 l 745 822 l 774 1015 z m 381 -2 b 126 357 225 -2 127 129 b 391 722 126 575 226 722 b 614 583 505 722 576 653 l 614 153 b 381 -2 565 62 500 -2 z "},"ḓ":{"ha":796,"x_min":0,"x_max":0,"o":"m 614 1016 l 614 598 b 391 733 579 663 508 733 b 115 357 217 733 115 579 b 381 -13 115 123 219 -13 b 614 135 502 -13 569 53 l 615 0 l 625 0 l 625 1015 z m 381 -2 b 126 357 225 -2 127 129 b 391 722 126 575 226 722 b 614 583 505 722 576 653 l 614 153 b 381 -2 565 62 500 -2 z m 400 -114 l 244 -235 l 251 -242 l 404 -126 l 555 -242 l 561 -235 l 407 -114 z "},"đ":{"ha":803,"x_min":0,"x_max":0,"o":"m 625 892 l 625 1015 l 614 1016 l 614 892 l 367 892 l 367 882 l 614 882 l 614 598 b 391 733 579 663 508 733 b 115 357 217 733 115 579 b 381 -13 115 123 219 -13 b 614 135 502 -13 569 53 l 615 0 l 625 0 l 625 882 l 729 882 l 729 892 z m 381 -2 b 126 357 225 -2 127 129 b 391 722 126 575 226 722 b 614 583 505 722 576 653 l 614 153 b 381 -2 565 62 500 -2 z "},"ȡ":{"ha":906,"x_min":0,"x_max":0,"o":"m 839 247 b 635 77 743 247 685 178 b 625 137 628 94 625 114 l 625 1015 l 614 1016 l 614 598 b 390 733 579 663 507 733 b 115 357 215 733 115 580 b 378 -13 115 122 219 -13 b 614 135 502 -13 568 53 b 628 65 614 108 619 84 l 562 -67 l 572 -70 l 634 54 b 773 -13 660 9 710 -13 b 957 134 881 -13 957 47 b 839 247 957 198 913 247 z m 378 -2 b 126 357 225 -2 127 129 b 390 722 126 575 225 722 b 614 583 504 722 575 653 l 614 153 b 378 -2 565 62 500 -2 z m 773 -2 b 640 66 710 -2 662 20 l 640 66 b 839 237 690 169 746 237 b 946 134 906 237 946 194 b 773 -2 946 52 875 -2 z "},"ḋ":{"ha":796,"x_min":0,"x_max":0,"o":"m 389 1202 b 403 1216 398 1202 403 1209 b 389 1230 403 1223 398 1230 b 374 1216 379 1230 374 1223 b 389 1202 374 1209 379 1202 z m 614 1016 l 614 598 b 391 733 579 663 508 733 b 115 357 217 733 115 579 b 381 -13 115 123 219 -13 b 614 135 502 -13 569 53 l 615 0 l 625 0 l 625 1015 z m 381 -2 b 126 357 225 -2 127 129 b 391 722 126 575 226 722 b 614 583 505 722 576 653 l 614 153 b 381 -2 565 62 500 -2 z "},"ḍ":{"ha":796,"x_min":0,"x_max":0,"o":"m 614 1016 l 614 598 b 391 733 579 663 508 733 b 115 357 217 733 115 579 b 381 -13 115 123 219 -13 b 614 135 502 -13 569 53 l 615 0 l 625 0 l 625 1015 z m 381 -2 b 126 357 225 -2 127 129 b 391 722 126 575 226 722 b 614 583 505 722 576 653 l 614 153 b 381 -2 565 62 500 -2 z m 403 -145 b 389 -159 394 -145 389 -152 b 403 -173 389 -166 394 -173 b 417 -159 412 -173 417 -166 b 403 -145 417 -152 412 -145 z "},"ƍ":{"ha":771,"x_min":0,"x_max":0,"o":"m 408 69 b 663 414 557 119 663 228 b 388 732 663 619 557 732 b 108 416 215 732 108 615 b 385 67 108 223 184 145 b 578 -115 532 10 578 -30 b 382 -269 578 -203 503 -269 b 192 -209 305 -269 249 -250 l 184 -217 b 383 -279 245 -259 304 -279 b 590 -115 509 -279 590 -209 b 408 69 589 -28 542 16 z m 120 416 b 388 721 120 609 222 721 b 651 414 550 721 651 613 b 397 73 651 227 541 121 b 120 416 190 152 120 229 z "},"ʤ":{"ha":1172,"x_min":0,"x_max":0,"o":"m 818 265 l 761 265 l 1079 709 l 1079 719 l 625 719 l 625 1015 l 614 1016 l 614 598 b 391 733 579 663 508 733 b 115 357 217 733 115 579 b 381 -13 115 123 219 -13 b 614 135 502 -13 569 53 l 615 0 l 625 0 l 625 708 l 1066 708 l 749 265 l 749 255 l 818 255 b 1107 2 1009 255 1107 171 b 851 -258 1107 -151 1012 -258 b 609 -153 744 -258 673 -221 l 601 -159 b 851 -269 664 -227 739 -269 b 1118 2 1018 -269 1118 -158 b 818 265 1118 174 1018 265 z m 381 -2 b 126 357 225 -2 127 129 b 391 722 126 575 226 722 b 614 583 505 722 576 653 l 614 153 b 381 -2 565 62 500 -2 z "},"ɗ":{"ha":796,"x_min":0,"x_max":0,"o":"m 736 1020 b 614 881 663 1020 614 972 l 614 598 b 390 733 579 663 507 733 b 115 357 215 733 115 580 b 378 -13 115 122 219 -13 b 614 135 502 -13 567 53 l 615 0 l 625 0 l 625 881 b 736 1009 625 968 671 1009 b 844 972 787 1009 817 993 l 849 980 b 736 1020 824 1001 790 1020 z m 378 -2 b 126 357 225 -2 127 129 b 390 722 126 575 225 722 b 614 583 504 722 575 653 l 614 153 b 378 -2 565 62 500 -2 z "},"ḏ":{"ha":796,"x_min":0,"x_max":0,"o":"m 614 1016 l 614 598 b 391 733 579 663 508 733 b 115 357 217 733 115 579 b 381 -13 115 123 219 -13 b 614 135 502 -13 569 53 l 615 0 l 625 0 l 625 1015 z m 381 -2 b 126 357 225 -2 127 129 b 391 722 126 575 226 722 b 614 583 505 722 576 653 l 614 153 b 381 -2 565 62 500 -2 z m 267 -174 l 538 -174 l 538 -163 l 267 -163 z "},"ɖ":{"ha":796,"x_min":0,"x_max":0,"o":"m 844 -221 b 736 -259 818 -242 787 -259 b 625 -130 671 -259 625 -217 l 625 1015 l 614 1016 l 614 598 b 390 733 579 663 507 733 b 115 357 215 733 115 580 b 378 -13 115 122 219 -13 b 614 135 502 -13 567 53 l 614 -130 b 736 -269 614 -221 664 -269 b 849 -229 790 -269 824 -250 z m 378 -2 b 126 357 225 -2 127 129 b 390 722 126 575 225 722 b 614 583 504 722 575 653 l 614 153 b 378 -2 565 62 500 -2 z "},"ƌ":{"ha":796,"x_min":0,"x_max":0,"o":"m 625 1012 l 279 1012 l 279 1001 l 614 1001 l 614 598 b 390 733 579 663 507 733 b 115 357 215 733 115 580 b 378 -13 115 122 219 -13 b 614 135 502 -13 567 53 l 615 0 l 625 0 z m 378 -2 b 126 357 225 -2 127 129 b 390 722 126 575 225 722 b 614 583 504 722 575 653 l 614 153 b 378 -2 565 62 500 -2 z "},"ǳ":{"ha":1365,"x_min":0,"x_max":0,"o":"m 614 598 b 391 733 579 663 508 733 b 115 357 217 733 115 579 b 381 -13 115 123 219 -13 b 614 135 502 -13 569 53 l 615 0 l 625 0 l 625 1015 l 614 1016 z m 381 -2 b 126 357 225 -2 127 129 b 391 722 126 575 226 722 b 614 583 505 722 576 653 l 614 153 b 381 -2 565 62 500 -2 z m 1311 719 l 884 719 l 884 708 l 1296 708 l 842 10 l 842 0 l 1296 0 l 1297 11 l 857 11 l 1311 709 z "},"ʣ":{"ha":1171,"x_min":0,"x_max":0,"o":"m 1116 719 l 625 719 l 625 1015 l 614 1016 l 614 598 b 391 733 579 663 508 733 b 115 357 217 733 115 579 b 381 -13 115 123 219 -13 b 614 135 502 -13 569 53 l 615 0 l 1102 0 l 1103 11 l 638 11 l 1116 709 z m 381 -2 b 126 357 225 -2 127 129 b 391 722 126 575 226 722 b 614 583 505 722 576 653 l 614 153 b 381 -2 565 62 500 -2 z m 625 12 l 625 708 l 1102 708 z "},"ǆ":{"ha":1365,"x_min":0,"x_max":0,"o":"m 1097 897 l 1253 1018 l 1246 1025 l 1094 909 l 943 1025 l 936 1018 l 1090 897 z m 614 598 b 391 733 579 663 508 733 b 115 357 217 733 115 579 b 381 -13 115 123 219 -13 b 614 135 502 -13 569 53 l 615 0 l 625 0 l 625 1015 l 614 1016 z m 381 -2 b 126 357 225 -2 127 129 b 391 722 126 575 226 722 b 614 583 505 722 576 653 l 614 153 b 381 -2 565 62 500 -2 z m 1311 719 l 884 719 l 884 708 l 1296 708 l 842 10 l 842 0 l 1296 0 l 1297 11 l 857 11 l 1311 709 z "},"ʥ":{"ha":1167,"x_min":0,"x_max":0,"o":"m 1063 257 b 900 11 960 257 905 184 l 637 11 l 1116 709 l 1116 719 l 625 719 l 625 1015 l 614 1016 l 614 598 b 391 733 579 663 508 733 b 115 357 217 733 115 579 b 381 -13 115 123 219 -13 b 614 135 502 -13 569 53 l 615 0 l 899 0 b 899 -142 898 -47 896 -96 l 909 -142 b 910 0 907 -97 908 -48 b 1178 142 1101 0 1178 39 b 1063 257 1178 214 1128 257 z m 381 -2 b 126 357 225 -2 127 129 b 391 722 126 575 226 722 b 614 583 505 722 576 653 l 614 153 b 381 -2 565 62 500 -2 z m 625 708 l 1101 708 l 625 13 z m 910 10 b 1063 247 916 182 969 247 b 1167 142 1122 247 1167 208 b 910 10 1167 47 1096 10 z "},"e":{"ha":733,"x_min":0,"x_max":0,"o":"m 632 399 b 382 733 632 591 555 733 b 108 352 215 733 108 592 b 385 -13 108 119 217 -13 b 601 70 478 -13 538 18 l 595 79 b 385 -2 532 27 474 -2 b 120 348 228 -2 122 119 l 631 348 b 632 399 632 366 632 379 z m 620 358 l 120 358 b 382 722 121 592 226 722 b 621 402 549 722 621 584 b 620 358 621 383 621 374 z "},"é":{"ha":733,"x_min":0,"x_max":0,"o":"m 495 1031 l 489 1042 l 254 925 l 258 916 z m 632 399 b 382 733 632 591 555 733 b 108 352 215 733 108 592 b 385 -13 108 119 217 -13 b 601 70 478 -13 538 18 l 595 79 b 385 -2 532 27 474 -2 b 120 348 228 -2 122 119 l 631 348 b 632 399 632 366 632 379 z m 620 358 l 120 358 b 382 722 121 592 226 722 b 621 402 549 722 621 584 b 620 358 621 383 621 374 z "},"ĕ":{"ha":733,"x_min":0,"x_max":0,"o":"m 383 924 b 521 1028 461 924 506 970 l 512 1030 b 383 934 495 969 449 934 b 253 1030 316 934 271 969 l 244 1028 b 383 924 259 970 305 924 z m 632 399 b 382 733 632 591 555 733 b 108 352 215 733 108 592 b 385 -13 108 119 217 -13 b 601 70 478 -13 538 18 l 595 79 b 385 -2 532 27 474 -2 b 120 348 228 -2 122 119 l 631 348 b 632 399 632 366 632 379 z m 620 358 l 120 358 b 382 722 121 592 226 722 b 621 402 549 722 621 584 b 620 358 621 383 621 374 z "},"ě":{"ha":733,"x_min":0,"x_max":0,"o":"m 386 897 l 542 1018 l 535 1025 l 383 909 l 232 1025 l 225 1018 l 379 897 z m 632 399 b 382 733 632 591 555 733 b 108 352 215 733 108 592 b 385 -13 108 119 217 -13 b 601 70 478 -13 538 18 l 595 79 b 385 -2 532 27 474 -2 b 120 348 228 -2 122 119 l 631 348 b 632 399 632 366 632 379 z m 620 358 l 120 358 b 382 722 121 592 226 722 b 621 402 549 722 621 584 b 620 358 621 383 621 374 z "},"ȩ":{"ha":733,"x_min":0,"x_max":0,"o":"m 632 399 b 382 733 632 591 555 733 b 108 352 215 733 108 592 b 372 -13 108 125 211 -6 l 366 -119 b 491 -196 454 -121 491 -146 b 401 -275 491 -253 447 -275 b 318 -253 364 -275 341 -267 l 313 -262 b 401 -285 336 -275 360 -285 b 502 -196 452 -285 502 -259 b 377 -111 502 -136 455 -113 l 381 -13 b 385 -13 382 -13 384 -13 b 601 70 478 -13 538 18 l 595 79 b 385 -2 532 27 474 -2 b 120 348 228 -2 122 119 l 631 348 b 632 399 632 366 632 379 z m 620 358 l 120 358 b 382 722 121 592 226 722 b 621 402 549 722 621 584 b 620 358 621 383 621 374 z "},"ê":{"ha":733,"x_min":0,"x_max":0,"o":"m 384 1030 l 534 914 l 541 920 l 387 1042 l 380 1042 l 224 920 l 231 914 z m 632 399 b 382 733 632 591 555 733 b 108 352 215 733 108 592 b 385 -13 108 119 217 -13 b 601 70 478 -13 538 18 l 595 79 b 385 -2 532 27 474 -2 b 120 348 228 -2 122 119 l 631 348 b 632 399 632 366 632 379 z m 620 358 l 120 358 b 382 722 121 592 226 722 b 621 402 549 722 621 584 b 620 358 621 383 621 374 z "},"ế":{"ha":733,"x_min":0,"x_max":0,"o":"m 627 1079 l 618 1088 l 491 934 l 498 928 z m 381 927 l 533 818 l 540 824 l 384 939 l 377 939 l 223 824 l 230 818 z m 632 399 b 382 733 632 591 555 733 b 108 352 215 733 108 592 b 385 -13 108 119 217 -13 b 601 70 478 -13 538 18 l 595 79 b 385 -2 532 27 474 -2 b 120 348 228 -2 122 119 l 631 348 b 632 399 632 366 632 379 z m 620 358 l 120 358 b 382 722 121 592 226 722 b 621 402 549 722 621 584 b 620 358 621 383 621 374 z "},"ệ":{"ha":733,"x_min":0,"x_max":0,"o":"m 384 1030 l 534 914 l 541 920 l 387 1042 l 380 1042 l 224 920 l 231 914 z m 632 399 b 382 733 632 591 555 733 b 108 352 215 733 108 592 b 385 -13 108 119 217 -13 b 601 70 478 -13 538 18 l 595 79 b 385 -2 532 27 474 -2 b 120 348 228 -2 122 119 l 631 348 b 632 399 632 366 632 379 z m 620 358 l 120 358 b 382 722 121 592 226 722 b 621 402 549 722 621 584 b 620 358 621 383 621 374 z m 386 -145 b 372 -159 377 -145 372 -152 b 386 -173 372 -166 377 -173 b 401 -159 395 -173 401 -166 b 386 -145 401 -152 395 -145 z "},"ề":{"ha":733,"x_min":0,"x_max":0,"o":"m 271 934 l 144 1088 l 135 1079 l 264 928 z m 230 818 l 381 927 l 533 818 l 540 824 l 384 939 l 377 939 l 223 824 z m 632 399 b 382 733 632 591 555 733 b 108 352 215 733 108 592 b 385 -13 108 119 217 -13 b 601 70 478 -13 538 18 l 595 79 b 385 -2 532 27 474 -2 b 120 348 228 -2 122 119 l 631 348 b 632 399 632 366 632 379 z m 620 358 l 120 358 b 382 722 121 592 226 722 b 621 402 549 722 621 584 b 620 358 621 383 621 374 z "},"ể":{"ha":733,"x_min":0,"x_max":0,"o":"m 510 1151 b 589 1080 558 1151 589 1125 b 496 1003 589 1022 548 1007 l 496 915 l 507 915 l 507 995 b 601 1080 560 1000 601 1020 b 511 1161 601 1131 564 1161 b 426 1137 475 1161 448 1149 l 430 1128 b 510 1151 451 1140 477 1151 z m 381 927 l 533 818 l 540 824 l 384 939 l 377 939 l 223 824 l 230 818 z m 632 399 b 382 733 632 591 555 733 b 108 352 215 733 108 592 b 385 -13 108 119 217 -13 b 601 70 478 -13 538 18 l 595 79 b 385 -2 532 27 474 -2 b 120 348 228 -2 122 119 l 631 348 b 632 399 632 366 632 379 z m 620 358 l 120 358 b 382 722 121 592 226 722 b 621 402 549 722 621 584 b 620 358 621 383 621 374 z "},"ễ":{"ha":733,"x_min":0,"x_max":0,"o":"m 300 1058 b 458 997 351 1058 397 997 b 553 1056 498 997 524 1014 l 545 1060 b 458 1007 517 1023 495 1007 b 300 1068 399 1007 355 1068 b 207 1014 262 1068 238 1050 l 214 1009 b 300 1058 244 1043 266 1058 z m 377 930 l 223 816 l 230 810 l 381 918 l 533 810 l 540 816 l 384 930 z m 632 399 b 382 733 632 591 555 733 b 108 352 215 733 108 592 b 385 -13 108 119 217 -13 b 601 70 478 -13 538 18 l 595 79 b 385 -2 532 27 474 -2 b 120 348 228 -2 122 119 l 631 348 b 632 399 632 366 632 379 z m 620 358 l 120 358 b 382 722 121 592 226 722 b 621 402 549 722 621 584 b 620 358 621 383 621 374 z "},"ȅ":{"ha":733,"x_min":0,"x_max":0,"o":"m 323 919 l 229 1093 l 217 1087 l 314 914 z m 464 922 l 377 1089 l 366 1084 l 455 918 z m 632 399 b 382 733 632 591 555 733 b 108 352 215 733 108 592 b 385 -13 108 119 217 -13 b 601 70 478 -13 538 18 l 595 79 b 385 -2 532 27 474 -2 b 120 348 228 -2 122 119 l 631 348 b 632 399 632 366 632 379 z m 620 358 l 120 358 b 382 722 121 592 226 722 b 621 402 549 722 621 584 b 620 358 621 383 621 374 z "},"ë":{"ha":733,"x_min":0,"x_max":0,"o":"m 275 940 b 289 954 284 940 289 947 b 275 968 289 962 284 968 b 261 954 266 968 261 962 b 275 940 261 947 266 940 z m 489 940 b 503 954 498 940 503 947 b 489 968 503 962 498 968 b 475 954 480 968 475 962 b 489 940 475 947 480 940 z m 632 399 b 382 733 632 591 555 733 b 108 352 215 733 108 592 b 385 -13 108 119 217 -13 b 601 70 478 -13 538 18 l 595 79 b 385 -2 532 27 474 -2 b 120 348 228 -2 122 119 l 631 348 b 632 399 632 366 632 379 z m 620 358 l 120 358 b 382 722 121 592 226 722 b 621 402 549 722 621 584 b 620 358 621 383 621 374 z "},"ė":{"ha":733,"x_min":0,"x_max":0,"o":"m 383 960 b 397 974 392 960 397 967 b 383 988 397 981 392 988 b 368 974 374 988 368 981 b 383 960 368 967 374 960 z m 632 399 b 382 733 632 591 555 733 b 108 352 215 733 108 592 b 385 -13 108 119 217 -13 b 601 70 478 -13 538 18 l 595 79 b 385 -2 532 27 474 -2 b 120 348 228 -2 122 119 l 631 348 b 632 399 632 366 632 379 z m 620 358 l 120 358 b 382 722 121 592 226 722 b 621 402 549 722 621 584 b 620 358 621 383 621 374 z "},"ẹ":{"ha":733,"x_min":0,"x_max":0,"o":"m 632 399 b 382 733 632 591 555 733 b 108 352 215 733 108 592 b 385 -13 108 119 217 -13 b 601 70 478 -13 538 18 l 595 79 b 385 -2 532 27 474 -2 b 120 348 228 -2 122 119 l 631 348 b 632 399 632 366 632 379 z m 620 358 l 120 358 b 382 722 121 592 226 722 b 621 402 549 722 621 584 b 620 358 621 383 621 374 z m 386 -145 b 372 -159 377 -145 372 -152 b 386 -173 372 -166 377 -173 b 401 -159 395 -173 401 -166 b 386 -145 401 -152 395 -145 z "},"è":{"ha":733,"x_min":0,"x_max":0,"o":"m 508 925 l 273 1042 l 268 1031 l 504 916 z m 632 399 b 382 733 632 591 555 733 b 108 352 215 733 108 592 b 385 -13 108 119 217 -13 b 601 70 478 -13 538 18 l 595 79 b 385 -2 532 27 474 -2 b 120 348 228 -2 122 119 l 631 348 b 632 399 632 366 632 379 z m 620 358 l 120 358 b 382 722 121 592 226 722 b 621 402 549 722 621 584 b 620 358 621 383 621 374 z "},"ẻ":{"ha":733,"x_min":0,"x_max":0,"o":"m 388 1102 b 467 1031 436 1102 467 1077 b 374 954 467 974 426 958 l 374 867 l 385 867 l 385 947 b 479 1032 438 951 479 971 b 389 1113 479 1082 442 1113 b 304 1088 353 1113 326 1101 l 309 1080 b 388 1102 329 1091 355 1102 z m 632 399 b 382 733 632 591 555 733 b 108 352 215 733 108 592 b 385 -13 108 119 217 -13 b 601 70 478 -13 538 18 l 595 79 b 385 -2 532 27 474 -2 b 120 348 228 -2 122 119 l 631 348 b 632 399 632 366 632 379 z m 620 358 l 120 358 b 382 722 121 592 226 722 b 621 402 549 722 621 584 b 620 358 621 383 621 374 z "},"ȇ":{"ha":733,"x_min":0,"x_max":0,"o":"m 383 988 b 512 893 449 988 495 954 l 521 894 b 383 999 506 953 461 999 b 244 894 305 999 259 953 l 253 893 b 383 988 271 954 316 988 z m 632 399 b 382 733 632 591 555 733 b 108 352 215 733 108 592 b 385 -13 108 119 217 -13 b 601 70 478 -13 538 18 l 595 79 b 385 -2 532 27 474 -2 b 120 348 228 -2 122 119 l 631 348 b 632 399 632 366 632 379 z m 620 358 l 120 358 b 382 722 121 592 226 722 b 621 402 549 722 621 584 b 620 358 621 383 621 374 z "},"ē":{"ha":733,"x_min":0,"x_max":0,"o":"m 518 966 l 247 966 l 247 955 l 518 955 z m 632 399 b 382 733 632 591 555 733 b 108 352 215 733 108 592 b 385 -13 108 119 217 -13 b 601 70 478 -13 538 18 l 595 79 b 385 -2 532 27 474 -2 b 120 348 228 -2 122 119 l 631 348 b 632 399 632 366 632 379 z m 620 358 l 120 358 b 382 722 121 592 226 722 b 621 402 549 722 621 584 b 620 358 621 383 621 374 z "},"ę":{"ha":733,"x_min":0,"x_max":0,"o":"m 632 399 b 382 733 632 591 555 733 b 108 352 215 733 108 592 b 385 -13 108 119 217 -13 b 443 -8 406 -13 425 -11 b 300 -161 366 -42 300 -90 b 413 -267 300 -229 343 -267 b 487 -257 440 -267 457 -264 l 488 -246 b 415 -256 458 -253 440 -256 b 312 -161 353 -256 312 -223 b 485 2 312 -79 403 -31 b 601 70 528 16 564 39 l 595 79 b 385 -2 532 27 474 -2 b 120 348 228 -2 122 119 l 631 348 b 632 399 632 366 632 379 z m 620 358 l 120 358 b 382 722 121 592 226 722 b 621 402 549 722 621 584 b 620 358 621 383 621 374 z "},"ɛ":{"ha":622,"x_min":0,"x_max":0,"o":"m 359 733 b 137 548 228 733 137 662 b 314 379 137 456 200 391 b 108 189 191 373 108 308 b 348 -13 108 64 206 -13 b 570 69 452 -13 516 19 l 564 78 b 348 -2 512 29 451 -2 b 120 189 211 -2 120 70 b 350 374 120 306 200 374 l 430 374 l 431 384 l 353 384 b 149 548 216 384 149 457 b 360 722 149 655 232 722 b 551 663 442 722 502 698 l 559 670 b 359 733 512 705 448 733 z "},"ʚ":{"ha":756,"x_min":0,"x_max":0,"o":"m 351 -13 b 648 359 545 -13 648 126 b 357 733 648 599 535 733 b 141 547 217 733 141 657 b 312 382 141 452 196 393 b 108 199 182 375 108 325 b 351 -13 108 68 199 -13 z m 351 -2 b 120 199 206 -2 120 72 b 356 377 120 320 190 377 l 416 377 l 416 387 l 358 387 b 152 547 205 387 152 457 b 357 722 152 650 221 722 b 636 359 529 722 636 593 b 351 -2 636 133 539 -2 z "},"ɜ":{"ha":644,"x_min":0,"x_max":0,"o":"m 299 733 b 73 661 204 733 139 705 l 78 653 b 299 722 144 696 204 722 b 492 553 423 722 492 652 b 287 387 492 458 439 387 l 212 387 l 211 377 l 289 377 b 525 199 454 377 525 319 b 302 -2 525 72 439 -2 b 59 92 183 -2 116 43 l 53 84 b 303 -13 110 35 179 -13 b 536 199 446 -13 536 68 b 333 382 536 324 462 375 b 504 553 449 393 504 454 b 299 733 504 660 427 733 z "},"ɞ":{"ha":756,"x_min":0,"x_max":0,"o":"m 405 -13 b 648 199 557 -13 648 68 b 444 382 648 325 574 375 b 615 547 560 393 615 452 b 398 733 615 657 539 733 b 108 359 220 733 108 599 b 405 -13 108 126 211 -13 z m 405 -2 b 120 359 217 -2 120 133 b 398 722 120 593 227 722 b 603 547 534 722 603 650 b 398 387 603 457 550 387 l 340 387 l 339 377 l 400 377 b 636 199 565 377 636 320 b 405 -2 636 72 550 -2 z "},"ɝ":{"ha":796,"x_min":0,"x_max":0,"o":"m 842 517 b 734 480 816 496 785 480 b 623 608 669 480 623 521 l 623 719 l 612 719 l 471 659 b 299 733 437 705 377 733 b 73 661 204 733 139 705 l 78 653 b 299 722 144 696 204 722 b 492 553 423 722 492 652 b 287 387 492 458 439 387 l 212 387 l 211 377 l 289 377 b 525 199 454 377 525 319 b 302 -2 525 72 439 -2 b 59 92 183 -2 116 43 l 53 84 b 303 -13 110 35 179 -13 b 536 199 446 -13 536 68 b 333 382 536 324 462 375 b 504 553 449 393 504 454 b 477 651 504 590 494 624 l 612 708 l 612 608 b 734 470 612 517 662 470 b 848 509 789 470 822 488 z "},"ɘ":{"ha":733,"x_min":0,"x_max":0,"o":"m 364 733 b 101 399 189 733 101 591 b 103 348 101 379 101 366 l 614 348 b 349 -2 612 119 506 -2 b 139 79 259 -2 201 27 l 133 70 b 349 -13 195 18 255 -13 b 625 352 517 -13 625 119 b 364 733 625 606 530 733 z m 112 402 b 364 722 112 583 195 722 b 614 358 519 722 613 606 l 113 358 b 112 402 112 374 112 383 z "},"ʃ":{"ha":353,"x_min":0,"x_max":0,"o":"m 293 1020 b 171 881 220 1020 171 972 l 171 -130 b 59 -259 171 -217 124 -259 b -49 -221 8 -259 -22 -242 l -54 -229 b 59 -269 -29 -250 5 -269 b 182 -130 132 -269 182 -221 l 182 881 b 293 1009 182 968 228 1009 b 401 972 344 1009 374 993 l 407 980 b 293 1020 381 1001 347 1020 z "},"ʆ":{"ha":372,"x_min":0,"x_max":0,"o":"m 202 -42 l 202 881 b 313 1009 202 968 248 1009 b 421 972 364 1009 394 993 l 426 980 b 313 1020 401 1001 367 1020 b 191 881 240 1020 191 972 l 191 -40 b 59 -24 153 -30 114 -24 b -100 -154 -37 -24 -100 -73 b 35 -269 -100 -221 -49 -269 b 202 -53 146 -269 200 -191 b 311 -95 239 -63 274 -76 l 314 -86 b 202 -42 274 -66 242 -54 z m 35 -259 b -89 -154 -43 -259 -89 -216 b 59 -34 -89 -80 -32 -34 b 191 -50 114 -34 150 -40 b 35 -259 190 -187 139 -259 z "},"ƪ":{"ha":356,"x_min":0,"x_max":0,"o":"m 405 -221 b 297 -259 378 -242 348 -259 b 185 -130 232 -259 185 -217 l 185 893 b 74 1020 185 970 144 1020 b -51 869 0 1020 -51 958 b 71 728 -51 776 -1 728 b 174 762 114 728 150 743 l 174 -130 b 297 -269 174 -221 224 -269 b 410 -229 351 -269 385 -250 z m 72 739 b -39 870 6 739 -39 781 b 74 1009 -39 953 6 1009 b 174 893 137 1009 174 965 l 174 772 b 72 739 148 753 115 739 z "},"ʅ":{"ha":529,"x_min":0,"x_max":0,"o":"m 489 35 b 382 -3 463 14 432 -3 b 270 126 316 -3 270 39 l 270 594 b 148 733 270 686 221 733 b 34 693 94 733 60 714 l 40 685 b 148 723 66 706 97 723 b 259 594 213 723 259 681 l 259 126 b 382 -13 259 35 309 -13 b 495 27 435 -13 469 6 z "},"ɇ":{"ha":733,"x_min":0,"x_max":0,"o":"m 631 348 b 632 399 632 366 632 379 b 469 718 632 555 581 678 l 493 806 l 485 808 l 461 721 b 382 733 437 729 411 733 b 108 352 215 733 108 592 b 266 14 108 180 168 63 l 240 -81 l 249 -83 l 275 10 b 385 -13 308 -5 345 -13 b 601 70 478 -13 538 18 l 595 79 b 385 -2 532 27 474 -2 b 277 20 346 -2 310 5 l 367 348 z m 382 722 b 458 711 410 722 436 718 l 361 358 l 120 358 b 382 722 121 592 226 722 z m 621 402 b 620 358 621 383 621 374 l 370 358 l 466 708 b 621 402 573 669 621 550 z m 269 24 b 120 348 178 72 121 181 l 358 348 z "},"ẽ":{"ha":733,"x_min":0,"x_max":0,"o":"m 305 1010 b 464 949 356 1010 402 949 b 559 1009 504 949 529 966 l 551 1013 b 464 960 522 975 500 960 b 305 1021 405 960 360 1021 b 212 966 268 1021 243 1003 l 220 962 b 305 1010 250 995 271 1010 z m 632 399 b 382 733 632 591 555 733 b 108 352 215 733 108 592 b 385 -13 108 119 217 -13 b 601 70 478 -13 538 18 l 595 79 b 385 -2 532 27 474 -2 b 120 348 228 -2 122 119 l 631 348 b 632 399 632 366 632 379 z m 620 358 l 120 358 b 382 722 121 592 226 722 b 621 402 549 722 621 584 b 620 358 621 383 621 374 z "},"ǝ":{"ha":738,"x_min":0,"x_max":0,"o":"m 369 733 b 146 655 278 733 206 700 l 153 647 b 369 722 213 692 281 722 b 619 372 523 722 617 599 l 103 372 b 101 335 101 360 101 348 b 364 -13 101 124 197 -13 b 630 367 525 -13 630 102 b 369 733 630 602 534 733 z m 364 -2 b 113 335 204 -2 113 130 b 114 362 113 346 113 354 l 619 362 b 364 -2 618 108 519 -2 z "},"ə":{"ha":738,"x_min":0,"x_max":0,"o":"m 369 733 b 146 655 278 733 206 700 l 153 647 b 369 722 213 692 281 722 b 619 372 523 722 617 599 l 103 372 b 101 335 101 360 101 348 b 364 -13 101 124 197 -13 b 630 367 525 -13 630 102 b 369 733 630 602 534 733 z m 364 -2 b 113 335 204 -2 113 130 b 114 362 113 346 113 354 l 619 362 b 364 -2 618 108 519 -2 z "},"ɚ":{"ha":871,"x_min":0,"x_max":0,"o":"m 918 517 b 810 480 891 496 861 480 b 699 608 745 480 699 521 l 699 719 l 688 719 l 545 659 b 369 733 501 707 442 733 b 146 655 278 733 206 700 l 153 647 b 369 722 213 692 281 722 b 619 372 523 722 617 599 l 103 372 b 101 335 101 360 101 348 b 364 -13 101 124 197 -13 b 630 367 525 -13 630 102 b 552 651 630 492 603 589 l 688 708 l 688 608 b 810 470 688 517 737 470 b 924 509 864 470 898 488 z m 364 -2 b 113 335 204 -2 113 130 b 114 362 113 346 113 354 l 619 362 b 364 -2 618 108 519 -2 z "},"ʒ":{"ha":610,"x_min":0,"x_max":0,"o":"m 256 265 l 199 265 l 517 709 l 517 719 l 61 719 l 61 708 l 504 708 l 186 265 l 186 255 l 256 255 b 545 2 447 255 545 171 b 289 -258 545 -151 450 -258 b 47 -153 182 -258 111 -221 l 39 -159 b 289 -269 102 -227 177 -269 b 556 2 455 -269 556 -158 b 256 265 556 174 456 265 z "},"ǯ":{"ha":610,"x_min":0,"x_max":0,"o":"m 293 897 l 449 1018 l 442 1025 l 290 909 l 139 1025 l 132 1018 l 286 897 z m 256 265 l 199 265 l 517 709 l 517 719 l 61 719 l 61 708 l 504 708 l 187 265 l 187 255 l 256 255 b 545 2 447 255 545 171 b 289 -258 545 -151 450 -258 b 47 -153 182 -258 111 -221 l 39 -159 b 289 -269 102 -227 177 -269 b 556 2 455 -269 556 -158 b 256 265 556 174 456 265 z "},"ʓ":{"ha":610,"x_min":0,"x_max":0,"o":"m 556 3 b 257 265 556 174 456 265 l 200 265 l 513 709 l 513 719 l 61 719 l 61 708 l 498 708 l 187 265 l 187 255 l 256 255 b 545 3 447 255 545 171 b 401 -228 545 -103 495 -186 b 154 19 319 -38 254 19 b 22 -112 72 19 22 -37 b 242 -269 22 -207 98 -269 b 396 -241 301 -269 352 -259 l 435 -326 l 445 -323 l 406 -237 b 556 3 503 -194 556 -107 z m 33 -112 b 154 8 33 -41 78 8 b 391 -232 250 8 310 -46 b 242 -258 349 -249 299 -258 b 33 -112 111 -258 33 -205 z "},"ƹ":{"ha":610,"x_min":0,"x_max":0,"o":"m 564 -153 b 314 -258 500 -221 428 -258 b 65 -6 160 -258 65 -153 b 354 255 65 158 163 255 l 424 255 l 424 265 l 108 708 l 549 708 l 549 719 l 93 719 l 93 709 l 411 265 l 355 265 b 54 -6 154 265 54 161 b 314 -269 54 -160 155 -269 b 572 -159 433 -269 508 -227 z "},"ƺ":{"ha":614,"x_min":0,"x_max":0,"o":"m 208 -267 l 212 -258 b 78 -133 123 -233 78 -194 b 300 -8 78 -61 137 -23 b 549 194 480 9 549 70 b 336 367 549 315 472 367 l 177 367 l 509 709 l 509 719 l 65 719 l 65 708 l 493 708 l 163 367 l 163 357 l 335 357 b 538 194 465 357 538 311 b 298 2 538 76 475 18 b 66 -133 127 -14 66 -57 b 208 -267 66 -198 116 -241 z "},"f":{"ha":418,"x_min":0,"x_max":0,"o":"m 334 1009 b 485 966 393 1009 442 991 l 489 975 b 333 1020 446 1001 393 1020 b 174 858 240 1020 174 964 l 174 719 l 47 719 l 47 709 l 174 709 l 174 0 l 185 0 l 185 709 l 392 709 l 393 719 l 185 719 l 185 857 b 334 1009 185 960 247 1009 z "},"ḟ":{"ha":418,"x_min":0,"x_max":0,"o":"m 336 1202 b 351 1216 346 1202 351 1209 b 336 1230 351 1223 346 1230 b 322 1216 327 1230 322 1223 b 336 1202 322 1209 327 1202 z m 334 1009 b 485 966 393 1009 442 991 l 489 975 b 333 1020 446 1001 393 1020 b 174 858 240 1020 174 964 l 174 719 l 47 719 l 47 709 l 174 709 l 174 0 l 185 0 l 185 709 l 392 709 l 393 719 l 185 719 l 185 857 b 334 1009 185 960 247 1009 z "},"ʩ":{"ha":1204,"x_min":0,"x_max":0,"o":"m 853 733 b 580 553 734 733 646 664 l 579 719 l 185 719 l 185 857 b 334 1009 185 960 247 1009 b 485 966 393 1009 442 991 l 489 975 b 333 1020 446 1001 393 1020 b 174 858 240 1020 174 964 l 174 719 l 47 719 l 47 709 l 174 709 l 174 0 l 185 0 l 185 709 l 569 709 l 569 0 l 580 0 l 580 536 b 853 723 647 651 734 723 b 1030 511 978 723 1030 645 l 1030 -130 b 919 -259 1030 -217 984 -259 b 811 -221 868 -259 837 -242 l 805 -229 b 919 -269 831 -250 865 -269 b 1041 -130 991 -269 1041 -221 l 1041 512 b 853 733 1041 650 985 733 z "},"g":{"ha":676,"x_min":0,"x_max":0,"o":"m 642 758 b 336 733 589 744 550 733 b 100 496 197 733 100 639 b 221 297 100 398 149 335 b 143 177 178 269 143 231 b 301 71 143 112 196 71 l 426 71 b 619 -82 547 71 619 12 b 350 -258 619 -196 534 -258 b 83 -82 162 -258 84 -213 l 72 -82 b 350 -269 72 -220 156 -269 b 630 -81 540 -269 630 -202 b 427 81 630 16 557 81 l 302 81 b 154 178 201 81 154 119 b 231 293 154 227 186 266 b 344 268 264 278 301 268 b 583 494 489 268 583 351 b 397 724 583 618 520 702 b 645 746 532 724 599 733 z m 336 723 b 572 494 462 723 572 656 b 344 278 572 356 481 278 b 112 496 229 278 112 351 b 336 723 112 628 198 723 z "},"ǵ":{"ha":676,"x_min":0,"x_max":0,"o":"m 446 1042 l 210 925 l 215 916 l 451 1031 z m 642 758 b 336 733 589 744 550 733 b 100 496 197 733 100 639 b 221 297 100 398 149 335 b 143 177 178 269 143 231 b 301 71 143 112 196 71 l 426 71 b 619 -82 547 71 619 12 b 350 -258 619 -196 534 -258 b 83 -82 162 -258 84 -213 l 72 -82 b 350 -269 72 -220 156 -269 b 630 -81 540 -269 630 -202 b 427 81 630 16 557 81 l 302 81 b 154 178 201 81 154 119 b 231 293 154 227 186 266 b 344 268 264 278 301 268 b 583 494 489 268 583 351 b 397 724 583 618 520 702 b 645 746 532 724 599 733 z m 336 723 b 572 494 462 723 572 656 b 344 278 572 356 481 278 b 112 496 229 278 112 351 b 336 723 112 628 198 723 z "},"ɣ":{"ha":607,"x_min":0,"x_max":0,"o":"m 568 719 l 556 719 l 303 69 l 51 719 l 39 719 l 297 59 b 217 -174 252 -36 217 -111 b 303 -270 217 -226 246 -270 b 391 -174 364 -270 391 -225 b 310 59 391 -109 357 -37 z m 380 -173 b 303 -260 380 -220 358 -260 b 228 -173 251 -260 228 -221 b 303 50 228 -111 261 -44 b 380 -173 349 -45 380 -111 z "},"ğ":{"ha":676,"x_min":0,"x_max":0,"o":"m 339 924 b 478 1028 417 924 463 970 l 469 1030 b 339 934 451 969 406 934 b 210 1030 273 934 227 969 l 201 1028 b 339 924 215 970 261 924 z m 642 758 b 336 733 589 744 550 733 b 100 496 197 733 100 639 b 221 297 100 398 149 335 b 143 177 178 269 143 231 b 301 71 143 112 196 71 l 426 71 b 619 -82 547 71 619 12 b 350 -258 619 -196 534 -258 b 83 -82 162 -258 84 -213 l 72 -82 b 350 -269 72 -220 156 -269 b 630 -81 540 -269 630 -202 b 427 81 630 16 557 81 l 302 81 b 154 178 201 81 154 119 b 231 293 154 227 186 266 b 344 268 264 278 302 268 b 583 494 489 268 583 351 b 397 724 583 618 520 702 b 645 746 532 724 600 733 z m 336 723 b 572 494 462 723 572 656 b 344 278 572 356 481 278 b 112 496 229 278 112 351 b 336 723 112 628 198 723 z "},"ǧ":{"ha":676,"x_min":0,"x_max":0,"o":"m 492 1025 l 339 909 l 188 1025 l 182 1018 l 336 897 l 343 897 l 499 1018 z m 642 758 b 336 733 589 744 550 733 b 100 496 197 733 100 639 b 221 297 100 398 149 335 b 143 177 178 269 143 231 b 301 71 143 112 196 71 l 426 71 b 619 -82 547 71 619 12 b 350 -258 619 -196 534 -258 b 83 -82 162 -258 84 -213 l 72 -82 b 350 -269 72 -220 156 -269 b 630 -81 540 -269 630 -202 b 427 81 630 16 557 81 l 302 81 b 154 178 201 81 154 119 b 231 293 154 227 186 266 b 344 268 264 278 301 268 b 583 494 489 268 583 351 b 397 724 583 618 520 702 b 645 746 532 724 599 733 z m 336 723 b 572 494 462 723 572 656 b 344 278 572 356 481 278 b 112 496 229 278 112 351 b 336 723 112 628 198 723 z "},"ĝ":{"ha":676,"x_min":0,"x_max":0,"o":"m 187 914 l 340 1030 l 491 914 l 497 920 l 343 1042 l 336 1042 l 181 920 z m 642 758 b 336 733 589 744 550 733 b 100 496 197 733 100 639 b 221 297 100 398 149 335 b 143 177 178 269 143 231 b 301 71 143 112 196 71 l 426 71 b 619 -82 547 71 619 12 b 350 -258 619 -196 534 -258 b 83 -82 162 -258 84 -213 l 72 -82 b 350 -269 72 -220 156 -269 b 630 -81 540 -269 630 -202 b 427 81 630 16 557 81 l 302 81 b 154 178 201 81 154 119 b 231 293 154 227 186 266 b 344 268 264 278 301 268 b 583 494 489 268 583 351 b 397 724 583 618 520 702 b 645 746 532 724 599 733 z m 336 723 b 572 494 462 723 572 656 b 344 278 572 356 481 278 b 112 496 229 278 112 351 b 336 723 112 628 198 723 z "},"ģ":{"ha":676,"x_min":0,"x_max":0,"o":"m 329 828 b 344 843 338 828 344 834 b 331 857 344 851 339 856 l 366 1024 l 359 1024 l 320 868 b 313 843 315 854 313 850 b 329 828 313 834 319 828 z m 642 758 b 336 733 589 744 550 733 b 100 496 197 733 100 639 b 221 297 100 398 149 335 b 143 177 178 269 143 231 b 301 71 143 112 196 71 l 426 71 b 619 -82 547 71 619 12 b 350 -258 619 -196 534 -258 b 83 -82 162 -258 84 -213 l 72 -82 b 350 -269 72 -220 156 -269 b 630 -81 540 -269 630 -202 b 427 81 630 16 557 81 l 302 81 b 154 178 201 81 154 119 b 231 293 154 227 186 266 b 344 268 264 278 301 268 b 583 494 489 268 583 351 b 397 724 583 618 520 702 b 645 746 532 724 599 733 z m 336 723 b 572 494 462 723 572 656 b 344 278 572 356 481 278 b 112 496 229 278 112 351 b 336 723 112 628 198 723 z "},"ġ":{"ha":676,"x_min":0,"x_max":0,"o":"m 339 988 b 325 974 330 988 325 981 b 339 960 325 967 330 960 b 353 974 349 960 353 967 b 339 988 353 981 349 988 z m 642 758 b 336 733 589 744 550 733 b 100 496 197 733 100 639 b 221 297 100 398 149 335 b 143 177 178 269 143 231 b 301 71 143 112 196 71 l 426 71 b 619 -82 547 71 619 12 b 350 -258 619 -196 534 -258 b 83 -82 162 -258 84 -213 l 72 -82 b 350 -269 72 -220 156 -269 b 630 -81 540 -269 630 -202 b 427 81 630 16 557 81 l 302 81 b 154 178 201 81 154 119 b 231 293 154 227 186 266 b 344 268 264 278 301 268 b 583 494 489 268 583 351 b 397 724 583 618 520 702 b 645 746 532 724 599 733 z m 336 723 b 572 494 462 723 572 656 b 344 278 572 356 481 278 b 112 496 229 278 112 351 b 336 723 112 628 198 723 z "},"ɠ":{"ha":796,"x_min":0,"x_max":0,"o":"m 736 1020 b 614 881 663 1020 614 972 l 614 598 b 390 733 579 663 507 733 b 115 371 215 733 115 580 b 378 15 115 149 219 15 b 614 163 502 15 567 81 l 614 -9 b 386 -259 614 -168 564 -259 b 212 -218 305 -259 255 -240 l 208 -227 b 386 -269 248 -248 301 -269 b 625 -10 571 -269 625 -173 l 625 881 b 736 1009 625 968 671 1009 b 844 972 787 1009 817 993 l 849 980 b 736 1020 824 1001 790 1020 z m 378 25 b 126 371 225 25 127 156 b 390 722 126 575 225 722 b 614 583 504 722 575 653 l 614 181 b 378 25 565 90 500 25 z "},"ƾ":{"ha":681,"x_min":0,"x_max":0,"o":"m 334 554 l 255 571 l 255 805 l 423 805 l 423 815 l 255 815 l 255 1017 l 244 1015 l 244 815 l 146 815 l 146 805 l 244 805 l 244 562 l 337 542 b 560 275 447 518 560 454 b 312 3 560 116 471 3 b 79 110 204 3 137 51 l 70 102 b 312 -8 131 40 202 -8 b 572 275 477 -8 572 110 b 334 554 572 461 455 529 z "},"ʔ":{"ha":585,"x_min":0,"x_max":0,"o":"m 190 0 l 202 0 l 202 441 l 280 458 b 518 737 401 484 518 551 b 258 1020 518 902 424 1020 b 16 910 148 1020 77 972 l 25 902 b 258 1009 83 961 150 1009 b 506 737 417 1009 506 896 b 283 470 506 558 393 494 l 190 449 z "},"ʖ":{"ha":681,"x_min":0,"x_max":0,"o":"m 244 1015 l 244 562 l 337 542 b 560 275 447 518 560 454 b 312 3 560 116 471 3 b 79 110 204 3 137 51 l 70 102 b 312 -8 131 40 202 -8 b 572 275 477 -8 572 110 b 334 554 572 461 455 529 l 255 571 l 255 1017 z "},"ʕ":{"ha":585,"x_min":0,"x_max":0,"o":"m 394 0 l 394 449 l 302 470 b 78 737 191 494 78 558 b 334 1009 78 896 174 1009 b 560 902 434 1009 502 961 l 568 910 b 333 1020 507 972 436 1020 b 66 737 168 1020 66 902 b 304 458 66 551 183 484 l 383 441 l 383 0 z "},"ɂ":{"ha":576,"x_min":0,"x_max":0,"o":"m 196 0 l 207 0 l 207 215 l 286 236 b 496 488 395 265 496 331 b 253 733 496 625 407 733 b 25 631 146 733 78 687 l 32 623 b 253 722 84 677 148 722 b 484 488 400 722 484 619 b 290 249 484 339 389 275 l 196 224 z "},"ʡ":{"ha":585,"x_min":0,"x_max":0,"o":"m 280 458 b 518 737 401 484 518 551 b 258 1020 518 902 424 1020 b 16 910 148 1020 77 972 l 25 902 b 258 1009 83 961 150 1009 b 506 737 417 1009 506 896 b 283 470 506 558 393 494 l 190 449 l 190 279 l 91 279 l 91 269 l 190 269 l 190 0 l 202 0 l 202 269 l 369 269 l 369 279 l 202 279 l 202 441 z "},"ʢ":{"ha":585,"x_min":0,"x_max":0,"o":"m 333 1020 b 66 737 168 1020 66 902 b 304 458 66 551 183 484 l 383 441 l 383 279 l 223 279 l 223 269 l 383 269 l 383 0 l 394 0 l 394 269 l 501 269 l 501 279 l 394 279 l 394 449 l 302 470 b 78 737 191 494 78 558 b 334 1009 78 896 174 1009 b 560 902 434 1009 502 961 l 568 910 b 333 1020 507 972 436 1020 z "},"ɡ":{"ha":796,"x_min":0,"x_max":0,"o":"m 615 719 l 614 598 b 390 733 579 663 507 733 b 115 371 215 733 115 580 b 378 15 115 149 219 15 b 614 163 502 15 567 81 l 614 -9 b 386 -259 614 -168 564 -259 b 213 -218 305 -259 255 -240 l 208 -227 b 386 -269 248 -248 301 -269 b 625 -10 571 -269 625 -173 l 625 719 z m 378 25 b 126 371 225 25 127 156 b 390 722 126 575 225 722 b 614 583 504 722 575 653 l 614 181 b 378 25 565 90 500 25 z "},"ǥ":{"ha":676,"x_min":0,"x_max":0,"o":"m 738 -76 l 630 -76 b 427 81 628 18 555 81 l 302 81 b 154 178 201 81 154 119 b 231 293 154 227 186 266 b 344 268 264 278 302 268 b 583 494 489 268 583 351 b 397 724 583 616 520 703 b 645 746 532 724 599 733 l 642 758 b 336 733 588 743 550 733 b 100 496 197 733 100 639 b 221 297 100 398 149 335 b 143 177 178 269 143 231 b 301 71 143 112 196 71 l 426 71 b 619 -76 545 71 616 14 l 413 -76 l 413 -87 l 619 -87 b 350 -258 616 -198 530 -258 b 83 -82 163 -258 84 -213 l 72 -82 b 350 -269 72 -220 156 -269 b 630 -87 537 -269 627 -204 l 738 -87 z m 112 496 b 336 723 112 628 198 723 b 572 494 462 723 572 656 b 344 278 572 356 481 278 b 112 496 229 278 112 351 z "},"ȝ":{"ha":625,"x_min":0,"x_max":0,"o":"m 279 733 b 53 661 184 733 119 705 l 58 653 b 279 722 125 696 184 722 b 472 544 403 722 472 652 b 270 373 472 444 419 373 l 200 373 l 199 363 l 278 363 b 505 203 434 363 505 312 b 97 -103 505 65 401 -32 l 99 -113 b 516 203 409 -43 516 61 b 317 369 516 319 441 364 b 484 544 429 380 484 440 b 279 733 484 660 407 733 z "},"h":{"ha":806,"x_min":0,"x_max":0,"o":"m 455 733 b 182 552 335 733 248 664 l 182 1017 l 171 1015 l 171 0 l 182 0 l 182 536 b 454 723 249 651 335 723 b 631 511 578 723 631 642 l 631 0 l 642 0 l 642 512 b 455 733 642 647 585 733 z "},"ħ":{"ha":813,"x_min":0,"x_max":0,"o":"m 461 733 b 189 552 342 733 255 664 l 189 882 l 450 882 l 450 892 l 189 892 l 189 1017 l 178 1015 l 178 892 l 73 892 l 73 882 l 178 882 l 178 0 l 189 0 l 189 536 b 461 723 256 651 342 723 b 638 511 585 723 638 642 l 638 0 l 649 0 l 649 512 b 462 733 649 647 592 733 z "},"ȟ":{"ha":806,"x_min":0,"x_max":0,"o":"m 410 1127 l 566 1241 l 559 1248 l 407 1139 l 256 1248 l 249 1241 l 403 1127 z m 455 733 b 182 552 335 733 248 664 l 182 1017 l 171 1015 l 171 0 l 182 0 l 182 536 b 454 723 249 651 335 723 b 631 511 578 723 631 642 l 631 0 l 642 0 l 642 512 b 455 733 642 647 585 733 z "},"ĥ":{"ha":806,"x_min":0,"x_max":0,"o":"m 407 1243 l 559 1135 l 566 1141 l 410 1255 l 403 1255 l 249 1141 l 256 1135 z m 455 733 b 182 552 335 733 248 664 l 182 1017 l 171 1015 l 171 0 l 182 0 l 182 536 b 454 723 249 651 335 723 b 631 511 578 723 631 642 l 631 0 l 642 0 l 642 512 b 455 733 642 647 585 733 z "},"ḥ":{"ha":806,"x_min":0,"x_max":0,"o":"m 455 733 b 182 552 335 733 248 664 l 182 1017 l 171 1015 l 171 0 l 182 0 l 182 536 b 454 723 249 651 335 723 b 631 511 578 723 631 642 l 631 0 l 642 0 l 642 512 b 455 733 642 647 585 733 z m 407 -145 b 393 -159 398 -145 393 -152 b 407 -173 393 -166 398 -173 b 422 -159 416 -173 422 -166 b 407 -145 422 -152 416 -145 z "},"ɧ":{"ha":806,"x_min":0,"x_max":0,"o":"m 455 733 b 182 552 335 733 248 664 l 182 857 b 331 1009 182 960 244 1009 b 482 966 390 1009 439 991 l 486 975 b 330 1020 443 1001 390 1020 b 171 858 237 1020 171 964 l 171 0 l 182 0 l 182 536 b 454 723 249 651 335 723 b 631 511 578 723 631 642 l 631 -130 b 520 -259 631 -217 585 -259 b 412 -221 469 -259 438 -242 l 407 -229 b 520 -269 432 -250 466 -269 b 642 -130 592 -269 642 -221 l 642 512 b 455 733 642 647 585 733 z "},"ɦ":{"ha":806,"x_min":0,"x_max":0,"o":"m 455 733 b 182 552 335 733 248 664 l 182 857 b 331 1009 182 960 244 1009 b 482 966 390 1009 439 991 l 486 975 b 330 1020 443 1001 390 1020 b 171 858 237 1020 171 964 l 171 0 l 182 0 l 182 536 b 454 723 249 651 335 723 b 631 511 578 723 631 642 l 631 0 l 642 0 l 642 512 b 455 733 642 647 585 733 z "},"ɥ":{"ha":806,"x_min":0,"x_max":0,"o":"m 624 719 l 624 183 b 352 -4 557 68 471 -4 b 175 208 228 -4 175 77 l 175 719 l 164 719 l 164 207 b 352 -14 164 72 221 -14 b 624 167 471 -14 558 55 l 624 -265 l 636 -267 l 636 719 z "},"ʮ":{"ha":906,"x_min":0,"x_max":0,"o":"m 724 719 l 724 183 b 451 -4 657 68 570 -4 b 274 208 328 -4 274 77 l 274 586 b 151 724 274 677 224 724 b 38 685 98 724 64 705 l 44 676 b 151 714 70 698 101 714 b 263 586 217 714 263 673 l 263 207 b 451 -14 263 72 321 -14 b 724 167 570 -14 657 55 l 724 -265 l 735 -267 l 735 719 z "},"ʯ":{"ha":906,"x_min":0,"x_max":0,"o":"m 954 -221 b 846 -259 928 -242 897 -259 b 735 -130 781 -259 735 -217 l 735 719 l 724 719 l 724 183 b 451 -4 657 68 570 -4 b 274 208 328 -4 274 77 l 274 586 b 151 724 274 677 224 724 b 38 685 98 724 64 705 l 44 676 b 151 714 70 698 101 714 b 263 586 217 714 263 673 l 263 207 b 451 -14 263 72 321 -14 b 724 167 570 -14 657 55 l 724 -130 b 846 -269 724 -221 774 -269 b 960 -229 900 -269 934 -250 z "},"ƕ":{"ha":1238,"x_min":0,"x_max":0,"o":"m 1064 719 l 1053 719 b 1090 371 1071 621 1090 501 b 840 -2 1090 101 979 -2 b 642 214 728 -2 642 69 l 642 512 b 455 733 642 647 585 733 b 182 552 335 733 248 664 l 182 1017 l 171 1015 l 171 0 l 182 0 l 182 536 b 454 723 249 651 335 723 b 631 511 578 723 631 642 l 631 213 b 840 -13 631 63 722 -13 b 1101 371 987 -13 1101 99 b 1064 719 1101 501 1082 621 z "},"i":{"ha":353,"x_min":0,"x_max":0,"o":"m 176 988 b 162 974 167 988 162 981 b 176 960 162 967 167 960 b 190 974 186 960 190 967 b 176 988 190 981 186 988 z m 182 719 l 171 719 l 171 0 l 182 0 z "},"ı":{"ha":353,"x_min":0,"x_max":0,"o":"m 182 719 l 171 719 l 171 0 l 182 0 z "},"í":{"ha":353,"x_min":0,"x_max":0,"o":"m 283 1042 l 47 925 l 52 916 l 288 1031 z m 182 719 l 171 719 l 171 0 l 182 0 z "},"ĭ":{"ha":353,"x_min":0,"x_max":0,"o":"m 176 924 b 315 1028 254 924 300 970 l 306 1030 b 176 934 288 969 243 934 b 47 1030 110 934 64 969 l 38 1028 b 176 924 52 970 98 924 z m 182 719 l 171 719 l 171 0 l 182 0 z "},"ǐ":{"ha":353,"x_min":0,"x_max":0,"o":"m 329 1025 l 176 909 l 25 1025 l 19 1018 l 173 897 l 180 897 l 336 1018 z m 182 719 l 171 719 l 171 0 l 182 0 z "},"î":{"ha":353,"x_min":0,"x_max":0,"o":"m 24 914 l 177 1030 l 328 914 l 334 920 l 180 1042 l 174 1042 l 18 920 z m 182 719 l 171 719 l 171 0 l 182 0 z "},"ȉ":{"ha":353,"x_min":0,"x_max":0,"o":"m 22 1093 l 11 1087 l 107 914 l 116 919 z m 171 1089 l 160 1084 l 248 918 l 257 922 z m 182 719 l 171 719 l 171 0 l 182 0 z "},"ï":{"ha":353,"x_min":0,"x_max":0,"o":"m 68 968 b 54 954 60 968 54 962 b 68 940 54 947 60 940 b 83 954 78 940 83 947 b 68 968 83 962 78 968 z m 283 968 b 268 954 273 968 268 962 b 283 940 268 947 273 940 b 297 954 291 940 297 947 b 283 968 297 962 291 968 z m 182 719 l 171 719 l 171 0 l 182 0 z "},"ḯ":{"ha":353,"x_min":0,"x_max":0,"o":"m 274 1112 l 147 958 l 154 952 l 283 1103 z m 68 927 b 54 913 60 927 54 920 b 68 899 54 905 60 899 b 83 913 78 899 83 905 b 68 927 83 920 78 927 z m 283 927 b 268 913 273 927 268 920 b 283 899 268 905 273 899 b 297 913 291 899 297 905 b 283 927 297 920 291 927 z m 182 719 l 171 719 l 171 0 l 182 0 z "},"ị":{"ha":353,"x_min":0,"x_max":0,"o":"m 176 988 b 162 974 167 988 162 981 b 176 960 162 967 167 960 b 190 974 186 960 190 967 b 176 988 190 981 186 988 z m 182 719 l 171 719 l 171 0 l 182 0 z m 176 -173 b 190 -159 185 -173 190 -166 b 176 -145 190 -152 185 -145 b 162 -159 167 -145 162 -152 b 176 -173 162 -166 167 -173 z "},"ì":{"ha":353,"x_min":0,"x_max":0,"o":"m 66 1042 l 61 1031 l 298 916 l 302 925 z m 182 719 l 171 719 l 171 0 l 182 0 z "},"ỉ":{"ha":353,"x_min":0,"x_max":0,"o":"m 167 867 l 178 867 l 178 947 b 272 1032 231 951 272 971 b 182 1113 272 1082 236 1113 b 98 1088 146 1113 119 1101 l 102 1080 b 181 1102 123 1091 148 1102 b 261 1031 229 1102 261 1077 b 167 954 261 974 219 958 z m 182 719 l 171 719 l 171 0 l 182 0 z "},"ȋ":{"ha":353,"x_min":0,"x_max":0,"o":"m 176 999 b 38 894 98 999 52 953 l 47 893 b 176 988 64 954 110 988 b 306 893 243 988 288 954 l 315 894 b 176 999 300 953 254 999 z m 182 719 l 171 719 l 171 0 l 182 0 z "},"ĳ":{"ha":706,"x_min":0,"x_max":0,"o":"m 176 988 b 162 974 167 988 162 981 b 176 960 162 967 167 960 b 190 974 186 960 190 967 b 176 988 190 981 186 988 z m 529 988 b 514 974 519 988 514 981 b 529 960 514 967 519 960 b 543 974 538 960 543 967 b 529 988 543 981 538 988 z m 182 719 l 171 719 l 171 0 l 182 0 z m 534 719 l 523 719 l 523 4 b 389 -258 523 -160 483 -208 l 392 -267 b 534 3 491 -214 534 -166 z "},"ī":{"ha":353,"x_min":0,"x_max":0,"o":"m 312 955 l 312 966 l 41 966 l 41 955 z m 182 719 l 171 719 l 171 0 l 182 0 z "},"į":{"ha":353,"x_min":0,"x_max":0,"o":"m 176 988 b 162 974 167 988 162 981 b 176 960 162 967 167 960 b 190 974 186 960 190 967 b 176 988 190 981 186 988 z m 171 4 b -14 -172 79 -32 -14 -83 b 100 -273 -14 -235 28 -273 b 174 -262 127 -273 144 -270 l 175 -251 b 100 -262 145 -259 125 -262 b -2 -171 36 -262 -2 -229 b 182 0 -2 -82 98 -33 l 182 719 l 171 719 z "},"ɩ":{"ha":382,"x_min":0,"x_max":0,"o":"m 251 -13 b 311 -1 273 -13 294 -8 l 308 9 b 252 -2 291 2 272 -2 b 175 92 200 -2 175 34 l 175 719 l 164 719 l 164 92 b 251 -13 164 25 194 -13 z "},"ɨ":{"ha":392,"x_min":0,"x_max":0,"o":"m 176 960 b 190 974 186 960 190 967 b 176 988 190 981 186 988 b 162 974 167 988 162 981 b 176 960 162 967 167 960 z m 358 399 l 182 399 l 182 719 l 171 719 l 171 399 l 33 399 l 33 389 l 171 389 l 171 0 l 182 0 l 182 389 l 358 389 z "},"ĩ":{"ha":353,"x_min":0,"x_max":0,"o":"m 257 949 b 352 1009 297 949 323 966 l 344 1013 b 257 960 316 975 294 960 b 99 1021 198 960 154 1021 b 6 966 61 1021 37 1003 l 13 962 b 99 1010 43 995 64 1010 b 257 949 150 1010 196 949 z m 182 719 l 171 719 l 171 0 l 182 0 z "},"j":{"ha":353,"x_min":0,"x_max":0,"o":"m 176 988 b 162 974 167 988 162 981 b 176 960 162 967 167 960 b 190 974 186 960 190 967 b 176 988 190 981 186 988 z m 182 719 l 171 719 l 171 4 b 36 -258 171 -160 131 -208 l 40 -267 b 182 3 139 -214 182 -166 z "},"ȷ":{"ha":353,"x_min":0,"x_max":0,"o":"m 182 719 l 171 719 l 171 4 b 36 -258 171 -160 131 -208 l 40 -267 b 182 3 139 -214 182 -166 z "},"ǰ":{"ha":353,"x_min":0,"x_max":0,"o":"m 329 1025 l 176 909 l 25 1025 l 19 1018 l 173 897 l 180 897 l 336 1018 z m 182 719 l 171 719 l 171 4 b 36 -258 171 -160 131 -208 l 40 -267 b 182 3 139 -214 182 -166 z "},"ĵ":{"ha":353,"x_min":0,"x_max":0,"o":"m 24 914 l 177 1030 l 328 914 l 334 920 l 180 1042 l 174 1042 l 18 920 z m 182 719 l 171 719 l 171 4 b 36 -258 171 -160 131 -208 l 40 -267 b 182 3 139 -214 182 -166 z "},"ʝ":{"ha":374,"x_min":0,"x_max":0,"o":"m 196 960 b 210 974 206 960 210 967 b 196 988 210 981 206 988 b 182 974 187 988 182 981 b 196 960 182 967 187 960 z m 314 -86 b 202 -42 274 -66 242 -54 l 202 719 l 191 719 l 191 -40 b 59 -24 153 -30 114 -24 b -100 -154 -37 -24 -100 -73 b 36 -269 -100 -220 -49 -269 b 202 -53 146 -269 200 -191 b 311 -95 239 -63 274 -76 z m 36 -259 b -89 -154 -43 -259 -89 -215 b 59 -34 -89 -80 -32 -34 b 191 -50 114 -34 150 -40 b 36 -259 190 -187 139 -259 z "},"ɟ":{"ha":392,"x_min":0,"x_max":0,"o":"m 358 344 l 207 344 l 207 719 l 196 719 l 196 344 l 33 344 l 33 333 l 196 333 l 196 4 b 61 -258 196 -160 156 -208 l 65 -267 b 207 3 164 -214 207 -166 l 207 333 l 358 333 z "},"ʄ":{"ha":392,"x_min":0,"x_max":0,"o":"m 207 10 l 207 881 b 318 1009 207 968 253 1009 b 426 972 369 1009 399 993 l 432 980 b 318 1020 406 1001 372 1020 b 196 881 245 1020 196 972 l 196 10 l 38 10 l 38 0 l 196 0 b 61 -258 195 -161 155 -208 l 65 -267 b 207 0 163 -215 206 -166 l 363 0 l 363 10 z "},"ɉ":{"ha":392,"x_min":0,"x_max":0,"o":"m 201 960 b 215 974 210 960 215 967 b 201 988 215 981 210 988 b 187 974 192 988 187 981 b 201 960 187 967 192 960 z m 358 344 l 207 344 l 207 719 l 196 719 l 196 344 l 33 344 l 33 333 l 196 333 l 196 4 b 61 -258 196 -160 156 -208 l 65 -267 b 207 3 164 -214 207 -166 l 207 333 l 358 333 z "},"k":{"ha":629,"x_min":0,"x_max":0,"o":"m 182 1016 l 171 1015 l 171 0 l 182 0 z m 560 719 l 546 719 l 190 393 l 582 0 l 597 0 l 205 394 z "},"ǩ":{"ha":629,"x_min":0,"x_max":0,"o":"m 513 1248 l 360 1139 l 209 1248 l 203 1241 l 357 1127 l 363 1127 l 519 1241 z m 182 1016 l 171 1015 l 171 0 l 182 0 z m 560 719 l 546 719 l 190 393 l 582 0 l 597 0 l 205 394 z "},"ķ":{"ha":629,"x_min":0,"x_max":0,"o":"m 182 1016 l 171 1015 l 171 0 l 182 0 z m 560 719 l 546 719 l 190 393 l 582 0 l 597 0 l 205 394 z m 373 -144 b 358 -159 364 -144 358 -150 b 371 -173 358 -167 362 -171 l 335 -340 l 343 -340 l 382 -184 b 388 -159 387 -170 388 -165 b 373 -144 388 -150 383 -144 z "},"ĸ":{"ha":626,"x_min":0,"x_max":0,"o":"m 182 719 l 171 719 l 171 0 l 182 0 z m 558 719 l 543 719 l 188 379 l 580 0 l 595 0 l 202 380 z "},"ƙ":{"ha":629,"x_min":0,"x_max":0,"o":"m 331 1009 b 482 966 390 1009 439 991 l 486 975 b 330 1020 443 1001 390 1020 b 171 858 237 1020 171 964 l 171 0 l 182 0 l 182 857 b 331 1009 182 960 244 1009 z m 205 394 l 560 719 l 546 719 l 190 393 l 582 0 l 597 0 z "},"ʞ":{"ha":629,"x_min":0,"x_max":0,"o":"m 68 0 l 83 0 l 438 326 l 46 719 l 32 719 l 424 325 z m 447 -265 l 458 -267 l 458 719 l 447 719 z "},"l":{"ha":382,"x_min":0,"x_max":0,"o":"m 251 -13 b 311 -1 273 -13 294 -8 l 308 9 b 252 -2 291 2 272 -2 b 175 92 200 -2 175 34 l 175 1016 l 164 1015 l 164 92 b 251 -13 164 25 194 -13 z "},"ĺ":{"ha":382,"x_min":0,"x_max":0,"o":"m 281 1248 l 47 1146 l 50 1138 l 286 1236 z m 251 -13 b 311 -1 273 -13 294 -8 l 308 9 b 252 -2 291 2 272 -2 b 175 92 200 -2 175 34 l 175 1016 l 164 1015 l 164 92 b 251 -13 164 25 194 -13 z "},"ƛ":{"ha":619,"x_min":0,"x_max":0,"o":"m 338 714 b 265 926 319 807 300 876 l 355 1021 l 347 1027 l 259 934 b 123 1018 228 974 186 1001 l 122 1009 b 252 927 183 992 223 965 l 130 800 l 139 796 l 258 919 b 327 719 290 871 308 806 l 322 719 l 66 -2 l 77 -5 l 328 708 b 611 -3 427 218 509 114 l 621 1 b 338 714 519 118 437 222 z "},"ƚ":{"ha":392,"x_min":0,"x_max":0,"o":"m 358 503 l 358 513 l 175 513 l 175 1016 l 164 1015 l 164 513 l 33 513 l 33 503 l 164 503 l 164 92 b 251 -13 164 25 194 -13 b 311 -1 273 -13 294 -8 l 308 9 b 252 -2 291 2 272 -2 b 175 92 200 -2 175 34 l 175 503 z "},"ɬ":{"ha":413,"x_min":0,"x_max":0,"o":"m 340 9 b 284 -2 324 2 305 -2 b 207 92 232 -2 207 34 l 207 399 b 321 411 254 400 283 403 l 320 420 b 207 409 282 413 254 410 l 207 1016 l 196 1015 l 196 605 b 158 608 185 607 174 608 b 44 507 92 608 44 572 b 196 399 44 435 99 399 l 196 92 b 284 -13 196 25 227 -13 b 343 -1 305 -13 326 -8 z m 55 507 b 158 598 55 567 98 598 b 196 595 173 598 185 597 l 196 409 b 55 507 106 409 55 440 z "},"ľ":{"ha":382,"x_min":0,"x_max":0,"o":"m 251 -13 b 311 -1 273 -13 294 -8 l 308 9 b 252 -2 291 2 272 -2 b 175 92 200 -2 175 34 l 175 1016 l 164 1015 l 164 92 b 251 -13 164 25 194 -13 z m 306 822 l 297 822 l 324 1016 l 336 1015 z "},"ḽ":{"ha":382,"x_min":0,"x_max":0,"o":"m 251 -13 b 311 -1 273 -13 294 -8 l 308 9 b 252 -2 291 2 272 -2 b 175 92 200 -2 175 34 l 175 1016 l 164 1015 l 164 92 b 251 -13 164 25 194 -13 z m 91 -242 l 244 -126 l 395 -242 l 401 -235 l 247 -114 l 240 -114 l 85 -235 z "},"ļ":{"ha":382,"x_min":0,"x_max":0,"o":"m 251 -13 b 311 -1 273 -13 294 -8 l 308 9 b 252 -2 291 2 272 -2 b 175 92 200 -2 175 34 l 175 1016 l 164 1015 l 164 92 b 251 -13 164 25 194 -13 z m 243 -144 b 228 -159 234 -144 228 -150 b 240 -173 228 -167 232 -171 l 205 -340 l 213 -340 l 251 -184 b 258 -159 257 -170 258 -165 b 243 -144 258 -150 253 -144 z "},"ȴ":{"ha":456,"x_min":0,"x_max":0,"o":"m 390 247 b 185 77 293 247 235 178 b 175 137 178 94 175 114 l 175 1016 l 164 1015 l 164 137 b 178 65 164 109 169 85 l 113 -67 l 122 -70 l 184 54 b 323 -13 210 9 260 -13 b 508 134 431 -13 508 47 b 390 247 508 198 463 247 z m 323 -2 b 190 66 260 -2 213 20 l 190 66 b 390 237 240 169 296 237 b 496 134 457 237 496 194 b 323 -2 496 52 425 -2 z "},"ŀ":{"ha":382,"x_min":0,"x_max":0,"o":"m 251 -13 b 311 -1 273 -13 294 -8 l 308 9 b 252 -2 291 2 272 -2 b 175 92 200 -2 175 34 l 175 1016 l 164 1015 l 164 92 b 251 -13 164 25 194 -13 z m 357 535 b 343 521 348 535 343 528 b 357 507 343 514 348 507 b 372 521 367 507 372 514 b 357 535 372 528 367 535 z "},"ḷ":{"ha":382,"x_min":0,"x_max":0,"o":"m 251 -13 b 311 -1 273 -13 294 -8 l 308 9 b 252 -2 291 2 272 -2 b 175 92 200 -2 175 34 l 175 1016 l 164 1015 l 164 92 b 251 -13 164 25 194 -13 z m 243 -173 b 257 -159 252 -173 257 -166 b 243 -145 257 -152 252 -145 b 229 -159 234 -145 229 -152 b 243 -173 229 -166 234 -173 z "},"ɮ":{"ha":815,"x_min":0,"x_max":0,"o":"m 460 265 l 405 265 l 718 709 l 718 719 l 175 719 l 175 1016 l 164 1015 l 164 92 b 251 -13 164 25 194 -13 b 311 -1 273 -13 294 -8 l 308 9 b 252 -2 291 2 272 -2 b 175 92 200 -2 175 34 l 175 708 l 704 708 l 391 265 l 391 255 l 461 255 b 750 1 652 255 750 171 b 494 -258 750 -153 657 -258 b 271 -169 395 -258 328 -226 l 264 -176 b 494 -269 322 -234 392 -269 b 761 1 662 -269 761 -160 b 460 265 761 174 662 265 z "},"ɭ":{"ha":353,"x_min":0,"x_max":0,"o":"m 401 -221 b 293 -259 375 -242 344 -259 b 182 -130 228 -259 182 -217 l 182 1016 l 171 1015 l 171 -130 b 293 -269 171 -221 221 -269 b 407 -229 347 -269 381 -250 z "},"ǉ":{"ha":735,"x_min":0,"x_max":0,"o":"m 251 -13 b 311 -1 273 -13 294 -8 l 308 9 b 252 -2 291 2 272 -2 b 175 92 200 -2 175 34 l 175 1016 l 164 1015 l 164 92 b 251 -13 164 25 194 -13 z m 559 988 b 544 974 550 988 544 981 b 559 960 544 967 550 960 b 573 974 568 960 573 967 b 559 988 573 981 568 988 z m 565 719 l 553 719 l 553 4 b 419 -258 553 -160 513 -208 l 423 -267 b 565 3 522 -214 565 -166 z "},"ɫ":{"ha":386,"x_min":0,"x_max":0,"o":"m 279 459 b 381 526 329 459 361 491 l 373 529 b 279 470 352 497 325 470 b 179 509 246 470 213 490 l 179 1016 l 168 1015 l 168 515 b 78 547 139 532 109 547 b -27 480 29 547 -4 515 l -19 476 b 78 536 5 509 32 536 b 168 503 108 536 138 520 l 168 92 b 256 -13 168 25 199 -13 b 315 -1 277 -13 298 -8 l 312 9 b 256 -2 296 2 277 -2 b 179 92 204 -2 179 34 l 179 497 b 279 459 212 478 246 459 z "},"ʪ":{"ha":856,"x_min":0,"x_max":0,"o":"m 460 -13 b 761 189 655 -13 761 61 b 556 387 761 301 703 346 b 363 561 417 425 363 471 b 554 722 363 658 445 722 b 748 651 633 722 690 699 l 755 659 b 553 733 697 708 636 733 b 352 562 438 733 352 663 b 551 378 352 465 411 416 b 750 189 695 338 750 296 b 460 -2 750 66 647 -2 b 175 228 261 -2 175 88 l 175 1016 l 164 1015 l 164 228 b 460 -13 164 81 256 -13 z "},"ł":{"ha":400,"x_min":0,"x_max":0,"o":"m 260 -2 b 183 92 208 -2 183 34 l 183 502 l 338 599 l 333 608 l 183 514 l 183 1016 l 172 1015 l 172 507 l 72 444 l 77 436 l 172 495 l 172 92 b 260 -13 172 25 203 -13 b 319 -1 282 -13 302 -8 l 317 9 b 260 -2 300 2 281 -2 z "},"ʫ":{"ha":838,"x_min":0,"x_max":0,"o":"m 783 719 l 356 719 l 356 708 l 768 708 l 314 10 b 252 -2 291 2 272 -2 b 175 92 200 -2 175 34 l 175 1016 l 164 1015 l 164 92 b 251 -13 164 25 194 -13 b 316 0 273 -13 293 -8 l 768 0 l 769 11 l 328 11 l 783 709 z "},"m":{"ha":1175,"x_min":0,"x_max":0,"o":"m 836 733 b 595 552 731 733 653 663 b 421 733 587 663 527 733 b 182 553 317 733 240 664 l 181 719 l 171 719 l 171 0 l 182 0 l 182 536 b 421 723 240 651 317 723 b 585 521 532 723 585 642 l 585 0 l 596 0 l 596 536 b 836 723 655 651 731 723 b 1000 511 947 723 1000 642 l 1000 0 l 1011 0 l 1011 512 b 836 733 1011 647 953 733 z "},"ḿ":{"ha":1175,"x_min":0,"x_max":0,"o":"m 700 1031 l 695 1042 l 459 925 l 463 916 z m 836 733 b 595 552 731 733 653 663 b 421 733 587 663 527 733 b 182 553 317 733 240 664 l 181 719 l 171 719 l 171 0 l 182 0 l 182 536 b 421 723 240 651 317 723 b 585 521 532 723 585 642 l 585 0 l 596 0 l 596 536 b 836 723 655 651 731 723 b 1000 511 947 723 1000 642 l 1000 0 l 1011 0 l 1011 512 b 836 733 1011 647 953 733 z "},"ṁ":{"ha":1175,"x_min":0,"x_max":0,"o":"m 588 960 b 602 974 598 960 602 967 b 588 988 602 981 598 988 b 574 974 579 988 574 981 b 588 960 574 967 579 960 z m 836 733 b 595 552 731 733 653 663 b 421 733 587 663 527 733 b 182 553 317 733 240 664 l 181 719 l 171 719 l 171 0 l 182 0 l 182 536 b 421 723 240 651 317 723 b 585 521 532 723 585 642 l 585 0 l 596 0 l 596 536 b 836 723 655 651 731 723 b 1000 511 947 723 1000 642 l 1000 0 l 1011 0 l 1011 512 b 836 733 1011 647 953 733 z "},"ɱ":{"ha":1175,"x_min":0,"x_max":0,"o":"m 836 733 b 595 552 731 733 653 663 b 421 733 587 663 527 733 b 182 553 317 733 240 664 l 181 719 l 171 719 l 171 0 l 182 0 l 182 536 b 421 723 240 651 317 723 b 585 521 532 723 585 642 l 585 0 l 596 0 l 596 536 b 836 723 655 651 731 723 b 1000 511 947 723 1000 642 l 1000 -130 b 888 -259 1000 -217 954 -259 b 781 -221 838 -259 807 -242 l 775 -229 b 888 -269 801 -250 835 -269 b 1011 -130 961 -269 1011 -221 l 1011 512 b 836 733 1011 647 953 733 z "},"ɰ":{"ha":1175,"x_min":0,"x_max":0,"o":"m 993 719 l 993 183 b 754 -4 934 68 858 -4 b 589 198 642 -4 589 77 l 589 719 l 578 719 l 578 183 b 339 -4 520 68 443 -4 b 175 208 228 -4 175 77 l 175 719 l 164 719 l 164 207 b 339 -14 164 72 221 -14 b 579 167 443 -14 521 55 b 753 -14 587 56 648 -14 b 993 165 857 -14 935 55 l 993 -265 l 1004 -267 l 1004 719 z "},"ɯ":{"ha":1175,"x_min":0,"x_max":0,"o":"m 993 719 l 993 183 b 754 -4 934 68 858 -4 b 589 198 642 -4 589 77 l 589 719 l 578 719 l 578 183 b 339 -4 520 68 443 -4 b 175 208 228 -4 175 77 l 175 719 l 164 719 l 164 207 b 339 -14 164 72 221 -14 b 579 167 443 -14 521 55 b 753 -14 587 56 648 -14 b 993 166 857 -14 935 55 l 994 0 l 1004 0 l 1004 719 z "},"n":{"ha":806,"x_min":0,"x_max":0,"o":"m 455 733 b 182 553 335 733 248 664 l 181 719 l 171 719 l 171 0 l 182 0 l 182 536 b 454 723 249 651 335 723 b 631 511 579 723 631 645 l 631 0 l 642 0 l 642 512 b 455 733 642 650 586 733 z "},"ń":{"ha":806,"x_min":0,"x_max":0,"o":"m 522 1031 l 517 1042 l 281 925 l 286 916 z m 455 733 b 182 553 335 733 248 664 l 181 719 l 171 719 l 171 0 l 182 0 l 182 536 b 454 723 249 651 335 723 b 631 511 579 723 631 645 l 631 0 l 642 0 l 642 512 b 455 733 642 650 586 733 z "},"ŉ":{"ha":882,"x_min":0,"x_max":0,"o":"m 131 1020 b 116 1005 121 1020 116 1013 b 128 990 116 997 119 992 l 95 822 l 102 822 l 139 979 b 146 1005 144 994 146 998 b 131 1020 146 1013 140 1020 z m 530 733 b 257 553 410 733 323 664 l 256 719 l 246 719 l 246 0 l 257 0 l 257 536 b 529 723 324 651 410 723 b 707 511 654 723 707 645 l 707 0 l 718 0 l 718 512 b 530 733 718 650 661 733 z "},"ň":{"ha":806,"x_min":0,"x_max":0,"o":"m 414 897 l 570 1018 l 563 1025 l 410 909 l 260 1025 l 253 1018 l 407 897 z m 455 733 b 182 553 335 733 248 664 l 181 719 l 171 719 l 171 0 l 182 0 l 182 536 b 454 723 249 651 335 723 b 631 511 579 723 631 645 l 631 0 l 642 0 l 642 512 b 455 733 642 650 586 733 z "},"ṋ":{"ha":806,"x_min":0,"x_max":0,"o":"m 455 733 b 182 553 335 733 248 664 l 181 719 l 171 719 l 171 0 l 182 0 l 182 536 b 454 723 249 651 335 723 b 631 511 579 723 631 645 l 631 0 l 642 0 l 642 512 b 455 733 642 650 586 733 z m 397 -114 l 241 -235 l 247 -242 l 400 -126 l 551 -242 l 557 -235 l 403 -114 z "},"ņ":{"ha":806,"x_min":0,"x_max":0,"o":"m 455 733 b 182 553 335 733 248 664 l 181 719 l 171 719 l 171 0 l 182 0 l 182 536 b 454 723 249 651 335 723 b 631 511 579 723 631 645 l 631 0 l 642 0 l 642 512 b 455 733 642 650 586 733 z m 399 -144 b 384 -159 390 -144 384 -150 b 396 -173 384 -167 388 -171 l 361 -340 l 369 -340 l 407 -184 b 414 -159 413 -170 414 -165 b 399 -144 414 -150 409 -144 z "},"ȵ":{"ha":922,"x_min":0,"x_max":0,"o":"m 857 247 b 652 77 761 247 702 178 b 642 137 646 94 642 114 l 642 512 b 455 733 642 650 586 733 b 182 553 335 733 248 664 l 181 719 l 171 719 l 171 0 l 182 0 l 182 536 b 454 723 249 651 335 723 b 631 511 579 723 631 645 l 631 137 b 646 65 631 109 637 85 l 580 -67 l 590 -70 l 652 54 b 790 -13 678 9 728 -13 b 975 134 899 -13 975 47 b 857 247 975 198 931 247 z m 790 -2 b 657 66 728 -2 680 20 l 658 66 b 857 237 708 169 764 237 b 964 134 924 237 964 194 b 790 -2 964 52 892 -2 z "},"ṅ":{"ha":806,"x_min":0,"x_max":0,"o":"m 410 960 b 425 974 420 960 425 967 b 410 988 425 981 420 988 b 396 974 401 988 396 981 b 410 960 396 967 401 960 z m 455 733 b 182 553 335 733 248 664 l 181 719 l 171 719 l 171 0 l 182 0 l 182 536 b 454 723 249 651 335 723 b 631 511 579 723 631 645 l 631 0 l 642 0 l 642 512 b 455 733 642 650 586 733 z "},"ṇ":{"ha":806,"x_min":0,"x_max":0,"o":"m 455 733 b 182 553 335 733 248 664 l 181 719 l 171 719 l 171 0 l 182 0 l 182 536 b 454 723 249 651 335 723 b 631 511 579 723 631 645 l 631 0 l 642 0 l 642 512 b 455 733 642 650 586 733 z m 399 -145 b 385 -159 390 -145 385 -152 b 399 -173 385 -166 390 -173 b 413 -159 408 -173 413 -166 b 399 -145 413 -152 408 -145 z "},"ǹ":{"ha":806,"x_min":0,"x_max":0,"o":"m 536 925 l 300 1042 l 295 1031 l 532 916 z m 455 733 b 182 553 335 733 248 664 l 181 719 l 171 719 l 171 0 l 182 0 l 182 536 b 454 723 249 651 335 723 b 631 511 579 723 631 645 l 631 0 l 642 0 l 642 512 b 455 733 642 650 586 733 z "},"ŋ":{"ha":806,"x_min":0,"x_max":0,"o":"m 455 733 b 182 553 335 733 248 664 l 181 719 l 171 719 l 171 0 l 182 0 l 182 536 b 454 723 249 651 335 723 b 631 511 579 723 631 645 l 631 -130 b 520 -259 631 -217 585 -259 b 412 -221 469 -259 438 -242 l 407 -229 b 520 -269 432 -250 466 -269 b 642 -130 592 -269 642 -221 l 642 512 b 455 733 642 650 586 733 z "},"ɲ":{"ha":806,"x_min":0,"x_max":0,"o":"m 455 733 b 182 553 335 733 248 664 l 181 719 l 171 719 l 171 -130 b 59 -259 171 -217 124 -259 b -49 -221 8 -259 -22 -242 l -54 -229 b 59 -269 -29 -250 5 -269 b 182 -130 132 -269 182 -221 l 182 536 b 454 723 249 651 335 723 b 631 511 579 723 631 645 l 631 0 l 642 0 l 642 512 b 455 733 642 650 586 733 z "},"ɳ":{"ha":806,"x_min":0,"x_max":0,"o":"m 862 -221 b 754 -259 835 -242 805 -259 b 642 -130 689 -259 642 -217 l 642 512 b 455 733 642 650 586 733 b 182 553 335 733 248 664 l 181 719 l 171 719 l 171 0 l 182 0 l 182 536 b 454 723 249 651 335 723 b 631 511 579 723 631 645 l 631 -130 b 754 -269 631 -221 682 -269 b 867 -229 808 -269 842 -250 z "},"ǌ":{"ha":1158,"x_min":0,"x_max":0,"o":"m 982 988 b 968 974 973 988 968 981 b 982 960 968 967 973 960 b 997 974 992 960 997 967 b 982 988 997 981 992 988 z m 455 733 b 182 553 335 733 248 664 l 181 719 l 171 719 l 171 0 l 182 0 l 182 536 b 454 723 249 651 335 723 b 631 511 579 723 631 645 l 631 0 l 642 0 l 642 512 b 455 733 642 650 586 733 z m 977 4 b 842 -258 977 -160 937 -208 l 846 -267 b 988 3 945 -214 988 -166 l 988 719 l 977 719 z "},"ƞ":{"ha":806,"x_min":0,"x_max":0,"o":"m 455 733 b 182 553 335 733 248 664 l 181 719 l 171 719 l 171 0 l 182 0 l 182 536 b 454 723 249 651 335 723 b 631 511 579 723 631 645 l 631 -265 l 642 -267 l 642 512 b 455 733 642 650 586 733 z "},"ñ":{"ha":806,"x_min":0,"x_max":0,"o":"m 333 1010 b 491 949 384 1010 430 949 b 586 1009 531 949 557 966 l 578 1013 b 491 960 550 975 528 960 b 333 1021 432 960 388 1021 b 240 966 295 1021 271 1003 l 248 962 b 333 1010 277 995 299 1010 z m 455 733 b 182 553 335 733 248 664 l 181 719 l 171 719 l 171 0 l 182 0 l 182 536 b 454 723 249 651 335 723 b 631 511 579 723 631 645 l 631 0 l 642 0 l 642 512 b 455 733 642 650 586 733 z "},"o":{"ha":776,"x_min":0,"x_max":0,"o":"m 390 733 b 108 359 220 733 108 599 b 388 -13 108 126 214 -13 b 669 364 560 -13 669 124 b 390 733 669 598 562 733 z m 390 722 b 657 364 556 722 657 591 b 388 -2 657 129 554 -2 b 120 359 221 -2 120 132 b 390 722 120 594 227 722 z "},"ó":{"ha":776,"x_min":0,"x_max":0,"o":"m 496 1042 l 260 925 l 265 916 l 501 1031 z m 390 733 b 108 359 220 733 108 599 b 388 -13 108 126 214 -13 b 669 364 560 -13 669 124 b 390 733 669 598 562 733 z m 390 722 b 657 364 556 722 657 591 b 388 -2 657 129 554 -2 b 120 359 221 -2 120 132 b 390 722 120 594 227 722 z "},"ɵ":{"ha":776,"x_min":0,"x_max":0,"o":"m 390 733 b 108 360 220 733 108 599 b 388 -13 108 126 214 -13 b 669 360 560 -13 669 124 b 390 733 669 598 562 733 z m 390 722 b 657 369 553 722 655 594 l 120 369 b 390 722 122 596 229 722 z m 388 -2 b 120 358 221 -2 120 132 l 657 358 b 388 -2 657 129 553 -2 z "},"ŏ":{"ha":776,"x_min":0,"x_max":0,"o":"m 389 924 b 528 1028 467 924 513 970 l 519 1030 b 389 934 501 969 456 934 b 260 1030 323 934 277 969 l 251 1028 b 389 924 265 970 311 924 z m 390 733 b 108 359 220 733 108 599 b 388 -13 108 126 214 -13 b 669 364 560 -13 669 124 b 390 733 669 598 562 733 z m 390 722 b 657 364 556 722 657 591 b 388 -2 657 129 554 -2 b 120 359 221 -2 120 132 b 390 722 120 594 227 722 z "}}}
